<?xml version="1.0" encoding="UTF-8" standalone="no"?>
<svg
   viewBox="0 0 566.92914 842.83466"
   width="150mm"
   height="223mm"
   version="1.1"
   id="svg6151"
   sodipodi:docname="wing_bottom_cover.svg"
   inkscape:version="1.1.2 (b8e25be8, 2022-02-05)"
   xmlns:inkscape="http://www.inkscape.org/namespaces/inkscape"
   xmlns:sodipodi="http://sodipodi.sourceforge.net/DTD/sodipodi-0.dtd"
   xmlns="http://www.w3.org/2000/svg"
   xmlns:svg="http://www.w3.org/2000/svg">
  <sodipodi:namedview
     id="namedview6153"
     pagecolor="#ffffff"
     bordercolor="#111111"
     borderopacity="1"
     inkscape:pageshadow="0"
     inkscape:pageopacity="0"
     inkscape:pagecheckerboard="1"
     showgrid="false"
     inkscape:document-units="mm"
     units="mm"
     inkscape:zoom="0.74442799"
     inkscape:cx="151.12274"
     inkscape:cy="547.40016"
     inkscape:window-width="1440"
     inkscape:window-height="847"
     inkscape:window-x="0"
     inkscape:window-y="25"
     inkscape:window-maximized="0"
     inkscape:current-layer="layer3" />
  <desc
     id="desc6089">bottom.dxf - scale = 1.0, origin = (0.0, 0.0), method = auto</desc>
  <defs
     id="defs6103">
    <marker
       id="DistanceX"
       orient="auto"
       refX="0"
       refY="0"
       style="overflow:visible">
      <path
         d="M 3,-3 -3,3 M 0,-5 V 5"
         style="stroke:#000000;stroke-width:0.5"
         id="path6091" />
    </marker>
    <pattern
       id="Hatch"
       patternUnits="userSpaceOnUse"
       width="8"
       height="8"
       x="0"
       y="0">
      <path
         d="M8 4 l-4,4"
         stroke="#000000"
         stroke-width="0.25"
         linecap="square"
         id="path6094" />
      <path
         d="M6 2 l-4,4"
         stroke="#000000"
         stroke-width="0.25"
         linecap="square"
         id="path6096" />
      <path
         d="M4 0 l-4,4"
         stroke="#000000"
         stroke-width="0.25"
         linecap="square"
         id="path6098" />
    </pattern>
    <symbol
       id="*MODEL_SPACE" />
    <symbol
       id="*PAPER_SPACE" />
  </defs>
  <g
     inkscape:groupmode="layer"
     id="layer2"
     inkscape:label="frame"
     style="display:none"
     sodipodi:insensitive="true">
    <rect
       style="fill:none;stroke:#000000;stroke-width:11.3386;stroke-linecap:square;stroke-miterlimit:4;stroke-dasharray:none;stroke-opacity:0.485588"
       id="rect1086"
       width="555.8999"
       height="831.80536"
       x="5.6692915"
       y="5.6693001" />
  </g>
  <g
     inkscape:groupmode="layer"
     inkscape:label="bottom"
     id="g6149"
     style="display:none"
     sodipodi:insensitive="true">
    <path
       d="m 244.76473,317.4648 0.16987,-0.39975 0.0828,-0.42674 -0.007,-0.43433 -0.0982,-0.42353 -0.18346,-0.39368 -0.26158,-0.34714 -0.32787,-0.28532 -0.38032,-0.21033 -0.41546,-0.1272 -0.43304,-0.0378 -0.43104,0.0529 -0.41102,0.14144 -0.37233,0.22393 -0.31816,0.29611 -0.2491,0.35616 -0.16983,0.40012 -0.0828,0.42637 0.007,0.43472 0.0981,0.42319 0.18355,0.39405 0.26153,0.34677 0.32786,0.28532 0.38039,0.21072 0.4154,0.12681 0.43308,0.0382 0.43102,-0.053 0.41098,-0.14184 0.37238,-0.22355 0.3181,-0.29648 z"
       style="fill:none;stroke:#ff0000;stroke-width:1.33333;stroke-linecap:round;stroke-linejoin:round;stroke-miterlimit:4;stroke-dasharray:none;stroke-opacity:1"
       id="path6105" />
    <path
       d="m 29.114122,393.56235 -0.383332,-0.2046 -0.417522,-0.12051 -0.433465,-0.0314 -0.430037,0.0628 -0.408668,0.14791 -0.368964,0.22968 -0.313116,0.30151 -0.243679,0.35967 -0.163438,0.40283 -0.07621,0.42787 0.01439,0.43419 0.104371,0.42172 0.189813,0.39098 0.266974,0.34301 0.332436,0.27979 0.383344,0.2047 0.417509,0.12041 0.43354,0.0314 0.429962,-0.0628 0.408744,-0.14791 0.368902,-0.22957 0.313154,-0.30121 0.243554,-0.36006 0.163528,-0.40273 0.07621,-0.42788 -0.0144,-0.43429 -0.104318,-0.42162 -0.189852,-0.39097 -0.266987,-0.34312 z"
       style="fill:none;stroke:#ff0000;stroke-width:1.33333;stroke-linecap:round;stroke-linejoin:round;stroke-miterlimit:4;stroke-dasharray:none;stroke-opacity:1"
       id="path6107" />
    <path
       d="m 405.917,49.509369 0.221,0.373449 0.29429,0.318762 0.35446,0.25083 0.40175,0.170773 0.42544,0.08446 0.43337,-0.0059 0.42606,-0.0965 0.39273,-0.181878 0.34878,-0.260637 0.28734,-0.326966 0.21235,-0.379457 0.128,-0.415164 0.0382,-0.432706 -0.053,-0.431402 -0.13807,-0.411441 -0.22477,-0.372988 -0.29432,-0.319142 -0.35442,-0.250452 -0.39802,-0.17123 -0.42917,-0.08401 -0.43342,0.0056 -0.42225,0.0964 -0.39649,0.182338 -0.34883,0.260262 -0.28354,0.326882 -0.21235,0.379446 -0.12805,0.414796 -0.042,0.43317 0.053,0.431403 z"
       style="fill:none;stroke:#ff0000;stroke-width:1.33333;stroke-linecap:round;stroke-linejoin:round;stroke-miterlimit:4;stroke-dasharray:none;stroke-opacity:1"
       id="path6109" />
    <path
       d="m 166.35999,77.559273 0.16983,-0.40012 0.0832,-0.426416 -0.008,-0.434661 -0.0971,-0.423363 -0.18393,-0.393999 -0.26154,-0.346781 -0.32786,-0.285311 -0.38002,-0.21076 -0.41545,-0.127196 -0.43302,-0.03781 -0.4314,0.05297 -0.41104,0.141447 -0.37233,0.223925 -0.31773,0.29643 -0.24948,0.3562 -0.16987,0.399751 -0.0828,0.42675 0.007,0.434329 0.0982,0.423524 0.18356,0.393659 0.26158,0.34715 0.32824,0.285273 0.37997,0.210383 0.41545,0.127197 0.43303,0.03781 0.43141,-0.05297 0.41102,-0.141445 0.37233,-0.223925 0.31779,-0.296057 z"
       style="fill:none;stroke:#ff0000;stroke-width:1.33333;stroke-linecap:round;stroke-linejoin:round;stroke-miterlimit:4;stroke-dasharray:none;stroke-opacity:1"
       id="path6111" />
    <path
       d="m 52.220944,446.26016 0.408705,-0.14792 0.368976,-0.22958 0.313329,-0.30133 0.243318,-0.35982 0.1638,-0.40268 0.07617,-0.42786 -0.01449,-0.43428 -0.104358,-0.42192 -0.189652,-0.3909 -0.26715,-0.3429 -0.332533,-0.27996 -0.383083,-0.20473 -0.417673,-0.12051 -0.43339,-0.0314 -0.430182,0.063 -0.408707,0.1479 -0.368974,0.2296 -0.312955,0.30126 -0.243679,0.35999 -0.163427,0.40261 -0.07619,0.42778 0.01407,0.43433 0.104348,0.42191 0.19003,0.39087 0.266774,0.34294 0.33252,0.27985 0.38346,0.20472 0.417671,0.12048 0.433388,0.0314 z"
       style="fill:none;stroke:#ff0000;stroke-width:1.33333;stroke-linecap:round;stroke-linejoin:round;stroke-miterlimit:4;stroke-dasharray:none;stroke-opacity:1"
       id="path6113" />
    <path
       d="m 485.21126,53.434515 -0.31772,0.296431 -0.24947,0.356197 -0.168,0.399524 -0.0847,0.426979 0.007,0.434704 0.0981,0.423162 0.18535,0.393447 0.25971,0.347379 0.32824,0.28527 0.38001,0.210759 0.4154,0.126826 0.4349,0.03758 0.43141,-0.05295 0.40915,-0.141255 0.37237,-0.223558 0.31775,-0.29642 0.24947,-0.356211 0.16796,-0.399892 0.0847,-0.426599 -0.007,-0.434331 -0.0981,-0.423536 -0.18544,-0.393816 -0.25967,-0.347012 -0.32823,-0.285265 -0.38002,-0.210757 -0.4154,-0.126823 -0.43116,-0.03804 -0.4314,0.05297 -0.4129,0.141676 z"
       style="fill:none;stroke:#ff0000;stroke-width:1.33333;stroke-linecap:round;stroke-linejoin:round;stroke-miterlimit:4;stroke-dasharray:none;stroke-opacity:1"
       id="path6115" />
    <path
       d="m 170.69459,102.63982 0.37437,0.22059 0.41218,0.13788 0.4318,0.0494 0.43277,-0.0418 0.41424,-0.13087 0.37811,-0.21397 0.32565,-0.28788 0.25869,-0.34934 0.17995,-0.39527 0.0941,-0.42433 0.004,-0.43457 -0.0864,-0.42578 -0.17348,-0.398717 -0.2521,-0.353644 -0.32053,-0.293838 -0.37437,-0.22058 -0.41217,-0.137886 -0.43175,-0.04904 -0.43242,0.04171 -0.41465,0.130507 -0.37808,0.214353 -0.32564,0.287881 -0.25831,0.349294 -0.18033,0.39531 -0.0941,0.42434 -0.004,0.43456 0.0864,0.42578 0.17349,0.39872 0.25209,0.35364 z"
       style="fill:none;stroke:#ff0000;stroke-width:1.33333;stroke-linecap:round;stroke-linejoin:round;stroke-miterlimit:4;stroke-dasharray:none;stroke-opacity:1"
       id="path6117" />
    <path
       d="m 46.979437,95.501299 60.050743,-7.373304 a 18.897638,18.897638 0 0 0 6.34558,-1.954329 L 244.316,18.775541 a 18.897638,18.897638 0 0 1 8.04838,-2.085658 l 147.1138,-4.6751 a 18.897638,18.897638 0 0 1 6.47443,0.926632 l 134.55694,44.00603 a 18.897638,18.897638 0 0 1 13.01513,18.521917 l -5.74543,193.653588 a 18.897638,18.897638 0 0 1 -19.44995,18.32894 l -62.24734,-1.84746 a 18.897638,18.897638 0 0 1 -3.16592,-0.36275 L 337.83885,260.08293 a 18.897638,18.897638 0 0 0 -19.05542,7.47461 l -66.83926,92.70505 a 18.897638,18.897638 0 0 1 -7.07436,5.94748 L 62.162388,454.92819 A 18.897638,18.897638 0 0 1 36.908326,446.18321 L 13.903025,398.8055 a 18.897638,18.897638 0 0 1 1.602338,-19.21117 L 51.605465,328.86335 A 18.897638,18.897638 0 0 0 54.965058,315.6037 L 30.525701,116.56111 A 18.897638,18.897638 0 0 1 46.979437,95.501299 Z"
       style="fill:none;stroke:#ff0000;stroke-width:1.33333;stroke-linecap:round;stroke-linejoin:round;stroke-miterlimit:4;stroke-dasharray:none;stroke-opacity:1"
       id="path6119" />
    <path
       d="m 187.02037,77.461465 0.43118,0.05673 0.43295,-0.03412 0.41665,-0.123498 0.382,-0.207209 0.33051,-0.282383 0.26459,-0.344744 0.18716,-0.392345 0.10121,-0.422535 0.0113,-0.434359 -0.0792,-0.427426 -0.1662,-0.401506 -0.24617,-0.35818 -0.31508,-0.299071 -0.37061,-0.227148 -0.40965,-0.145046 -0.43116,-0.05673 -0.43296,0.03412 -0.41666,0.123498 -0.38196,0.207585 -0.33056,0.282007 -0.26458,0.344733 -0.18715,0.392354 -0.1012,0.422533 -0.0113,0.434361 0.0792,0.427426 0.16621,0.401506 0.24617,0.358179 0.31545,0.299025 0.37023,0.227194 z"
       style="fill:none;stroke:#ff0000;stroke-width:1.33333;stroke-linecap:round;stroke-linejoin:round;stroke-miterlimit:4;stroke-dasharray:none;stroke-opacity:1"
       id="path6121" />
    <path
       d="m 395.23443,226.9232 0.43244,-0.0131 0.42138,-0.10367 0.39181,-0.18937 0.34425,-0.26656 0.27909,-0.33203 0.2043,-0.38304 0.12388,-0.4177 0.0306,-0.43329 -0.0609,-0.43007 -0.14543,-0.40901 -0.22816,-0.36953 -0.30127,-0.31372 -0.36122,-0.2439 -0.40093,-0.16402 -0.42832,-0.0769 -0.43618,0.0142 -0.42136,0.10387 -0.3918,0.18938 -0.34051,0.2661 -0.28289,0.33213 -0.20428,0.38304 -0.12013,0.41723 -0.0306,0.43329 0.057,0.43093 0.1492,0.40854 0.22816,0.36953 0.30121,0.31335 0.35749,0.24436 0.40472,0.16393 z"
       style="fill:none;stroke:#ff0000;stroke-width:1.33333;stroke-linecap:round;stroke-linejoin:round;stroke-miterlimit:4;stroke-dasharray:none;stroke-opacity:1"
       id="path6123" />
    <path
       d="m 255.7508,270.33336 0.31508,0.29909 0.37061,0.22713 0.40964,0.14505 0.43077,0.0568 0.43335,-0.0341 0.41666,-0.1235 0.382,-0.20722 0.33055,-0.28201 0.26456,-0.34512 0.1868,-0.39192 0.10158,-0.4226 0.0114,-0.43473 -0.0791,-0.42705 -0.16622,-0.40152 -0.24616,-0.35817 -0.31545,-0.29903 -0.37061,-0.22714 -0.40964,-0.14504 -0.4308,-0.0568 -0.43294,0.0342 -0.41702,0.12355 -0.38164,0.20718 -0.3305,0.28237 -0.26459,0.34473 -0.18716,0.39236 -0.10125,0.42216 -0.0114,0.43476 0.0792,0.42705 0.1662,0.4015 z"
       style="fill:none;stroke:#ff0000;stroke-width:1.33333;stroke-linecap:round;stroke-linejoin:round;stroke-miterlimit:4;stroke-dasharray:none;stroke-opacity:1"
       id="path6125" />
    <path
       d="m 43.981274,108.06617 -0.431403,0.053 -0.411024,0.14144 -0.37234,0.22393 -0.317732,0.29643 -0.249521,0.35583 -0.169832,0.40012 -0.08278,0.42675 0.0077,0.4343 0.09771,0.42363 0.183517,0.39367 0.261578,0.34716 0.328198,0.28491 0.380012,0.21074 0.415444,0.1272 0.433033,0.0378 0.431404,-0.053 0.411024,-0.14144 0.372339,-0.22393 0.317735,-0.29642 0.24914,-0.35579 0.169832,-0.40012 0.0832,-0.42642 -0.0077,-0.43469 -0.09714,-0.42336 -0.183936,-0.39401 -0.261583,-0.34715 -0.327807,-0.28494 -0.380013,-0.21076 -0.415455,-0.12719 z"
       style="fill:none;stroke:#ff0000;stroke-width:1.33333;stroke-linecap:round;stroke-linejoin:round;stroke-miterlimit:4;stroke-dasharray:none;stroke-opacity:1"
       id="path6127" />
    <path
       d="m 462.96615,246.74382 0.13812,0.41183 0.22475,0.373 0.29429,0.31876 0.35446,0.25081 0.40176,0.17077 0.42543,0.0845 0.43337,-0.006 0.42234,-0.0959 0.39648,-0.18232 0.3488,-0.26064 0.28358,-0.3265 0.21235,-0.37945 0.128,-0.41516 0.042,-0.43317 -0.0529,-0.43104 -0.13812,-0.41181 -0.22477,-0.373 -0.29425,-0.31877 -0.35449,-0.25082 -0.40176,-0.17077 -0.42543,-0.0845 -0.43338,0.006 -0.42238,0.0959 -0.3965,0.18232 -0.34877,0.26063 -0.28358,0.32651 -0.21236,0.37944 -0.12799,0.41517 -0.042,0.4328 z"
       style="fill:none;stroke:#ff0000;stroke-width:1.33333;stroke-linecap:round;stroke-linejoin:round;stroke-miterlimit:4;stroke-dasharray:none;stroke-opacity:1"
       id="path6129" />
    <path
       d="m 532.77062,275.3823 0.42389,0.10293 0.43193,0.0132 0.42831,-0.0781 0.40247,-0.16478 0.35836,-0.24468 0.30029,-0.31446 0.22878,-0.36968 0.14776,-0.4092 0.0576,-0.43051 -0.0341,-0.43335 -0.11986,-0.41746 -0.20688,-0.38244 -0.2806,-0.33148 -0.34488,-0.26571 -0.39248,-0.18827 -0.4201,-0.10303 -0.43567,-0.0128 -0.42838,0.0777 -0.40244,0.16477 -0.35832,0.24507 -0.30034,0.31409 -0.22877,0.36965 -0.14402,0.40877 -0.0575,0.43087 0.0303,0.43342 0.12355,0.41704 0.20313,0.38287 0.28436,0.33103 0.34112,0.26618 z"
       style="fill:none;stroke:#ff0000;stroke-width:1.33333;stroke-linecap:round;stroke-linejoin:round;stroke-miterlimit:4;stroke-dasharray:none;stroke-opacity:1"
       id="path6131" />
    <path
       d="m 69.391722,305.38813 -0.380014,-0.21076 -0.415446,-0.12719 -0.433034,-0.0378 -0.431407,0.053 -0.411022,0.14145 -0.372336,0.22392 -0.31774,0.29644 -0.249518,0.35583 -0.169828,0.40011 -0.08278,0.42676 0.0077,0.4343 0.09771,0.42363 0.183519,0.39368 0.261579,0.34714 0.328188,0.28489 0.380015,0.21077 0.415447,0.12718 0.433034,0.0378 0.431408,-0.053 0.411022,-0.14145 0.372336,-0.22393 0.31774,-0.29642 0.249143,-0.3558 0.169824,-0.40013 0.08321,-0.4264 -0.0077,-0.43469 -0.09763,-0.42326 -0.183937,-0.394 -0.261578,-0.34714 z"
       style="fill:none;stroke:#ff0000;stroke-width:1.33333;stroke-linecap:round;stroke-linejoin:round;stroke-miterlimit:4;stroke-dasharray:none;stroke-opacity:1"
       id="path6133" />
    <path
       d="m 541.07493,73.916128 -0.2806,-0.331485 -0.34487,-0.265711 -0.38873,-0.188742 -0.42384,-0.102572 -0.43569,-0.0128 -0.42459,0.07733 -0.40245,0.164775 -0.36207,0.245514 -0.30034,0.314084 -0.22503,0.369207 -0.14776,0.409217 -0.0575,0.430882 0.0303,0.433412 0.12355,0.417042 0.20689,0.382418 0.28059,0.331495 0.34114,0.26616 0.39248,0.188281 0.42389,0.102938 0.43188,0.01287 0.42837,-0.07769 0.40245,-0.164775 0.35836,-0.244687 0.30029,-0.31446 0.22879,-0.369658 0.14775,-0.409227 0.0576,-0.430507 -0.0341,-0.433337 -0.11976,-0.417476 z"
       style="fill:none;stroke:#ff0000;stroke-width:1.33333;stroke-linecap:round;stroke-linejoin:round;stroke-miterlimit:4;stroke-dasharray:none;stroke-opacity:1"
       id="path6135" />
    <path
       d="m 458.03247,269.30146 0.43116,0.0381 0.43142,-0.053 0.41289,-0.14168 0.37233,-0.22394 0.31778,-0.29604 0.24948,-0.35621 0.16796,-0.39989 0.0847,-0.42661 -0.008,-0.43466 -0.0971,-0.42335 -0.18542,-0.39383 -0.25972,-0.34738 -0.32819,-0.28491 -0.38002,-0.21074 -0.4154,-0.12683 -0.43489,-0.0376 -0.43142,0.053 -0.40915,0.14121 -0.37238,0.22356 -0.31773,0.29641 -0.24952,0.35585 -0.1717,0.40035 -0.0809,0.42652 0.007,0.43432 0.0982,0.42352 0.18167,0.39389 0.26346,0.34694 0.32825,0.28526 0.37996,0.21039 z"
       style="fill:none;stroke:#ff0000;stroke-width:1.33333;stroke-linecap:round;stroke-linejoin:round;stroke-miterlimit:4;stroke-dasharray:none;stroke-opacity:1"
       id="path6137" />
    <path
       d="m 268.74027,226.80612 -0.42171,0.10399 -0.39148,0.18895 -0.34308,0.2668 -0.28065,0.33186 -0.20503,0.38311 -0.12126,0.41739 -0.0317,0.43342 0.059,0.43068 0.14732,0.40877 0.22921,0.36902 0.3009,0.31377 0.35936,0.24415 0.40243,0.16382 0.42794,0.0769 0.43432,-0.0142 0.42169,-0.10398 0.39144,-0.18935 0.34314,-0.26642 0.28026,-0.33179 0.20542,-0.38317 0.12087,-0.41734 0.0317,-0.43342 -0.059,-0.43068 -0.14731,-0.40877 -0.22929,-0.3694 -0.30083,-0.31338 -0.35936,-0.24415 -0.40249,-0.1642 -0.42788,-0.0765 z"
       style="fill:none;stroke:#ff0000;stroke-width:1.33333;stroke-linecap:round;stroke-linejoin:round;stroke-miterlimit:4;stroke-dasharray:none;stroke-opacity:1"
       id="path6139" />
    <path
       d="m 136.75669,305.77555 0.43241,-0.0417 0.41466,-0.1305 0.37813,-0.21398 0.32564,-0.28788 0.25831,-0.3493 0.18027,-0.39569 0.0941,-0.42433 0.004,-0.43456 -0.0874,-0.42561 -0.17302,-0.39839 -0.25252,-0.35398 -0.32049,-0.29346 -0.37436,-0.22058 -0.41182,-0.13794 -0.43211,-0.0489 -0.43241,0.0417 -0.41465,0.1305 -0.37813,0.21399 -0.32527,0.28783 -0.25869,0.34934 -0.18028,0.39569 -0.0941,0.42433 -0.004,0.43418 0.0865,0.4262 0.17312,0.39839 0.25251,0.35397 0.32047,0.29346 0.37437,0.22058 0.4122,0.13787 z"
       style="fill:none;stroke:#ff0000;stroke-width:1.33333;stroke-linecap:round;stroke-linejoin:round;stroke-miterlimit:4;stroke-dasharray:none;stroke-opacity:1"
       id="path6141" />
    <path
       d="m 232.17138,356.86205 -0.19004,-0.39096 -0.26673,-0.34264 -0.33253,-0.27986 -0.38349,-0.20501 -0.41729,-0.12044 -0.43376,-0.0314 -0.42982,0.0628 -0.40869,0.14792 -0.36899,0.22956 -0.31334,0.30124 -0.24329,0.36003 -0.16384,0.40237 -0.0762,0.42787 0.0146,0.43466 0.10438,0.42164 0.19004,0.39094 0.26675,0.34275 0.33256,0.28016 0.38344,0.20459 0.4173,0.12054 0.43327,0.0304 0.43018,-0.0628 0.40871,-0.14791 0.36897,-0.22958 0.31294,-0.30158 0.24369,-0.35968 0.16343,-0.40271 0.0762,-0.42789 -0.0142,-0.43422 z"
       style="fill:none;stroke:#ff0000;stroke-width:1.33333;stroke-linecap:round;stroke-linejoin:round;stroke-miterlimit:4;stroke-dasharray:none;stroke-opacity:1"
       id="path6143" />
    <path
       d="m 388.79841,24.465426 -0.42121,0.105013 -0.39185,0.189015 -0.34048,0.26647 -0.28293,0.331754 -0.20429,0.383031 -0.11998,0.418371 -0.0347,0.430736 0.0609,0.430436 0.14962,0.411927 0.22796,0.368031 0.30123,0.313334 0.35762,0.245499 0.40467,0.163551 0.42831,0.07688 0.43226,-0.01499 0.42122,-0.105014 0.39185,-0.189014 0.3442,-0.266928 0.2792,-0.331294 0.20429,-0.383031 0.1242,-0.415082 0.0305,-0.434024 -0.0609,-0.430436 -0.14549,-0.40862 -0.22841,-0.371785 -0.30122,-0.313337 -0.36092,-0.241282 -0.40138,-0.167765 -0.42787,-0.07312 z"
       style="fill:none;stroke:#ff0000;stroke-width:1.33333;stroke-linecap:round;stroke-linejoin:round;stroke-miterlimit:4;stroke-dasharray:none;stroke-opacity:1"
       id="path6145" />
    <path
       d="m 260.79621,29.756054 -0.12074,0.418464 -0.0321,0.430429 0.059,0.430676 0.14766,0.408352 0.22917,0.371692 0.30085,0.313392 0.35988,0.245208 0.40242,0.163839 0.42756,0.07696 0.43414,-0.01522 0.42196,-0.105111 0.3911,-0.18891 0.34347,-0.266838 0.28032,-0.331433 0.20503,-0.383123 0.12157,-0.414756 0.0317,-0.434183 -0.059,-0.430667 -0.14766,-0.408361 -0.22918,-0.371691 -0.30084,-0.313392 -0.35942,-0.241459 -0.40288,-0.167579 -0.42756,-0.07698 -0.43414,0.01522 -0.42195,0.10511 -0.39112,0.188913 -0.34345,0.266836 -0.28031,0.33144 z"
       style="fill:none;stroke:#ff0000;stroke-width:1.33333;stroke-linecap:round;stroke-linejoin:round;stroke-miterlimit:4;stroke-dasharray:none;stroke-opacity:1"
       id="path6147" />
  </g>
  <g
     inkscape:groupmode="layer"
     inkscape:label="bottom copy"
     id="g1022"
     style="display:none"
     sodipodi:insensitive="true">
    <path
       d="m 320.77358,525.10037 -0.16987,0.39975 -0.0828,0.42674 0.007,0.43433 0.0982,0.42353 0.18346,0.39368 0.26158,0.34714 0.32787,0.28532 0.38032,0.21033 0.41546,0.1272 0.43304,0.0378 0.43104,-0.0529 0.41102,-0.14144 0.37233,-0.22393 0.31816,-0.29611 0.2491,-0.35616 0.16983,-0.40012 0.0828,-0.42637 -0.007,-0.43472 -0.0981,-0.4232 -0.18355,-0.39404 -0.26153,-0.34677 -0.32786,-0.28532 -0.38039,-0.21072 -0.4154,-0.12681 -0.43308,-0.0382 -0.43102,0.053 -0.41098,0.14184 -0.37238,0.22355 -0.3181,0.29648 z"
       style="fill:none;stroke:#ff0000;stroke-width:1.33333;stroke-linecap:round;stroke-linejoin:round;stroke-miterlimit:4;stroke-dasharray:none;stroke-opacity:1"
       id="path978" />
    <path
       d="m 536.42418,449.00283 0.38333,0.2046 0.41752,0.12051 0.43347,0.0314 0.43004,-0.0629 0.40867,-0.14791 0.36896,-0.22968 0.31311,-0.30151 0.24369,-0.35967 0.16343,-0.40283 0.0762,-0.42787 -0.0144,-0.43419 -0.10438,-0.42172 -0.18981,-0.39098 -0.26697,-0.34301 -0.33244,-0.27979 -0.38335,-0.2047 -0.4175,-0.12041 -0.43354,-0.0314 -0.42996,0.0628 -0.40875,0.14791 -0.3689,0.22957 -0.31315,0.30121 -0.24356,0.36006 -0.16353,0.40273 -0.0762,0.42788 0.0144,0.43429 0.10428,0.42162 0.18985,0.39097 0.26699,0.34312 z"
       style="fill:none;stroke:#ff0000;stroke-width:1.33333;stroke-linecap:round;stroke-linejoin:round;stroke-miterlimit:4;stroke-dasharray:none;stroke-opacity:1"
       id="path980" />
    <path
       d="m 159.62131,793.05581 -0.221,-0.37346 -0.29429,-0.31875 -0.35446,-0.25083 -0.40175,-0.17078 -0.42544,-0.0845 -0.43336,0.006 -0.42606,0.0965 -0.39273,0.18187 -0.34878,0.26063 -0.28734,0.32697 -0.21235,0.37946 -0.128,0.41516 -0.0382,0.43271 0.053,0.4314 0.13807,0.41145 0.22476,0.37298 0.29432,0.31914 0.35443,0.25046 0.39802,0.17123 0.42917,0.084 0.43343,-0.005 0.42226,-0.0964 0.39648,-0.18234 0.34883,-0.26026 0.28354,-0.32689 0.21236,-0.37944 0.12804,-0.4148 0.042,-0.43317 -0.053,-0.4314 z"
       style="fill:none;stroke:#ff0000;stroke-width:1.33333;stroke-linecap:round;stroke-linejoin:round;stroke-miterlimit:4;stroke-dasharray:none;stroke-opacity:1"
       id="path982" />
    <path
       d="m 399.17832,765.0059 -0.16983,0.40012 -0.0832,0.42642 0.008,0.43465 0.0971,0.42337 0.18393,0.394 0.26154,0.34679 0.32786,0.2853 0.38002,0.21076 0.41545,0.1272 0.43302,0.0378 0.4314,-0.053 0.41104,-0.14146 0.37233,-0.22392 0.31773,-0.29642 0.24948,-0.35621 0.16987,-0.39975 0.0828,-0.42675 -0.007,-0.43433 -0.0982,-0.42352 -0.18356,-0.39367 -0.26158,-0.34714 -0.32824,-0.28528 -0.37997,-0.21037 -0.41545,-0.1272 -0.43303,-0.0378 -0.43141,0.053 -0.41102,0.14145 -0.37233,0.22393 -0.31779,0.29605 z"
       style="fill:none;stroke:#ff0000;stroke-width:1.33333;stroke-linecap:round;stroke-linejoin:round;stroke-miterlimit:4;stroke-dasharray:none;stroke-opacity:1"
       id="path984" />
    <path
       d="m 513.31736,396.30502 -0.4087,0.14792 -0.36899,0.22958 -0.31332,0.30133 -0.24332,0.35982 -0.1638,0.40268 -0.0762,0.42786 0.0145,0.43429 0.10439,0.42191 0.18965,0.3909 0.26715,0.3429 0.33253,0.27996 0.38309,0.20473 0.41767,0.12051 0.43339,0.0314 0.43019,-0.063 0.4087,-0.1479 0.36897,-0.2296 0.31296,-0.30126 0.24368,-0.35999 0.16343,-0.40261 0.0762,-0.42778 -0.0142,-0.43432 -0.10439,-0.42192 -0.19003,-0.39086 -0.26678,-0.34294 -0.33252,-0.27986 -0.38346,-0.20471 -0.41767,-0.12049 -0.43339,-0.0314 z"
       style="fill:none;stroke:#ff0000;stroke-width:1.33333;stroke-linecap:round;stroke-linejoin:round;stroke-miterlimit:4;stroke-dasharray:none;stroke-opacity:1"
       id="path986" />
    <path
       d="m 80.327046,789.13066 0.317728,-0.29643 0.249471,-0.3562 0.167999,-0.39952 0.08465,-0.42698 -0.0072,-0.4347 -0.09813,-0.42316 -0.185354,-0.39345 -0.259701,-0.34738 -0.328246,-0.28527 -0.380007,-0.21076 -0.415399,-0.12683 -0.434905,-0.0375 -0.431404,0.053 -0.409149,0.14125 -0.372375,0.22356 -0.317749,0.29642 -0.24947,0.35621 -0.167957,0.39989 -0.08466,0.4266 0.0072,0.43433 0.09814,0.42353 0.185437,0.39382 0.259669,0.34701 0.328235,0.28527 0.380017,0.21076 0.415399,0.12682 0.431162,0.0381 0.431403,-0.053 0.412897,-0.14167 z"
       style="fill:none;stroke:#ff0000;stroke-width:1.33333;stroke-linecap:round;stroke-linejoin:round;stroke-miterlimit:4;stroke-dasharray:none;stroke-opacity:1"
       id="path988" />
    <path
       d="m 394.84372,739.92535 -0.37437,-0.22059 -0.41218,-0.13788 -0.4318,-0.0495 -0.43278,0.0417 -0.41423,0.13088 -0.37811,0.21396 -0.32566,0.28789 -0.25868,0.34933 -0.17996,0.39527 -0.0941,0.42434 -0.004,0.43456 0.0864,0.42579 0.17348,0.39871 0.2521,0.35364 0.32053,0.29385 0.37436,0.22057 0.41218,0.13789 0.43175,0.0491 0.43242,-0.0417 0.41465,-0.13051 0.37808,-0.21436 0.32564,-0.28788 0.25831,-0.34929 0.18033,-0.39531 0.0941,-0.42434 0.004,-0.43456 -0.0864,-0.42578 -0.17349,-0.39872 -0.25209,-0.35365 z"
       style="fill:none;stroke:#ff0000;stroke-width:1.33333;stroke-linecap:round;stroke-linejoin:round;stroke-miterlimit:4;stroke-dasharray:none;stroke-opacity:1"
       id="path990" />
    <path
       d="m 518.55886,747.06388 -60.05073,7.3733 a 18.897638,18.897638 0 0 0 -6.34558,1.95433 l -130.94024,67.39813 a 18.897638,18.897638 0 0 1 -8.04838,2.08565 l -147.1138,4.6751 a 18.897638,18.897638 0 0 1 -6.47443,-0.92663 L 25.02876,785.61773 A 18.897638,18.897638 0 0 1 12.013626,767.09582 l 5.745437,-193.6536 a 18.897638,18.897638 0 0 1 19.449948,-18.32894 l 62.247343,1.84746 a 18.897638,18.897638 0 0 1 3.165916,0.36275 l 125.07719,25.15875 a 18.897638,18.897638 0 0 0 19.05542,-7.47461 l 66.83926,-92.70505 a 18.897638,18.897638 0 0 1 7.07437,-5.94747 l 182.70741,-88.71812 a 18.897638,18.897638 0 0 1 25.25406,8.74498 l 23.0053,47.37771 a 18.897638,18.897638 0 0 1 -1.60234,19.21117 l -36.1001,50.73097 a 18.897638,18.897638 0 0 0 -3.35959,13.25965 l 24.43935,199.04259 a 18.897638,18.897638 0 0 1 -16.45374,21.05982 z"
       style="fill:none;stroke:#ff0000;stroke-width:1.33333;stroke-linecap:round;stroke-linejoin:round;stroke-miterlimit:4;stroke-dasharray:none;stroke-opacity:1"
       id="path992" />
    <path
       d="m 378.51794,765.10371 -0.43117,-0.0567 -0.43296,0.0341 -0.41665,0.1235 -0.382,0.20721 -0.33051,0.28238 -0.26459,0.34475 -0.18716,0.39235 -0.10121,0.42253 -0.0113,0.43436 0.0792,0.42743 0.16621,0.4015 0.24617,0.35818 0.31508,0.29907 0.3706,0.22715 0.40965,0.14505 0.43116,0.0567 0.43296,-0.0341 0.41666,-0.12351 0.38196,-0.20759 0.33056,-0.282 0.26458,-0.34473 0.18715,-0.39236 0.1012,-0.42253 0.0113,-0.43436 -0.0792,-0.42743 -0.16621,-0.4015 -0.24617,-0.35818 -0.31545,-0.29903 -0.37023,-0.22719 z"
       style="fill:none;stroke:#ff0000;stroke-width:1.33333;stroke-linecap:round;stroke-linejoin:round;stroke-miterlimit:4;stroke-dasharray:none;stroke-opacity:1"
       id="path994" />
    <path
       d="m 170.30388,615.64197 -0.43244,0.0131 -0.42138,0.10367 -0.39181,0.18937 -0.34425,0.26656 -0.27909,0.33203 -0.2043,0.38304 -0.12388,0.4177 -0.0306,0.43329 0.0609,0.43007 0.14543,0.40901 0.22816,0.36953 0.30127,0.31372 0.36122,0.2439 0.40093,0.16402 0.42831,0.0769 0.43619,-0.0142 0.42136,-0.10387 0.39179,-0.18938 0.34052,-0.2661 0.28289,-0.33213 0.20428,-0.38304 0.12013,-0.41723 0.0306,-0.43329 -0.057,-0.43093 -0.1492,-0.40854 -0.22816,-0.36953 -0.30121,-0.31335 -0.35749,-0.24436 -0.40472,-0.16393 z"
       style="fill:none;stroke:#ff0000;stroke-width:1.33333;stroke-linecap:round;stroke-linejoin:round;stroke-miterlimit:4;stroke-dasharray:none;stroke-opacity:1"
       id="path996" />
    <path
       d="m 309.78751,572.23181 -0.31508,-0.29909 -0.37061,-0.22713 -0.40964,-0.14505 -0.43077,-0.0568 -0.43335,0.0341 -0.41666,0.1235 -0.382,0.20722 -0.33055,0.28201 -0.26456,0.34512 -0.1868,0.39192 -0.10158,0.4226 -0.0114,0.43473 0.0791,0.42705 0.16621,0.40152 0.24617,0.35817 0.31545,0.29903 0.37061,0.22714 0.40964,0.14504 0.4308,0.0568 0.43294,-0.0342 0.41702,-0.12355 0.38164,-0.20718 0.3305,-0.28237 0.26459,-0.34473 0.18716,-0.39236 0.10125,-0.42216 0.0114,-0.43476 -0.0792,-0.42705 -0.1662,-0.4015 z"
       style="fill:none;stroke:#ff0000;stroke-width:1.33333;stroke-linecap:round;stroke-linejoin:round;stroke-miterlimit:4;stroke-dasharray:none;stroke-opacity:1"
       id="path998" />
    <path
       d="m 521.55703,734.499 0.43141,-0.053 0.41102,-0.14144 0.37233,-0.22393 0.31774,-0.29643 0.24951,-0.35583 0.16984,-0.40012 0.0828,-0.42675 -0.008,-0.43428 -0.0977,-0.42364 -0.18353,-0.39366 -0.26157,-0.34715 -0.3282,-0.28491 -0.38001,-0.21075 -0.41545,-0.1272 -0.43303,-0.0378 -0.43141,0.053 -0.41102,0.14144 -0.37233,0.22393 -0.31774,0.29642 -0.24914,0.35579 -0.16984,0.40012 -0.0832,0.42642 0.007,0.43471 0.0971,0.42337 0.18395,0.394 0.26158,0.34714 0.3278,0.28494 0.38001,0.21077 0.41546,0.1272 z"
       style="fill:none;stroke:#ff0000;stroke-width:1.33333;stroke-linecap:round;stroke-linejoin:round;stroke-miterlimit:4;stroke-dasharray:none;stroke-opacity:1"
       id="path1000" />
    <path
       d="m 102.57216,595.82135 -0.13812,-0.41183 -0.22475,-0.373 -0.29429,-0.31876 -0.35446,-0.25081 -0.40176,-0.17077 -0.42543,-0.0845 -0.43337,0.006 -0.422336,0.0959 -0.39648,0.18232 -0.3488,0.26064 -0.28358,0.3265 -0.21235,0.37945 -0.128,0.41516 -0.042,0.43317 0.0529,0.43104 0.13812,0.41181 0.22477,0.373 0.29425,0.31877 0.35449,0.25082 0.40176,0.17077 0.425426,0.0845 0.43338,-0.006 0.42238,-0.0959 0.3965,-0.18232 0.34877,-0.26063 0.28358,-0.32651 0.21236,-0.37944 0.12799,-0.41517 0.042,-0.4328 z"
       style="fill:none;stroke:#ff0000;stroke-width:1.33333;stroke-linecap:round;stroke-linejoin:round;stroke-miterlimit:4;stroke-dasharray:none;stroke-opacity:1"
       id="path1002" />
    <path
       d="m 32.767688,567.18287 -0.42389,-0.10293 -0.431925,-0.0132 -0.428316,0.0781 -0.402464,0.16478 -0.358359,0.24468 -0.300289,0.31446 -0.228788,0.36968 -0.147759,0.4092 -0.05761,0.43051 0.03414,0.43335 0.119862,0.41746 0.206873,0.38244 0.2806,0.33148 0.344883,0.26571 0.39248,0.18827 0.420101,0.10303 0.435673,0.0128 0.428379,-0.0777 0.402435,-0.16477 0.358325,-0.24507 0.300341,-0.31409 0.228769,-0.36965 0.144022,-0.40877 0.0575,-0.43087 -0.03035,-0.43342 -0.123549,-0.41704 -0.203126,-0.38287 -0.284366,-0.33103 -0.341117,-0.26618 z"
       style="fill:none;stroke:#ff0000;stroke-width:1.33333;stroke-linecap:round;stroke-linejoin:round;stroke-miterlimit:4;stroke-dasharray:none;stroke-opacity:1"
       id="path1004" />
    <path
       d="m 496.14658,537.17704 0.38001,0.21076 0.41546,0.12719 0.43303,0.0378 0.4314,-0.053 0.41103,-0.14145 0.37233,-0.22392 0.31774,-0.29644 0.24952,-0.35583 0.16983,-0.40011 0.0828,-0.42676 -0.007,-0.43432 -0.0977,-0.42363 -0.18352,-0.39367 -0.26158,-0.34715 -0.32819,-0.28489 -0.38001,-0.21076 -0.41545,-0.12719 -0.43304,-0.0378 -0.4314,0.053 -0.41103,0.14145 -0.37233,0.22392 -0.31774,0.29643 -0.24914,0.35579 -0.16983,0.40013 -0.0832,0.4264 0.008,0.43467 0.0976,0.42326 0.18395,0.394 0.26157,0.34715 z"
       style="fill:none;stroke:#ff0000;stroke-width:1.33333;stroke-linecap:round;stroke-linejoin:round;stroke-miterlimit:4;stroke-dasharray:none;stroke-opacity:1"
       id="path1006" />
    <path
       d="m 24.463377,768.64904 0.2806,0.33149 0.344873,0.26571 0.388734,0.18875 0.423838,0.10257 0.435692,0.0128 0.424589,-0.0774 0.402444,-0.16478 0.362073,-0.24552 0.300341,-0.31408 0.225032,-0.36921 0.147759,-0.40921 0.0575,-0.43088 -0.03034,-0.43342 -0.12355,-0.41704 -0.206882,-0.38241 -0.28059,-0.3315 -0.341147,-0.26616 -0.39248,-0.18829 -0.423891,-0.10293 -0.431871,-0.0128 -0.428369,0.0777 -0.402455,0.16477 -0.358359,0.24469 -0.300288,0.31446 -0.228788,0.36966 -0.147759,0.40923 -0.05761,0.43051 0.03414,0.43333 0.119762,0.41748 z"
       style="fill:none;stroke:#ff0000;stroke-width:1.33333;stroke-linecap:round;stroke-linejoin:round;stroke-miterlimit:4;stroke-dasharray:none;stroke-opacity:1"
       id="path1008" />
    <path
       d="m 107.50584,573.26371 -0.43116,-0.0381 -0.43142,0.053 -0.41289,0.14168 -0.37233,0.22394 -0.31778,0.29604 -0.24948,0.35621 -0.16796,0.39989 -0.0847,0.42661 0.008,0.43466 0.0971,0.42335 0.18542,0.39383 0.25972,0.34738 0.32819,0.28491 0.38002,0.21074 0.4154,0.12683 0.43489,0.0376 0.43142,-0.053 0.40915,-0.14121 0.37238,-0.22356 0.31773,-0.29641 0.24952,-0.35585 0.1717,-0.40035 0.0809,-0.42652 -0.007,-0.43432 -0.0982,-0.42352 -0.18167,-0.39389 -0.26346,-0.34694 -0.32825,-0.28526 -0.37996,-0.21039 z"
       style="fill:none;stroke:#ff0000;stroke-width:1.33333;stroke-linecap:round;stroke-linejoin:round;stroke-miterlimit:4;stroke-dasharray:none;stroke-opacity:1"
       id="path1010" />
    <path
       d="m 296.79804,615.75905 0.42171,-0.10399 0.39148,-0.18895 0.34308,-0.2668 0.28065,-0.33186 0.20503,-0.38311 0.12126,-0.41739 0.0317,-0.43342 -0.059,-0.43068 -0.14732,-0.40877 -0.22922,-0.36902 -0.30089,-0.31377 -0.35936,-0.24415 -0.40243,-0.16382 -0.42794,-0.0769 -0.43432,0.0142 -0.42169,0.10398 -0.39144,0.18935 -0.34314,0.26642 -0.28026,0.33179 -0.20542,0.38317 -0.12087,0.41734 -0.0317,0.43342 0.059,0.43068 0.14731,0.40877 0.22929,0.3694 0.30083,0.31338 0.35936,0.24415 0.40249,0.1642 0.42788,0.0765 z"
       style="fill:none;stroke:#ff0000;stroke-width:1.33333;stroke-linecap:round;stroke-linejoin:round;stroke-miterlimit:4;stroke-dasharray:none;stroke-opacity:1"
       id="path1012" />
    <path
       d="m 428.78162,536.78962 -0.43241,0.0417 -0.41466,0.13051 -0.37813,0.21398 -0.32564,0.28788 -0.25831,0.3493 -0.18027,0.39569 -0.0941,0.42433 -0.004,0.43456 0.0874,0.42561 0.17302,0.39839 0.25252,0.35398 0.32049,0.29346 0.37436,0.22058 0.41182,0.13794 0.43211,0.0489 0.43241,-0.0417 0.41465,-0.1305 0.37813,-0.21399 0.32527,-0.28783 0.25869,-0.34934 0.18028,-0.39569 0.0941,-0.42433 0.004,-0.43418 -0.0865,-0.4262 -0.17312,-0.39839 -0.25251,-0.35397 -0.32047,-0.29346 -0.37437,-0.22058 -0.4122,-0.13787 z"
       style="fill:none;stroke:#ff0000;stroke-width:1.33333;stroke-linecap:round;stroke-linejoin:round;stroke-miterlimit:4;stroke-dasharray:none;stroke-opacity:1"
       id="path1014" />
    <path
       d="m 333.36693,485.70312 0.19004,0.39096 0.26673,0.34264 0.33253,0.27986 0.38349,0.20501 0.41729,0.12044 0.43376,0.0314 0.42982,-0.0628 0.40869,-0.14792 0.36899,-0.22956 0.31334,-0.30124 0.24329,-0.36003 0.16384,-0.40237 0.0762,-0.42787 -0.0146,-0.43466 -0.10438,-0.42164 -0.19004,-0.39094 -0.26675,-0.34275 -0.33256,-0.28016 -0.38344,-0.20459 -0.4173,-0.12054 -0.43327,-0.0304 -0.43018,0.0629 -0.40871,0.14791 -0.36897,0.22958 -0.31294,0.30158 -0.24369,0.35968 -0.16343,0.40271 -0.0762,0.42789 0.0142,0.43422 z"
       style="fill:none;stroke:#ff0000;stroke-width:1.33333;stroke-linecap:round;stroke-linejoin:round;stroke-miterlimit:4;stroke-dasharray:none;stroke-opacity:1"
       id="path1016" />
    <path
       d="m 176.7399,818.09975 0.4212,-0.10506 0.39186,-0.18902 0.34047,-0.26646 0.28294,-0.33176 0.20428,-0.38303 0.11999,-0.41838 0.0347,-0.43073 -0.0609,-0.43044 -0.14962,-0.41193 -0.22796,-0.36803 -0.30123,-0.31333 -0.35762,-0.2455 -0.40467,-0.16355 -0.42832,-0.0769 -0.43226,0.015 -0.42121,0.10506 -0.39185,0.18901 -0.3442,0.26693 -0.2792,0.33129 -0.20429,0.38304 -0.1242,0.41507 -0.0305,0.43403 0.0609,0.43044 0.14549,0.40862 0.22841,0.37178 0.30122,0.31333 0.36092,0.24128 0.40138,0.16778 0.42786,0.0731 z"
       style="fill:none;stroke:#ff0000;stroke-width:1.33333;stroke-linecap:round;stroke-linejoin:round;stroke-miterlimit:4;stroke-dasharray:none;stroke-opacity:1"
       id="path1018" />
    <path
       d="m 304.7421,812.80912 0.12074,-0.41846 0.0321,-0.43043 -0.059,-0.43068 -0.14766,-0.40835 -0.22917,-0.37169 -0.30085,-0.31339 -0.35988,-0.24521 -0.40242,-0.16384 -0.42756,-0.0769 -0.43414,0.0152 -0.42196,0.10509 -0.3911,0.1889 -0.34347,0.26684 -0.28032,0.33144 -0.20503,0.38312 -0.12157,0.41476 -0.0317,0.43418 0.059,0.43067 0.14766,0.40836 0.22918,0.37169 0.30084,0.31339 0.35942,0.24145 0.40288,0.16759 0.42756,0.077 0.43414,-0.0152 0.42195,-0.10509 0.39112,-0.18891 0.34346,-0.26683 0.2803,-0.33145 z"
       style="fill:none;stroke:#ff0000;stroke-width:1.33333;stroke-linecap:round;stroke-linejoin:round;stroke-miterlimit:4;stroke-dasharray:none;stroke-opacity:1"
       id="path1020" />
  </g>
  <g
     inkscape:groupmode="layer"
     id="layer3"
     inkscape:label="bottom more holes"
     sodipodi:insensitive="true">
    <path
       d="m 162.47123,76.370409 0.007,0.434335 0.0977,0.423616 0.18352,0.393675 0.26157,0.347143 0.32825,0.285278 0.37995,0.210378 0.41545,0.127199 0.43304,0.03781 0.43141,-0.05299 0.41102,-0.141441 0.37233,-0.22393 0.31779,-0.296051 0.24909,-0.356171 0.16984,-0.400111 0.0832,-0.426422 -0.008,-0.434659 -0.0976,-0.423261 -0.18393,-0.394001 -0.26154,-0.346783 -0.32786,-0.285312 -0.38001,-0.210756 -0.41546,-0.127199 -0.43302,-0.03781 -0.4314,0.05299 -0.41104,0.141441 -0.37233,0.22393 -0.31773,0.29643 -0.24948,0.356193 -0.16987,0.399752 z"
       style="fill:none;stroke:#ff0000;stroke-width:1.33333;stroke-linecap:round;stroke-linejoin:round;stroke-miterlimit:4;stroke-dasharray:none;stroke-opacity:1"
       id="path840-0" />
    <path
       d="m 485.23679,71.412723 -0.43567,-0.0128 -0.42838,0.0777 -0.4024,0.165154 -0.35836,0.244696 -0.30034,0.314093 -0.22873,0.370028 -0.14402,0.408755 -0.0613,0.430972 0.0341,0.433332 0.1235,0.416643 0.20318,0.383273 0.2806,0.331479 0.34483,0.265347 0.39254,0.188646 0.42383,0.102561 0.43193,0.01323 0.42836,-0.0778 0.40241,-0.165164 0.35835,-0.244686 0.30034,-0.314093 0.22873,-0.370028 0.14777,-0.409226 0.0576,-0.430503 -0.0341,-0.433332 -0.11973,-0.417116 -0.20689,-0.382423 -0.28065,-0.331867 -0.34482,-0.265338 -0.39254,-0.188655 z"
       style="fill:none;stroke:#ff0000;stroke-width:1.33333;stroke-linecap:round;stroke-linejoin:round;stroke-miterlimit:4;stroke-dasharray:none;stroke-opacity:1"
       id="path842-5" />
    <path
       d="m 488.52557,54.841662 -0.0977,-0.423627 -0.18544,-0.393818 -0.25966,-0.34701 -0.32823,-0.285268 -0.38002,-0.210756 -0.4154,-0.12682 -0.43116,-0.03808 -0.4314,0.05299 -0.4129,0.141676 -0.37239,0.223552 -0.31773,0.29643 -0.24947,0.356193 -0.168,0.399527 -0.0847,0.426974 0.007,0.434704 0.0977,0.423248 0.1854,0.393439 0.2597,0.347388 0.32823,0.285269 0.38001,0.210746 0.41541,0.12683 0.4349,0.03755 0.43141,-0.05299 0.40915,-0.141216 0.37237,-0.223561 0.31775,-0.29642 0.24947,-0.356214 0.16796,-0.399885 0.0847,-0.426604 z"
       style="fill:none;stroke:#ff0000;stroke-width:1.33333;stroke-linecap:round;stroke-linejoin:round;stroke-miterlimit:4;stroke-dasharray:none;stroke-opacity:1"
       id="path844-2" />
    <path
       d="m 541.37822,75.579874 0.0576,-0.430513 -0.0341,-0.433332 -0.11976,-0.417485 -0.2069,-0.382432 -0.2806,-0.331479 -0.34487,-0.265726 -0.38873,-0.188739 -0.42385,-0.10256 -0.43567,-0.0128 -0.42462,0.07727 -0.40245,0.164785 -0.36206,0.245516 -0.30034,0.314093 -0.22504,0.369208 -0.14775,0.409206 -0.0575,0.430889 0.0303,0.433415 0.12354,0.417033 0.20689,0.382423 0.2806,0.331489 0.34113,0.266167 0.39248,0.188287 0.4239,0.102929 0.43187,0.01284 0.42837,-0.0777 0.40245,-0.164795 0.35836,-0.244676 0.30029,-0.314472 0.22879,-0.369659 z"
       style="fill:none;stroke:#ff0000;stroke-width:1.33333;stroke-linecap:round;stroke-linejoin:round;stroke-miterlimit:4;stroke-dasharray:none;stroke-opacity:1"
       id="path846" />
    <path
       d="m 230.5813,355.52315 -0.43377,-0.0314 -0.4298,0.0628 -0.40871,0.14791 -0.36898,0.22958 -0.31333,0.30123 -0.24329,0.36003 -0.16384,0.40237 -0.0762,0.42787 0.0146,0.43467 0.10438,0.42162 0.19005,0.39096 0.26674,0.34274 0.33256,0.28016 0.38345,0.2046 0.4173,0.12054 0.43326,0.0304 0.43019,-0.0628 0.40871,-0.14791 0.36897,-0.22958 0.31292,-0.30158 0.24371,-0.35969 0.16342,-0.40272 0.0762,-0.42787 -0.0142,-0.43421 -0.1044,-0.42212 -0.19004,-0.39096 -0.26673,-0.34265 -0.33253,-0.27985 -0.38349,-0.20499 z"
       style="fill:none;stroke:#ff0000;stroke-width:1.33333;stroke-linecap:round;stroke-linejoin:round;stroke-miterlimit:4;stroke-dasharray:none;stroke-opacity:1"
       id="path848" />
    <path
       d="m 387.64488,25.025934 -0.28294,0.331757 -0.20428,0.383022 -0.11999,0.418373 -0.0347,0.430743 0.061,0.430425 0.14962,0.411929 0.22796,0.368038 0.30122,0.313329 0.35763,0.245499 0.40467,0.163556 0.42832,0.0769 0.43225,-0.01498 0.42121,-0.105064 0.39186,-0.189011 0.3442,-0.266925 0.27919,-0.331296 0.20429,-0.383033 0.1242,-0.415077 0.0305,-0.434028 -0.0609,-0.430438 -0.14538,-0.408635 -0.22843,-0.371785 -0.30121,-0.313338 -0.36092,-0.241281 -0.40138,-0.167765 -0.42786,-0.07311 -0.43649,0.01124 -0.4212,0.104964 -0.39187,0.18901 z"
       style="fill:none;stroke:#ff0000;stroke-width:1.33333;stroke-linecap:round;stroke-linejoin:round;stroke-miterlimit:4;stroke-dasharray:none;stroke-opacity:1"
       id="path850" />
    <path
       d="m 169.86199,101.16825 0.0865,0.42576 0.17347,0.39872 0.2521,0.35364 0.32048,0.29347 0.37437,0.22059 0.41218,0.13787 0.4318,0.0495 0.43279,-0.0417 0.41422,-0.13086 0.37812,-0.21398 0.32565,-0.28788 0.25869,-0.34934 0.17995,-0.39526 0.0941,-0.42433 0.004,-0.43458 -0.0865,-0.42576 -0.17348,-0.398722 -0.25209,-0.353638 -0.32053,-0.293842 -0.37436,-0.220579 -0.4122,-0.137889 -0.43174,-0.04906 -0.43241,0.04172 -0.41466,0.130511 -0.37807,0.214345 -0.32565,0.28789 -0.25832,0.349288 -0.18031,0.395316 -0.0941,0.42434 z"
       style="fill:none;stroke:#ff0000;stroke-width:1.33333;stroke-linecap:round;stroke-linejoin:round;stroke-miterlimit:4;stroke-dasharray:none;stroke-opacity:1"
       id="path852" />
    <path
       d="m 533.62644,275.49847 0.42831,-0.0781 0.40246,-0.1648 0.35836,-0.24469 0.30028,-0.31446 0.22879,-0.36966 0.14776,-0.40921 0.0576,-0.43052 -0.0341,-0.43333 -0.11976,-0.41749 -0.20689,-0.38243 -0.2806,-0.33148 -0.34488,-0.26571 -0.39248,-0.18829 -0.42009,-0.10301 -0.43568,-0.0128 -0.42837,0.0777 -0.40245,0.16478 -0.35831,0.24505 -0.30034,0.3141 -0.22877,0.36966 -0.14403,0.40875 -0.0575,0.43089 0.0303,0.43342 0.12355,0.41703 0.20314,0.38288 0.28434,0.33103 0.34113,0.26618 0.39248,0.18828 0.42389,0.10292 z"
       style="fill:none;stroke:#ff0000;stroke-width:1.33333;stroke-linecap:round;stroke-linejoin:round;stroke-miterlimit:4;stroke-dasharray:none;stroke-opacity:1"
       id="path854" />
    <path
       d="m 98.849288,101.59845 -0.41583,-0.12716 -0.43265,-0.0378 -0.43141,0.053 -0.41102,0.14144 -0.37233,0.22393 -0.31775,0.29643 -0.24952,0.35583 -0.16982,0.40012 -0.0828,0.42675 0.007,0.43433 0.0977,0.42362 0.18352,0.39368 0.26159,0.34714 0.32818,0.28491 0.38002,0.21074 0.41545,0.1272 0.43303,0.0378 0.4314,-0.053 0.41065,-0.1414 0.37271,-0.22398 0.31774,-0.29642 0.24952,-0.35584 0.169462,-0.40007 0.0832,-0.42642 -0.007,-0.43471 -0.0977,-0.42325 -0.183942,-0.394 -0.26121,-0.34719 -0.32818,-0.2849 z"
       style="fill:none;stroke:#ff0000;stroke-width:1.33333;stroke-linecap:round;stroke-linejoin:round;stroke-miterlimit:4;stroke-dasharray:none;stroke-opacity:1"
       id="path856" />
    <path
       d="m 188.4008,73.56364 -0.40963,-0.145052 -0.43117,-0.05669 -0.43296,0.03413 -0.41666,0.123496 -0.38195,0.207587 -0.33055,0.282008 -0.26459,0.344734 -0.18716,0.39235 -0.1012,0.422539 -0.0113,0.434361 0.0792,0.427428 0.16619,0.401504 0.24618,0.358177 0.31546,0.299023 0.37022,0.227197 0.40964,0.145052 0.43117,0.05669 0.43296,-0.03413 0.41665,-0.123497 0.382,-0.207207 0.33052,-0.282387 0.26458,-0.344744 0.18715,-0.39234 0.10121,-0.42254 0.0113,-0.434361 -0.0792,-0.427427 -0.16621,-0.401504 -0.24618,-0.358177 -0.31506,-0.299076 z"
       style="fill:none;stroke:#ff0000;stroke-width:1.33333;stroke-linecap:round;stroke-linejoin:round;stroke-miterlimit:4;stroke-dasharray:none;stroke-opacity:1"
       id="path858" />
    <path
       d="m 119.28899,107.58993 0.25869,-0.34934 0.18027,-0.39568 0.0937,-0.4243 0.004,-0.43456 -0.0865,-0.42577 -0.17306,-0.39838 -0.25251,-0.35397 -0.32048,-0.29346 -0.37437,-0.2206 -0.41219,-0.13788 -0.43179,-0.0495 -0.43242,0.0417 -0.41459,0.1309 -0.37813,0.21398 -0.32565,0.28787 -0.25831,0.3493 -0.18027,0.39569 -0.0942,0.42396 -0.004,0.43457 0.0866,0.42612 0.17343,0.39834 0.25252,0.35397 0.32049,0.29347 0.37435,0.22059 0.41183,0.13793 0.43174,0.0491 0.43278,-0.0417 0.41428,-0.13045 0.3785,-0.21402 z"
       style="fill:none;stroke:#ff0000;stroke-width:1.33333;stroke-linecap:round;stroke-linejoin:round;stroke-miterlimit:4;stroke-dasharray:none;stroke-opacity:1"
       id="path860" />
    <path
       d="m 205.03371,273.94728 0.10121,-0.42253 0.0115,-0.43438 -0.0792,-0.42704 -0.1662,-0.40152 -0.24618,-0.35817 -0.3155,-0.29941 -0.37018,-0.22682 -0.41002,-0.14499 -0.4308,-0.0568 -0.43295,0.0341 -0.41671,0.1231 -0.38196,0.20759 -0.33056,0.28201 -0.26453,0.34511 -0.1872,0.39197 -0.10158,0.42259 -0.0111,0.43432 0.0792,0.42742 0.16619,0.40151 0.24618,0.35817 0.31508,0.29908 0.3706,0.22715 0.40965,0.14505 0.43116,0.0567 0.43296,-0.0341 0.41665,-0.12349 0.382,-0.20722 0.33051,-0.28239 0.26459,-0.34474 z"
       style="fill:none;stroke:#ff0000;stroke-width:1.33333;stroke-linecap:round;stroke-linejoin:round;stroke-miterlimit:4;stroke-dasharray:none;stroke-opacity:1"
       id="path862" />
    <path
       d="m 457.95978,265.23592 -0.40915,0.14121 -0.37239,0.22357 -0.31773,0.29641 -0.24952,0.35585 -0.1717,0.40035 -0.0809,0.42652 0.007,0.43432 0.0978,0.42362 0.18165,0.39391 0.26344,0.34692 0.32825,0.28527 0.37995,0.21038 0.41546,0.1272 0.43116,0.0381 0.43141,-0.053 0.41289,-0.14168 0.37233,-0.22393 0.31779,-0.29605 0.24947,-0.3562 0.16796,-0.3999 0.0847,-0.42661 -0.008,-0.43465 -0.0976,-0.42326 -0.18544,-0.39381 -0.2597,-0.34739 -0.3282,-0.2849 -0.38001,-0.21075 -0.4154,-0.12683 -0.43491,-0.0376 z"
       style="fill:none;stroke:#ff0000;stroke-width:1.33333;stroke-linecap:round;stroke-linejoin:round;stroke-miterlimit:4;stroke-dasharray:none;stroke-opacity:1"
       id="path864" />
    <path
       d="m 405.76413,48.233449 -0.042,0.43317 0.053,0.431393 0.1419,0.411359 0.22101,0.373444 0.29427,0.318765 0.35448,0.250831 0.40175,0.170773 0.42543,0.0845 0.43336,-0.0061 0.42607,-0.09643 0.39274,-0.181877 0.34878,-0.260641 0.28734,-0.326967 0.21234,-0.379452 0.128,-0.41516 0.0382,-0.432707 -0.053,-0.431404 -0.13808,-0.411442 -0.22476,-0.372983 -0.29432,-0.319143 -0.35442,-0.250453 -0.39801,-0.171234 -0.42919,-0.08397 -0.4334,0.0061 -0.42225,0.0964 -0.39649,0.182338 -0.34883,0.260263 -0.28353,0.326884 -0.21236,0.379443 z"
       style="fill:none;stroke:#ff0000;stroke-width:1.33333;stroke-linecap:round;stroke-linejoin:round;stroke-miterlimit:4;stroke-dasharray:none;stroke-opacity:1"
       id="path866" />
    <path
       d="m 243.34397,69.820011 -0.31513,-0.299455 -0.37055,-0.226766 -0.40965,-0.145052 -0.43116,-0.05669 -0.43301,0.03373 -0.41664,0.123496 -0.38197,0.207587 -0.33055,0.282008 -0.26459,0.344744 -0.18716,0.392351 -0.10119,0.422529 -0.0114,0.434374 0.0792,0.427427 0.1662,0.401505 0.24618,0.358176 0.31546,0.299023 0.37023,0.227198 0.40964,0.145052 0.43116,0.05669 0.43296,-0.03413 0.41665,-0.123496 0.38201,-0.207218 0.33051,-0.282387 0.26458,-0.344734 0.18716,-0.39235 0.1012,-0.422539 0.0115,-0.434375 -0.0792,-0.427417 -0.16616,-0.401136 z"
       style="fill:none;stroke:#ff0000;stroke-width:1.33333;stroke-linecap:round;stroke-linejoin:round;stroke-miterlimit:4;stroke-dasharray:none;stroke-opacity:1"
       id="path868" />
    <path
       d="m 42.199257,109.13681 -0.169824,0.40012 -0.08278,0.42675 0.0076,0.43431 0.09775,0.42362 0.183515,0.39368 0.261575,0.34714 0.328198,0.28491 0.380007,0.21075 0.415448,0.12719 0.433035,0.0378 0.43141,-0.053 0.411016,-0.14146 0.372336,-0.22392 0.317743,-0.29642 0.249147,-0.3558 0.169823,-0.40012 0.0832,-0.42641 -0.0077,-0.43469 -0.09771,-0.42325 -0.183938,-0.394 -0.261577,-0.34715 -0.327819,-0.28494 -0.380018,-0.21076 -0.415448,-0.1272 -0.433025,-0.0378 -0.43141,0.053 -0.411026,0.14145 -0.372336,0.22392 -0.317732,0.29644 z"
       style="fill:none;stroke:#ff0000;stroke-width:1.33333;stroke-linecap:round;stroke-linejoin:round;stroke-miterlimit:4;stroke-dasharray:none;stroke-opacity:1"
       id="path870" />
    <path
       d="m 477.14569,272.59951 0.20692,0.38279 0.28061,0.3315 0.34482,0.26532 0.39255,0.18867 0.42009,0.10301 0.43567,0.0128 0.42837,-0.0777 0.4024,-0.16517 0.35837,-0.24467 0.30033,-0.3141 0.22874,-0.37003 0.14401,-0.40876 0.0613,-0.43097 -0.0341,-0.43295 -0.12355,-0.41704 -0.20314,-0.38289 -0.28436,-0.33102 -0.34111,-0.26618 -0.39249,-0.18827 -0.42389,-0.10294 -0.43192,-0.0132 -0.42838,0.0777 -0.4024,0.16518 -0.35836,0.24467 -0.30033,0.31409 -0.22874,0.37004 -0.14777,0.40922 -0.0575,0.4305 0.0341,0.43334 z"
       style="fill:none;stroke:#ff0000;stroke-width:1.33333;stroke-linecap:round;stroke-linejoin:round;stroke-miterlimit:4;stroke-dasharray:none;stroke-opacity:1"
       id="path872" />
    <path
       d="m 462.46805,49.941691 0.42232,-0.096 0.39643,-0.182717 0.34884,-0.260262 0.28358,-0.326496 0.21235,-0.379452 0.12799,-0.41517 0.042,-0.43317 -0.053,-0.431403 -0.13808,-0.411432 -0.22477,-0.372993 -0.29431,-0.319143 -0.35442,-0.250453 -0.40177,-0.170773 -0.42548,-0.0848 -0.43336,0.0061 -0.42602,0.09683 -0.39272,0.181877 -0.34884,0.260263 -0.28354,0.326884 -0.21235,0.379442 -0.13179,0.415262 -0.0382,0.432708 0.053,0.431394 0.13806,0.411442 0.22481,0.373362 0.29427,0.318774 0.35443,0.250453 0.39806,0.171602 0.42917,0.08397 z"
       style="fill:none;stroke:#ff0000;stroke-width:1.33333;stroke-linecap:round;stroke-linejoin:round;stroke-miterlimit:4;stroke-dasharray:none;stroke-opacity:1"
       id="path874" />
    <path
       d="m 412.27254,248.24147 0.21234,-0.37944 0.12804,-0.41481 0.0382,-0.43306 -0.0529,-0.43104 -0.13812,-0.41182 -0.22476,-0.37298 -0.29427,-0.31877 -0.35447,-0.25083 -0.39801,-0.17123 -0.42918,-0.084 -0.43336,0.006 -0.42232,0.096 -0.39648,0.18235 -0.3488,0.26063 -0.28358,0.32651 -0.21234,0.37945 -0.128,0.41516 -0.042,0.43317 0.053,0.43103 0.14188,0.41135 0.22102,0.37345 0.29427,0.31877 0.35447,0.25083 0.40176,0.17076 0.42543,0.0845 0.43338,-0.006 0.42603,-0.0968 0.39274,-0.18188 0.34878,-0.26064 z"
       style="fill:none;stroke:#ff0000;stroke-width:1.33333;stroke-linecap:round;stroke-linejoin:round;stroke-miterlimit:4;stroke-dasharray:none;stroke-opacity:1"
       id="path876" />
    <path
       d="m 262.43846,28.48059 -0.42196,0.10509 -0.3911,0.188914 -0.34346,0.26684 -0.28032,0.331444 -0.20541,0.383152 -0.12074,0.418469 -0.0321,0.430423 0.059,0.430684 0.14766,0.408345 0.22918,0.371689 0.30084,0.313391 0.35988,0.24521 0.40243,0.163845 0.42756,0.07693 0.43413,-0.01522 0.42196,-0.10509 0.39111,-0.188914 0.34345,-0.266829 0.28033,-0.331435 0.20503,-0.383129 0.12157,-0.414756 0.0317,-0.434179 -0.059,-0.430665 -0.14767,-0.408365 -0.22917,-0.371688 -0.30085,-0.313392 -0.35942,-0.241453 -0.40288,-0.167582 -0.42756,-0.07702 z"
       style="fill:none;stroke:#ff0000;stroke-width:1.33333;stroke-linecap:round;stroke-linejoin:round;stroke-miterlimit:4;stroke-dasharray:none;stroke-opacity:1"
       id="path878" />
    <path
       d="m 393.30869,224.91604 0.057,0.43092 0.14921,0.40854 0.22816,0.36955 0.30122,0.31332 0.35748,0.24438 0.40472,0.16392 0.42827,0.0765 0.43246,-0.0131 0.42139,-0.10357 0.39181,-0.18938 0.34425,-0.26655 0.27909,-0.33205 0.20429,-0.38302 0.12388,-0.41772 0.0306,-0.43329 -0.0609,-0.43006 -0.14543,-0.409 -0.22816,-0.36953 -0.30125,-0.31372 -0.36124,-0.2439 -0.40093,-0.16402 -0.42831,-0.0769 -0.43619,0.0142 -0.42133,0.10397 -0.39181,0.18939 -0.34051,0.26609 -0.28289,0.33214 -0.20429,0.38303 -0.12012,0.41724 z"
       style="fill:none;stroke:#ff0000;stroke-width:1.33333;stroke-linecap:round;stroke-linejoin:round;stroke-miterlimit:4;stroke-dasharray:none;stroke-opacity:1"
       id="path880" />
    <path
       d="m 463.97781,248.09823 0.40176,0.17076 0.42543,0.0845 0.43336,-0.006 0.42233,-0.096 0.39646,-0.18233 0.3488,-0.26065 0.28359,-0.32649 0.21233,-0.37945 0.128,-0.41516 0.042,-0.43317 -0.0529,-0.43104 -0.13812,-0.41181 -0.22476,-0.37299 -0.29428,-0.31877 -0.35447,-0.25083 -0.40175,-0.17077 -0.42544,-0.0844 -0.43338,0.006 -0.42227,0.0964 -0.39649,0.18234 -0.34878,0.26064 -0.28358,0.3265 -0.21236,0.37944 -0.12799,0.41517 -0.042,0.43279 0.053,0.43141 0.13811,0.41181 0.22477,0.373 0.29426,0.31876 z"
       style="fill:none;stroke:#ff0000;stroke-width:1.33333;stroke-linecap:round;stroke-linejoin:round;stroke-miterlimit:4;stroke-dasharray:none;stroke-opacity:1"
       id="path882" />
    <path
       d="m 192.93186,297.8557 -0.17347,-0.39871 -0.25209,-0.35365 -0.32053,-0.29383 -0.37432,-0.22022 -0.4122,-0.13788 -0.43179,-0.0495 -0.43241,0.0417 -0.4146,0.1309 -0.37813,0.21397 -0.32565,0.28788 -0.25831,0.3493 -0.18032,0.39533 -0.0941,0.42433 -0.004,0.43456 0.0865,0.42576 0.17347,0.39871 0.2521,0.35365 0.32048,0.29345 0.37438,0.22059 0.41218,0.13789 0.43179,0.0495 0.43279,-0.0417 0.41423,-0.13085 0.37813,-0.21399 0.32564,-0.28787 0.2587,-0.34934 0.17993,-0.39528 0.0941,-0.42433 0.004,-0.43457 z"
       style="fill:none;stroke:#ff0000;stroke-width:1.33333;stroke-linecap:round;stroke-linejoin:round;stroke-miterlimit:4;stroke-dasharray:none;stroke-opacity:1"
       id="path884" />
    <path
       d="m 270.89444,227.96008 -0.22928,-0.3694 -0.30084,-0.31338 -0.35936,-0.24414 -0.40247,-0.16421 -0.42788,-0.0765 -0.43431,0.0142 -0.42172,0.10398 -0.39148,0.18896 -0.34308,0.2668 -0.28065,0.33186 -0.20504,0.38311 -0.12125,0.41739 -0.0317,0.43343 0.059,0.43066 0.14731,0.40879 0.22923,0.36901 0.30089,0.31377 0.35936,0.24413 0.40243,0.16383 0.42793,0.0769 0.43431,-0.0142 0.42171,-0.10399 0.39144,-0.18933 0.34312,-0.26642 0.28027,-0.3318 0.20543,-0.38318 0.12086,-0.41733 0.0317,-0.43342 -0.059,-0.43068 z"
       style="fill:none;stroke:#ff0000;stroke-width:1.33333;stroke-linecap:round;stroke-linejoin:round;stroke-miterlimit:4;stroke-dasharray:none;stroke-opacity:1"
       id="path886" />
    <path
       d="m 136.32495,305.72653 0.43174,0.0491 0.43241,-0.0417 0.41465,-0.1305 0.37813,-0.21397 0.32564,-0.28788 0.25832,-0.3493 0.18027,-0.39569 0.0941,-0.42434 0.004,-0.43456 -0.0869,-0.42571 -0.17306,-0.39839 -0.25251,-0.35397 -0.32049,-0.29347 -0.37436,-0.22058 -0.41182,-0.13793 -0.43211,-0.0489 -0.43241,0.0417 -0.41466,0.13051 -0.37811,0.21397 -0.32528,0.28784 -0.25869,0.34933 -0.18027,0.3957 -0.0941,0.42433 -0.004,0.4342 0.0869,0.42608 0.17306,0.39839 0.25251,0.35398 0.32048,0.29345 0.37438,0.22059 z"
       style="fill:none;stroke:#ff0000;stroke-width:1.33333;stroke-linecap:round;stroke-linejoin:round;stroke-miterlimit:4;stroke-dasharray:none;stroke-opacity:1"
       id="path888" />
    <path
       d="m 207.22562,306.68512 -0.41766,-0.12045 -0.43333,-0.0309 -0.43017,0.0598 -0.40875,0.1477 -0.36896,0.22962 -0.3133,0.3016 -0.24333,0.35963 -0.16379,0.4028 -0.0762,0.42785 0.0145,0.43423 0.10429,0.42205 0.18966,0.39102 0.26712,0.34266 0.33252,0.27979 0.38312,0.20505 0.41767,0.12045 0.43333,0.0309 0.43054,-0.0599 0.40871,-0.14801 0.36896,-0.2296 0.31297,-0.30117 0.24367,-0.36008 0.16346,-0.40238 0.0762,-0.42784 -0.0142,-0.43427 -0.10469,-0.42201 -0.18968,-0.39101 -0.26674,-0.34271 -0.33256,-0.28017 z"
       style="fill:none;stroke:#ff0000;stroke-width:1.33333;stroke-linecap:round;stroke-linejoin:round;stroke-miterlimit:4;stroke-dasharray:none;stroke-opacity:1"
       id="path890" />
    <path
       d="m 27.166656,397.20959 0.417507,0.12041 0.433547,0.0314 0.429964,-0.0629 0.408741,-0.14791 0.368902,-0.22958 0.313157,-0.3012 0.243544,-0.36007 0.163528,-0.40273 0.07621,-0.42787 -0.01443,-0.43428 -0.104358,-0.42163 -0.189854,-0.39098 -0.266985,-0.34311 -0.332433,-0.27978 -0.383333,-0.2046 -0.41752,-0.12052 -0.433467,-0.0314 -0.430044,0.0628 -0.408661,0.14791 -0.36897,0.22968 -0.313119,0.3015 -0.243673,0.35968 -0.163436,0.40282 -0.07621,0.42787 0.01442,0.43418 0.104372,0.42173 0.189812,0.39098 0.266974,0.34302 0.332434,0.27977 z"
       style="fill:none;stroke:#ff0000;stroke-width:1.33333;stroke-linecap:round;stroke-linejoin:round;stroke-miterlimit:4;stroke-dasharray:none;stroke-opacity:1"
       id="path892" />
    <path
       d="m 53.795232,444.39086 -0.01453,-0.43426 -0.104399,-0.42193 -0.189652,-0.3909 -0.26715,-0.34289 -0.332537,-0.27997 -0.383077,-0.20473 -0.417668,-0.1205 -0.433399,-0.0314 -0.430179,0.063 -0.408711,0.1479 -0.368972,0.22958 -0.312955,0.30128 -0.243676,0.35999 -0.163431,0.40262 -0.07619,0.42777 0.01417,0.43432 0.104399,0.42192 0.19003,0.39085 0.266772,0.34294 0.332526,0.27987 0.383454,0.20469 0.417678,0.1205 0.433388,0.0314 0.429815,-0.0628 0.4087,-0.14791 0.368983,-0.22958 0.313322,-0.30132 0.24332,-0.35985 0.163799,-0.40266 z"
       style="fill:none;stroke:#ff0000;stroke-width:1.33333;stroke-linecap:round;stroke-linejoin:round;stroke-miterlimit:4;stroke-dasharray:none;stroke-opacity:1"
       id="path894" />
    <path
       d="m 244.76473,317.4648 0.16987,-0.39974 0.0828,-0.42675 -0.007,-0.43432 -0.0977,-0.42363 -0.18352,-0.39366 -0.26158,-0.34715 -0.32786,-0.28533 -0.38034,-0.21033 -0.41545,-0.1272 -0.43303,-0.0378 -0.43104,0.0529 -0.41102,0.14145 -0.37233,0.22392 -0.31816,0.2961 -0.24911,0.35616 -0.16982,0.40012 -0.0829,0.42637 0.007,0.43474 0.098,0.4232 0.18355,0.39405 0.26154,0.34677 0.32786,0.28532 0.38039,0.21072 0.4154,0.12682 0.43308,0.0382 0.43104,-0.053 0.41097,-0.14184 0.37238,-0.22355 0.31811,-0.29648 z"
       style="fill:none;stroke:#ff0000;stroke-width:1.33333;stroke-linecap:round;stroke-linejoin:round;stroke-miterlimit:4;stroke-dasharray:none;stroke-opacity:1"
       id="path896" />
    <path
       d="M 15.505365,379.59434 51.60547,328.86336 A 18.897638,18.897638 0 0 0 54.965066,315.6037 L 30.525711,116.56113 A 18.897638,18.897638 0 0 1 46.979437,95.501298 l 60.050743,-7.373302 a 18.897638,18.897638 0 0 0 6.34558,-1.954328 L 244.31599,18.775543 a 18.897638,18.897638 0 0 1 8.04838,-2.085655 l 147.11381,-4.675106 a 18.897638,18.897638 0 0 1 6.47442,0.926631 L 540.50956,56.94744 a 18.897638,18.897638 0 0 1 13.01513,18.521911 l -5.74544,193.653609 a 18.897638,18.897638 0 0 1 -19.44995,18.32895 l -62.24734,-1.84748 a 18.897638,18.897638 0 0 1 -3.16591,-0.36276 l -125.0772,-25.15873 a 18.897638,18.897638 0 0 0 -19.05543,7.47461 l -66.83925,92.70505 a 18.897638,18.897638 0 0 1 -7.07436,5.94748 L 62.162388,454.9282 A 18.897638,18.897638 0 0 1 36.908333,446.18322 L 13.903025,398.80551 a 18.897638,18.897638 0 0 1 1.60234,-19.21117 z"
       style="fill:none;stroke:#ff0000;stroke-width:1.33333;stroke-linecap:round;stroke-linejoin:round;stroke-miterlimit:4;stroke-dasharray:none;stroke-opacity:1"
       id="path898" />
    <path
       d="m 257.27691,271.06141 0.43333,-0.0342 0.41667,-0.12349 0.382,-0.20722 0.33055,-0.28201 0.26455,-0.34511 0.18681,-0.39193 0.10159,-0.42259 0.0114,-0.43474 -0.0792,-0.42704 -0.1662,-0.40152 -0.24618,-0.35817 -0.31544,-0.29903 -0.37062,-0.22714 -0.40964,-0.14505 -0.43078,-0.0568 -0.43297,0.0341 -0.41703,0.12355 -0.38162,0.20717 -0.33051,0.28238 -0.26459,0.34474 -0.18715,0.39235 -0.10125,0.42216 -0.0114,0.43475 0.0791,0.42704 0.16621,0.40151 0.24618,0.35818 0.31507,0.29908 0.37061,0.22714 0.40964,0.14505 z"
       style="fill:none;stroke:#ff0000;stroke-width:1.33333;stroke-linecap:round;stroke-linejoin:round;stroke-miterlimit:4;stroke-dasharray:none;stroke-opacity:1"
       id="path900" />
    <path
       d="m 67.007231,308.7935 0.380008,0.21077 0.415448,0.12718 0.433035,0.0378 0.43141,-0.053 0.411016,-0.14144 0.372336,-0.22393 0.317742,-0.29643 0.249147,-0.35579 0.169825,-0.40012 0.0832,-0.42642 -0.0077,-0.43469 -0.09771,-0.42324 -0.183938,-0.39401 -0.261576,-0.34715 -0.32782,-0.28494 -0.380017,-0.21076 -0.415448,-0.1272 -0.433026,-0.0378 -0.431409,0.053 -0.411027,0.14144 -0.372335,0.22393 -0.317733,0.29643 -0.249525,0.35584 -0.169824,0.40011 -0.08278,0.42675 0.0076,0.43432 0.09775,0.42361 0.183514,0.39368 0.261576,0.34715 z"
       style="fill:none;stroke:#ff0000;stroke-width:1.33333;stroke-linecap:round;stroke-linejoin:round;stroke-miterlimit:4;stroke-dasharray:none;stroke-opacity:1"
       id="path902" />
  </g>
  <g
     inkscape:groupmode="layer"
     id="g1417"
     inkscape:label="bottom more holes copy"
     sodipodi:insensitive="true">
    <path
       d="m 403.06709,766.63612 -0.007,-0.43433 -0.0977,-0.42362 -0.18352,-0.39367 -0.26157,-0.34715 -0.32825,-0.28528 -0.37995,-0.21037 -0.41545,-0.1272 -0.43304,-0.0378 -0.43141,0.053 -0.41102,0.14144 -0.37233,0.22393 -0.31779,0.29605 -0.24909,0.35617 -0.16984,0.40011 -0.0832,0.42642 0.008,0.43466 0.0976,0.42326 0.18393,0.394 0.26154,0.34679 0.32786,0.28531 0.38001,0.21076 0.41546,0.12719 0.43302,0.0378 0.4314,-0.053 0.41104,-0.14144 0.37233,-0.22393 0.31773,-0.29643 0.24948,-0.35619 0.16987,-0.39975 z"
       style="fill:none;stroke:#ff0000;stroke-width:1.33333;stroke-linecap:round;stroke-linejoin:round;stroke-miterlimit:4;stroke-dasharray:none;stroke-opacity:1"
       id="path1353" />
    <path
       d="m 80.301527,771.59381 0.43567,0.0128 0.42838,-0.0777 0.4024,-0.16516 0.35836,-0.24469 0.30034,-0.3141 0.22873,-0.37002 0.14402,-0.40876 0.0613,-0.43097 -0.0341,-0.43333 -0.1235,-0.41665 -0.20318,-0.38327 -0.2806,-0.33148 -0.34483,-0.26534 -0.39254,-0.18865 -0.42383,-0.10256 -0.43193,-0.0132 -0.42836,0.0778 -0.40241,0.16516 -0.35835,0.24469 -0.30034,0.31409 -0.22873,0.37003 -0.14777,0.40923 -0.0576,0.4305 0.0341,0.43333 0.11973,0.41712 0.20689,0.38242 0.28065,0.33187 0.34482,0.26533 0.39254,0.18866 z"
       style="fill:none;stroke:#ff0000;stroke-width:1.33333;stroke-linecap:round;stroke-linejoin:round;stroke-miterlimit:4;stroke-dasharray:none;stroke-opacity:1"
       id="path1355" />
    <path
       d="m 77.012747,788.16487 0.0977,0.42363 0.18544,0.39381 0.25966,0.34701 0.32823,0.28527 0.38002,0.21076 0.4154,0.12682 0.43116,0.0381 0.4314,-0.053 0.4129,-0.14168 0.37239,-0.22355 0.31773,-0.29643 0.24947,-0.35619 0.168,-0.39953 0.0847,-0.42697 -0.007,-0.43471 -0.0977,-0.42325 -0.1854,-0.39344 -0.2597,-0.34738 -0.32823,-0.28527 -0.38001,-0.21075 -0.41541,-0.12683 -0.4349,-0.0376 -0.43141,0.053 -0.40915,0.14122 -0.37237,0.22356 -0.31775,0.29642 -0.24947,0.35621 -0.16796,0.39989 -0.0847,0.4266 z"
       style="fill:none;stroke:#ff0000;stroke-width:1.33333;stroke-linecap:round;stroke-linejoin:round;stroke-miterlimit:4;stroke-dasharray:none;stroke-opacity:1"
       id="path1357" />
    <path
       d="m 24.160097,767.42666 -0.0576,0.43051 0.0341,0.43333 0.11976,0.41749 0.2069,0.38243 0.2806,0.33148 0.34487,0.26572 0.38873,0.18874 0.42385,0.10256 0.43567,0.0128 0.42462,-0.0773 0.40245,-0.16478 0.36206,-0.24552 0.30034,-0.31409 0.22504,-0.36921 0.14775,-0.40921 0.0575,-0.43088 -0.0303,-0.43342 -0.12354,-0.41703 -0.20689,-0.38243 -0.2806,-0.33148 -0.34113,-0.26617 -0.39248,-0.18829 -0.4239,-0.10293 -0.43187,-0.0128 -0.42837,0.0777 -0.40245,0.1648 -0.35836,0.24467 -0.30029,0.31448 -0.22879,0.36965 z"
       style="fill:none;stroke:#ff0000;stroke-width:1.33333;stroke-linecap:round;stroke-linejoin:round;stroke-miterlimit:4;stroke-dasharray:none;stroke-opacity:1"
       id="path1359" />
    <path
       d="m 334.95702,487.48338 0.43377,0.0314 0.4298,-0.0628 0.40871,-0.14791 0.36898,-0.22958 0.31333,-0.30123 0.24329,-0.36003 0.16384,-0.40237 0.0762,-0.42787 -0.0146,-0.43467 -0.10438,-0.42162 -0.19005,-0.39096 -0.26674,-0.34274 -0.33256,-0.28016 -0.38345,-0.2046 -0.4173,-0.12054 -0.43326,-0.0304 -0.43019,0.0628 -0.40871,0.14791 -0.36897,0.22958 -0.31292,0.30158 -0.24371,0.35969 -0.16342,0.40272 -0.0762,0.42787 0.0142,0.43421 0.1044,0.42212 0.19004,0.39096 0.26673,0.34265 0.33253,0.27985 0.38349,0.20499 z"
       style="fill:none;stroke:#ff0000;stroke-width:1.33333;stroke-linecap:round;stroke-linejoin:round;stroke-miterlimit:4;stroke-dasharray:none;stroke-opacity:1"
       id="path1361" />
    <path
       d="m 177.89344,817.9806 0.28294,-0.33176 0.20428,-0.38302 0.11999,-0.41838 0.0347,-0.43074 -0.061,-0.43042 -0.14962,-0.41193 -0.22796,-0.36804 -0.30122,-0.31333 -0.35763,-0.2455 -0.40467,-0.16355 -0.42832,-0.0769 -0.43225,0.015 -0.42121,0.10506 -0.39186,0.18901 -0.3442,0.26693 -0.27919,0.33129 -0.20429,0.38303 -0.1242,0.41508 -0.0305,0.43403 0.0609,0.43044 0.14538,0.40863 0.22843,0.37179 0.30121,0.31334 0.36092,0.24128 0.40138,0.16776 0.42786,0.0731 0.43649,-0.0112 0.4212,-0.10496 0.39187,-0.18901 z"
       style="fill:none;stroke:#ff0000;stroke-width:1.33333;stroke-linecap:round;stroke-linejoin:round;stroke-miterlimit:4;stroke-dasharray:none;stroke-opacity:1"
       id="path1363" />
    <path
       d="m 395.67633,741.83828 -0.0865,-0.42576 -0.17347,-0.39872 -0.2521,-0.35364 -0.32048,-0.29347 -0.37437,-0.22059 -0.41218,-0.13787 -0.4318,-0.0495 -0.43279,0.0417 -0.41422,0.13086 -0.37812,0.21398 -0.32565,0.28788 -0.25869,0.34934 -0.17995,0.39526 -0.0941,0.42433 -0.004,0.43458 0.0865,0.42576 0.17348,0.39872 0.25209,0.35364 0.32053,0.29384 0.37436,0.22058 0.4122,0.13789 0.43174,0.0491 0.43241,-0.0417 0.41466,-0.13051 0.37807,-0.21435 0.32565,-0.28789 0.25832,-0.34928 0.18031,-0.39532 0.0941,-0.42434 z"
       style="fill:none;stroke:#ff0000;stroke-width:1.33333;stroke-linecap:round;stroke-linejoin:round;stroke-miterlimit:4;stroke-dasharray:none;stroke-opacity:1"
       id="path1365" />
    <path
       d="m 31.911877,567.50806 -0.42831,0.0781 -0.40246,0.1648 -0.35836,0.24469 -0.30028,0.31446 -0.22879,0.36966 -0.14776,0.40921 -0.0576,0.43052 0.0341,0.43333 0.11976,0.41749 0.20689,0.38243 0.2806,0.33148 0.34488,0.26571 0.39248,0.18829 0.42009,0.10301 0.43568,0.0128 0.42837,-0.0777 0.40245,-0.16478 0.35831,-0.24505 0.30034,-0.3141 0.22877,-0.36966 0.14403,-0.40875 0.0575,-0.43089 -0.0303,-0.43342 -0.12355,-0.41703 -0.20314,-0.38288 -0.28434,-0.33103 -0.34113,-0.26618 -0.39248,-0.18828 -0.42389,-0.10292 z"
       style="fill:none;stroke:#ff0000;stroke-width:1.33333;stroke-linecap:round;stroke-linejoin:round;stroke-miterlimit:4;stroke-dasharray:none;stroke-opacity:1"
       id="path1367" />
    <path
       d="m 466.68903,741.40808 0.41583,0.12716 0.43265,0.0378 0.43141,-0.053 0.41102,-0.14144 0.37233,-0.22393 0.31775,-0.29643 0.24952,-0.35583 0.16982,-0.40012 0.0828,-0.42675 -0.007,-0.43433 -0.0977,-0.42362 -0.18352,-0.39368 -0.26159,-0.34714 -0.32818,-0.28491 -0.38002,-0.21074 -0.41545,-0.1272 -0.43303,-0.0378 -0.4314,0.053 -0.41065,0.1414 -0.37271,0.22398 -0.31774,0.29642 -0.24952,0.35584 -0.16946,0.40007 -0.0832,0.42642 0.007,0.43471 0.0977,0.42325 0.18394,0.394 0.26121,0.34719 0.32818,0.2849 z"
       style="fill:none;stroke:#ff0000;stroke-width:1.33333;stroke-linecap:round;stroke-linejoin:round;stroke-miterlimit:4;stroke-dasharray:none;stroke-opacity:1"
       id="path1369" />
    <path
       d="m 377.13752,769.44289 0.40963,0.14505 0.43117,0.0567 0.43296,-0.0341 0.41666,-0.12349 0.38195,-0.20759 0.33055,-0.28201 0.26459,-0.34473 0.18716,-0.39235 0.1012,-0.42254 0.0113,-0.43436 -0.0792,-0.42743 -0.16619,-0.4015 -0.24618,-0.35818 -0.31546,-0.29902 -0.37022,-0.2272 -0.40964,-0.14505 -0.43117,-0.0567 -0.43296,0.0341 -0.41665,0.12349 -0.382,0.20721 -0.33052,0.28239 -0.26458,0.34474 -0.18715,0.39234 -0.10121,0.42254 -0.0113,0.43436 0.0792,0.42743 0.16621,0.4015 0.24618,0.35818 0.31506,0.29908 z"
       style="fill:none;stroke:#ff0000;stroke-width:1.33333;stroke-linecap:round;stroke-linejoin:round;stroke-miterlimit:4;stroke-dasharray:none;stroke-opacity:1"
       id="path1371" />
    <path
       d="m 446.24933,735.4166 -0.25869,0.34934 -0.18027,0.39568 -0.0937,0.4243 -0.004,0.43456 0.0865,0.42577 0.17306,0.39838 0.25251,0.35397 0.32048,0.29346 0.37437,0.2206 0.41219,0.13788 0.43179,0.0495 0.43242,-0.0417 0.41459,-0.1309 0.37813,-0.21398 0.32565,-0.28787 0.25831,-0.3493 0.18027,-0.39569 0.0942,-0.42396 0.004,-0.43457 -0.0866,-0.42612 -0.17343,-0.39834 -0.25252,-0.35397 -0.32049,-0.29347 -0.37435,-0.22059 -0.41183,-0.13793 -0.43174,-0.0491 -0.43278,0.0417 -0.41428,0.13045 -0.3785,0.21402 z"
       style="fill:none;stroke:#ff0000;stroke-width:1.33333;stroke-linecap:round;stroke-linejoin:round;stroke-miterlimit:4;stroke-dasharray:none;stroke-opacity:1"
       id="path1373" />
    <path
       d="m 360.50461,569.05925 -0.10121,0.42253 -0.0115,0.43438 0.0792,0.42704 0.1662,0.40152 0.24618,0.35817 0.3155,0.29941 0.37018,0.22682 0.41002,0.14499 0.4308,0.0568 0.43295,-0.0341 0.41671,-0.1231 0.38196,-0.20759 0.33056,-0.28201 0.26453,-0.34511 0.1872,-0.39197 0.10158,-0.42259 0.0111,-0.43432 -0.0792,-0.42742 -0.16619,-0.40151 -0.24618,-0.35817 -0.31508,-0.29908 -0.3706,-0.22715 -0.40965,-0.14505 -0.43116,-0.0567 -0.43296,0.0341 -0.41665,0.12349 -0.382,0.20722 -0.33051,0.28239 -0.26459,0.34474 z"
       style="fill:none;stroke:#ff0000;stroke-width:1.33333;stroke-linecap:round;stroke-linejoin:round;stroke-miterlimit:4;stroke-dasharray:none;stroke-opacity:1"
       id="path1375" />
    <path
       d="m 107.57854,577.77061 0.40915,-0.14121 0.37239,-0.22357 0.31773,-0.29641 0.24952,-0.35585 0.1717,-0.40035 0.0809,-0.42652 -0.007,-0.43432 -0.0978,-0.42362 -0.18165,-0.39391 -0.26344,-0.34692 -0.32825,-0.28527 -0.37995,-0.21038 -0.41546,-0.1272 -0.43116,-0.0381 -0.43141,0.053 -0.41289,0.14168 -0.37233,0.22393 -0.31779,0.29605 -0.24947,0.3562 -0.16796,0.3999 -0.0847,0.42661 0.008,0.43465 0.0976,0.42326 0.18544,0.39381 0.2597,0.34739 0.3282,0.2849 0.38001,0.21075 0.4154,0.12683 0.43491,0.0376 z"
       style="fill:none;stroke:#ff0000;stroke-width:1.33333;stroke-linecap:round;stroke-linejoin:round;stroke-miterlimit:4;stroke-dasharray:none;stroke-opacity:1"
       id="path1377" />
    <path
       d="m 159.77419,794.77308 0.042,-0.43317 -0.053,-0.43139 -0.1419,-0.41136 -0.22101,-0.37344 -0.29427,-0.31877 -0.35448,-0.25083 -0.40175,-0.17077 -0.42543,-0.0845 -0.43336,0.006 -0.42607,0.0964 -0.39274,0.18187 -0.34878,0.26064 -0.28734,0.32697 -0.21234,0.37945 -0.128,0.41516 -0.0382,0.43271 0.053,0.4314 0.13808,0.41145 0.22476,0.37298 0.29432,0.31914 0.35442,0.25046 0.39801,0.17123 0.42919,0.084 0.4334,-0.006 0.42225,-0.0964 0.39649,-0.18234 0.34883,-0.26026 0.28353,-0.32689 0.21236,-0.37944 z"
       style="fill:none;stroke:#ff0000;stroke-width:1.33333;stroke-linecap:round;stroke-linejoin:round;stroke-miterlimit:4;stroke-dasharray:none;stroke-opacity:1"
       id="path1379" />
    <path
       d="m 322.19435,773.18652 0.31513,0.29945 0.37055,0.22677 0.40965,0.14505 0.43116,0.0567 0.43301,-0.0337 0.41664,-0.12349 0.38197,-0.20759 0.33055,-0.28201 0.26459,-0.34474 0.18716,-0.39235 0.10119,-0.42253 0.0114,-0.43438 -0.0792,-0.42742 -0.1662,-0.40151 -0.24618,-0.35817 -0.31546,-0.29903 -0.37023,-0.2272 -0.40964,-0.14505 -0.43116,-0.0567 -0.43296,0.0341 -0.41665,0.1235 -0.38201,0.20722 -0.33051,0.28238 -0.26458,0.34474 -0.18716,0.39235 -0.1012,0.42254 -0.0115,0.43437 0.0792,0.42742 0.16616,0.40113 z"
       style="fill:none;stroke:#ff0000;stroke-width:1.33333;stroke-linecap:round;stroke-linejoin:round;stroke-miterlimit:4;stroke-dasharray:none;stroke-opacity:1"
       id="path1381" />
    <path
       d="m 523.33906,733.86972 0.16982,-0.40012 0.0828,-0.42675 -0.008,-0.43431 -0.0978,-0.42362 -0.18351,-0.39368 -0.26158,-0.34714 -0.32819,-0.28491 -0.38001,-0.21075 -0.41545,-0.12719 -0.43303,-0.0378 -0.43141,0.053 -0.41102,0.14146 -0.37234,0.22392 -0.31774,0.29642 -0.24915,0.3558 -0.16982,0.40012 -0.0832,0.42641 0.008,0.43469 0.0977,0.42325 0.18394,0.394 0.26158,0.34715 0.32782,0.28494 0.38001,0.21076 0.41545,0.1272 0.43303,0.0378 0.43141,-0.053 0.41102,-0.14145 0.37234,-0.22392 0.31773,-0.29644 z"
       style="fill:none;stroke:#ff0000;stroke-width:1.33333;stroke-linecap:round;stroke-linejoin:round;stroke-miterlimit:4;stroke-dasharray:none;stroke-opacity:1"
       id="path1383" />
    <path
       d="m 88.392627,570.40702 -0.20692,-0.38279 -0.28061,-0.3315 -0.34482,-0.26532 -0.39255,-0.18867 -0.42009,-0.10301 -0.43567,-0.0128 -0.42837,0.0777 -0.4024,0.16517 -0.35837,0.24467 -0.30033,0.3141 -0.22874,0.37003 -0.14401,0.40876 -0.0613,0.43097 0.0341,0.43295 0.12355,0.41704 0.20314,0.38289 0.28436,0.33102 0.34111,0.26618 0.39249,0.18827 0.42389,0.10294 0.43192,0.0132 0.42838,-0.0777 0.4024,-0.16518 0.35836,-0.24467 0.30033,-0.31409 0.22874,-0.37004 0.14777,-0.40922 0.0575,-0.4305 -0.0341,-0.43334 z"
       style="fill:none;stroke:#ff0000;stroke-width:1.33333;stroke-linecap:round;stroke-linejoin:round;stroke-miterlimit:4;stroke-dasharray:none;stroke-opacity:1"
       id="path1385" />
    <path
       d="m 103.07027,793.06484 -0.42232,0.096 -0.39643,0.18272 -0.34884,0.26026 -0.28358,0.32649 -0.21235,0.37946 -0.12799,0.41517 -0.042,0.43317 0.053,0.4314 0.13808,0.41143 0.22477,0.37299 0.29431,0.31915 0.35442,0.25045 0.40177,0.17077 0.42548,0.0848 0.43336,-0.006 0.42602,-0.0968 0.39272,-0.18187 0.34884,-0.26027 0.28354,-0.32688 0.21235,-0.37944 0.13179,-0.41526 0.0382,-0.43271 -0.053,-0.4314 -0.13806,-0.41144 -0.22481,-0.37336 -0.29427,-0.31877 -0.35443,-0.25046 -0.39806,-0.1716 -0.42917,-0.084 z"
       style="fill:none;stroke:#ff0000;stroke-width:1.33333;stroke-linecap:round;stroke-linejoin:round;stroke-miterlimit:4;stroke-dasharray:none;stroke-opacity:1"
       id="path1387" />
    <path
       d="m 153.26578,594.76506 -0.21234,0.37944 -0.12804,0.41481 -0.0382,0.43306 0.0529,0.43104 0.13812,0.41182 0.22476,0.37298 0.29427,0.31877 0.35447,0.25083 0.39801,0.17123 0.42918,0.084 0.43336,-0.006 0.42232,-0.096 0.39648,-0.18235 0.3488,-0.26063 0.28358,-0.32651 0.21234,-0.37945 0.128,-0.41516 0.042,-0.43317 -0.053,-0.43103 -0.14188,-0.41135 -0.22102,-0.37345 -0.29427,-0.31877 -0.35447,-0.25083 -0.40176,-0.17076 -0.42543,-0.0845 -0.43338,0.006 -0.42603,0.0968 -0.39274,0.18188 -0.34878,0.26064 z"
       style="fill:none;stroke:#ff0000;stroke-width:1.33333;stroke-linecap:round;stroke-linejoin:round;stroke-miterlimit:4;stroke-dasharray:none;stroke-opacity:1"
       id="path1389" />
    <path
       d="m 303.09986,814.52594 0.42196,-0.10509 0.3911,-0.18891 0.34346,-0.26684 0.28032,-0.33145 0.20541,-0.38315 0.12074,-0.41847 0.0321,-0.43042 -0.059,-0.43069 -0.14766,-0.40834 -0.22918,-0.37169 -0.30084,-0.31339 -0.35988,-0.24521 -0.40243,-0.16385 -0.42756,-0.0769 -0.43413,0.0152 -0.42196,0.10509 -0.39111,0.18892 -0.34345,0.26683 -0.28033,0.33143 -0.20503,0.38313 -0.12157,0.41476 -0.0317,0.43418 0.059,0.43066 0.14767,0.40837 0.22917,0.37168 0.30085,0.3134 0.35942,0.24145 0.40288,0.16758 0.42756,0.077 z"
       style="fill:none;stroke:#ff0000;stroke-width:1.33333;stroke-linecap:round;stroke-linejoin:round;stroke-miterlimit:4;stroke-dasharray:none;stroke-opacity:1"
       id="path1391" />
    <path
       d="m 172.22963,618.09049 -0.057,-0.43092 -0.14921,-0.40854 -0.22816,-0.36955 -0.30122,-0.31332 -0.35748,-0.24438 -0.40472,-0.16392 -0.42827,-0.0765 -0.43246,0.0131 -0.42139,0.10357 -0.39181,0.18938 -0.34425,0.26655 -0.27909,0.33205 -0.20429,0.38302 -0.12388,0.41772 -0.0306,0.43329 0.0609,0.43006 0.14543,0.409 0.22816,0.36953 0.30125,0.31372 0.36124,0.2439 0.40093,0.16402 0.42831,0.0769 0.43619,-0.0142 0.42133,-0.10397 0.39181,-0.18939 0.34051,-0.26609 0.28289,-0.33214 0.20429,-0.38303 0.12012,-0.41724 z"
       style="fill:none;stroke:#ff0000;stroke-width:1.33333;stroke-linecap:round;stroke-linejoin:round;stroke-miterlimit:4;stroke-dasharray:none;stroke-opacity:1"
       id="path1393" />
    <path
       d="m 101.56051,594.9083 -0.40176,-0.17076 -0.42543,-0.0845 -0.43336,0.006 -0.422333,0.096 -0.39646,0.18233 -0.3488,0.26065 -0.28359,0.32649 -0.21233,0.37945 -0.128,0.41516 -0.042,0.43317 0.0529,0.43104 0.13812,0.41181 0.22476,0.37299 0.29428,0.31877 0.35447,0.25083 0.40175,0.17077 0.425443,0.0844 0.43338,-0.006 0.42227,-0.0964 0.39649,-0.18234 0.34878,-0.26064 0.28358,-0.3265 0.21236,-0.37944 0.12799,-0.41517 0.042,-0.43279 -0.053,-0.43141 -0.13811,-0.41181 -0.22477,-0.373 -0.29426,-0.31876 z"
       style="fill:none;stroke:#ff0000;stroke-width:1.33333;stroke-linecap:round;stroke-linejoin:round;stroke-miterlimit:4;stroke-dasharray:none;stroke-opacity:1"
       id="path1395" />
    <path
       d="m 372.60646,545.15083 0.17347,0.39871 0.25209,0.35365 0.32053,0.29383 0.37432,0.22022 0.4122,0.13788 0.43179,0.0495 0.43241,-0.0417 0.4146,-0.1309 0.37813,-0.21397 0.32565,-0.28788 0.25831,-0.3493 0.18032,-0.39533 0.0941,-0.42433 0.004,-0.43456 -0.0865,-0.42576 -0.17347,-0.39871 -0.2521,-0.35365 -0.32048,-0.29345 -0.37438,-0.22059 -0.41218,-0.13789 -0.43179,-0.0495 -0.43279,0.0417 -0.41423,0.13085 -0.37813,0.21399 -0.32564,0.28787 -0.2587,0.34934 -0.17993,0.39528 -0.0941,0.42433 -0.004,0.43457 z"
       style="fill:none;stroke:#ff0000;stroke-width:1.33333;stroke-linecap:round;stroke-linejoin:round;stroke-miterlimit:4;stroke-dasharray:none;stroke-opacity:1"
       id="path1397" />
    <path
       d="m 294.64388,615.04645 0.22928,0.3694 0.30084,0.31338 0.35936,0.24414 0.40247,0.16421 0.42788,0.0765 0.43431,-0.0142 0.42172,-0.10398 0.39148,-0.18896 0.34308,-0.2668 0.28065,-0.33186 0.20504,-0.38311 0.12125,-0.41739 0.0317,-0.43343 -0.059,-0.43066 -0.14731,-0.40879 -0.22923,-0.36901 -0.30089,-0.31377 -0.35936,-0.24413 -0.40243,-0.16383 -0.42793,-0.0769 -0.43431,0.0142 -0.42171,0.10399 -0.39144,0.18933 -0.34312,0.26642 -0.28027,0.3318 -0.20543,0.38318 -0.12086,0.41733 -0.0317,0.43342 0.059,0.43068 z"
       style="fill:none;stroke:#ff0000;stroke-width:1.33333;stroke-linecap:round;stroke-linejoin:round;stroke-miterlimit:4;stroke-dasharray:none;stroke-opacity:1"
       id="path1399" />
    <path
       d="m 429.21337,537.28 -0.43174,-0.0491 -0.43241,0.0417 -0.41465,0.1305 -0.37813,0.21397 -0.32564,0.28788 -0.25832,0.3493 -0.18027,0.39569 -0.0941,0.42434 -0.004,0.43456 0.0869,0.42571 0.17306,0.39839 0.25251,0.35397 0.32049,0.29347 0.37436,0.22058 0.41182,0.13793 0.43211,0.0489 0.43241,-0.0417 0.41466,-0.13051 0.37811,-0.21397 0.32528,-0.28784 0.25869,-0.34933 0.18027,-0.3957 0.0941,-0.42433 0.004,-0.4342 -0.0869,-0.42608 -0.17306,-0.39839 -0.25251,-0.35398 -0.32048,-0.29345 -0.37438,-0.22059 z"
       style="fill:none;stroke:#ff0000;stroke-width:1.33333;stroke-linecap:round;stroke-linejoin:round;stroke-miterlimit:4;stroke-dasharray:none;stroke-opacity:1"
       id="path1401" />
    <path
       d="m 358.3127,536.32141 0.41766,0.12045 0.43333,0.0309 0.43017,-0.0598 0.40875,-0.1477 0.36896,-0.22962 0.3133,-0.3016 0.24333,-0.35963 0.16379,-0.4028 0.0762,-0.42785 -0.0145,-0.43423 -0.10429,-0.42205 -0.18966,-0.39102 -0.26712,-0.34266 -0.33252,-0.27979 -0.38312,-0.20505 -0.41767,-0.12045 -0.43333,-0.0309 -0.43054,0.0599 -0.40871,0.14801 -0.36896,0.2296 -0.31297,0.30117 -0.24367,0.36008 -0.16346,0.40238 -0.0762,0.42784 0.0142,0.43427 0.10469,0.42201 0.18968,0.39101 0.26674,0.34271 0.33256,0.28017 z"
       style="fill:none;stroke:#ff0000;stroke-width:1.33333;stroke-linecap:round;stroke-linejoin:round;stroke-miterlimit:4;stroke-dasharray:none;stroke-opacity:1"
       id="path1403" />
    <path
       d="m 538.37166,445.79694 -0.41751,-0.12041 -0.43354,-0.0314 -0.42997,0.0629 -0.40874,0.14791 -0.3689,0.22958 -0.31316,0.3012 -0.24354,0.36007 -0.16353,0.40273 -0.0762,0.42787 0.0144,0.43428 0.10436,0.42163 0.18985,0.39098 0.26699,0.34311 0.33243,0.27978 0.38333,0.2046 0.41752,0.12052 0.43347,0.0314 0.43005,-0.0628 0.40866,-0.14791 0.36897,-0.22968 0.31312,-0.3015 0.24367,-0.35968 0.16343,-0.40282 0.0762,-0.42787 -0.0144,-0.43418 -0.10437,-0.42173 -0.18981,-0.39098 -0.26697,-0.34302 -0.33244,-0.27977 z"
       style="fill:none;stroke:#ff0000;stroke-width:1.33333;stroke-linecap:round;stroke-linejoin:round;stroke-miterlimit:4;stroke-dasharray:none;stroke-opacity:1"
       id="path1405" />
    <path
       d="m 511.74309,398.61567 0.0145,0.43426 0.10439,0.42193 0.18966,0.3909 0.26715,0.34289 0.33253,0.27997 0.38308,0.20473 0.41767,0.1205 0.4334,0.0314 0.43018,-0.063 0.40871,-0.1479 0.36897,-0.22958 0.31295,-0.30128 0.24368,-0.35999 0.16343,-0.40262 0.0762,-0.42777 -0.0142,-0.43432 -0.1044,-0.42192 -0.19003,-0.39085 -0.26677,-0.34294 -0.33253,-0.27987 -0.38345,-0.20469 -0.41768,-0.1205 -0.43339,-0.0314 -0.42981,0.0628 -0.4087,0.14791 -0.36898,0.22958 -0.31333,0.30132 -0.24332,0.35985 -0.16379,0.40266 z"
       style="fill:none;stroke:#ff0000;stroke-width:1.33333;stroke-linecap:round;stroke-linejoin:round;stroke-miterlimit:4;stroke-dasharray:none;stroke-opacity:1"
       id="path1407" />
    <path
       d="m 320.77359,525.54173 -0.16987,0.39974 -0.0828,0.42675 0.007,0.43432 0.0977,0.42363 0.18352,0.39366 0.26158,0.34715 0.32786,0.28533 0.38034,0.21033 0.41545,0.1272 0.43303,0.0378 0.43104,-0.0529 0.41102,-0.14145 0.37233,-0.22392 0.31816,-0.2961 0.24911,-0.35616 0.16982,-0.40012 0.0829,-0.42637 -0.007,-0.43474 -0.098,-0.4232 -0.18355,-0.39405 -0.26154,-0.34677 -0.32786,-0.28532 -0.38039,-0.21072 -0.4154,-0.12682 -0.43308,-0.0382 -0.43104,0.053 -0.41097,0.14184 -0.37238,0.22355 -0.31811,0.29648 z"
       style="fill:none;stroke:#ff0000;stroke-width:1.33333;stroke-linecap:round;stroke-linejoin:round;stroke-miterlimit:4;stroke-dasharray:none;stroke-opacity:1"
       id="path1409" />
    <path
       d="m 550.03295,463.41219 -36.1001,50.73098 a 18.897638,18.897638 0 0 0 -3.3596,13.25966 l 24.43936,199.04257 a 18.897638,18.897638 0 0 1 -16.45373,21.05983 l -60.05074,7.3733 a 18.897638,18.897638 0 0 0 -6.34558,1.95433 l -130.94023,67.39813 a 18.897638,18.897638 0 0 1 -8.04838,2.08565 l -147.11381,4.67511 a 18.897638,18.897638 0 0 1 -6.47442,-0.92663 L 25.028757,786.05909 a 18.897638,18.897638 0 0 1 -13.01513,-18.52191 l 5.74544,-193.65361 a 18.897638,18.897638 0 0 1 19.44995,-18.32895 l 62.24734,1.84748 a 18.897638,18.897638 0 0 1 3.165913,0.36276 l 125.0772,25.15873 a 18.897638,18.897638 0 0 0 19.05543,-7.47461 l 66.83925,-92.70505 a 18.897638,18.897638 0 0 1 7.07436,-5.94748 l 182.70742,-88.71812 a 18.897638,18.897638 0 0 1 25.25405,8.74498 l 23.00531,47.37771 a 18.897638,18.897638 0 0 1 -1.60234,19.21117 z"
       style="fill:none;stroke:#ff0000;stroke-width:1.33333;stroke-linecap:round;stroke-linejoin:round;stroke-miterlimit:4;stroke-dasharray:none;stroke-opacity:1"
       id="path1411" />
    <path
       d="m 308.26141,571.94512 -0.43333,0.0342 -0.41667,0.12349 -0.382,0.20722 -0.33055,0.28201 -0.26455,0.34511 -0.18681,0.39193 -0.10159,0.42259 -0.0114,0.43474 0.0792,0.42704 0.1662,0.40152 0.24618,0.35817 0.31544,0.29903 0.37062,0.22714 0.40964,0.14505 0.43078,0.0568 0.43297,-0.0341 0.41703,-0.12355 0.38162,-0.20717 0.33051,-0.28238 0.26459,-0.34474 0.18715,-0.39235 0.10125,-0.42216 0.0114,-0.43475 -0.0791,-0.42704 -0.16621,-0.40151 -0.24618,-0.35818 -0.31507,-0.29908 -0.37061,-0.22714 -0.40964,-0.14505 z"
       style="fill:none;stroke:#ff0000;stroke-width:1.33333;stroke-linecap:round;stroke-linejoin:round;stroke-miterlimit:4;stroke-dasharray:none;stroke-opacity:1"
       id="path1413" />
    <path
       d="m 498.53109,534.21303 -0.38001,-0.21077 -0.41545,-0.12718 -0.43303,-0.0378 -0.43141,0.053 -0.41102,0.14144 -0.37234,0.22393 -0.31774,0.29643 -0.24915,0.35579 -0.16982,0.40012 -0.0832,0.42642 0.008,0.43469 0.0977,0.42324 0.18394,0.39401 0.26157,0.34715 0.32782,0.28494 0.38002,0.21076 0.41545,0.1272 0.43302,0.0378 0.43141,-0.053 0.41103,-0.14144 0.37234,-0.22393 0.31773,-0.29643 0.24952,-0.35584 0.16983,-0.40011 0.0828,-0.42675 -0.008,-0.43432 -0.0978,-0.42361 -0.18352,-0.39368 -0.26157,-0.34715 z"
       style="fill:none;stroke:#ff0000;stroke-width:1.33333;stroke-linecap:round;stroke-linejoin:round;stroke-miterlimit:4;stroke-dasharray:none;stroke-opacity:1"
       id="path1415" />
  </g>
  <g
     inkscape:groupmode="layer"
     id="layer1"
     inkscape:label="cover"
     sodipodi:insensitive="true">
    <path
       d="m 369.40798,310.38535 -0.0903,0.42519 v 0.43465 l 0.0903,0.42519 0.17688,0.39685 0.25549,0.3515 0.32278,0.29065 0.37644,0.21732 0.4131,0.13455 0.43238,0.0454 0.432,-0.0454 0.41348,-0.13455 0.37644,-0.21732 0.32277,-0.29065 0.2555,-0.3515 0.17688,-0.39685 0.0903,-0.42519 v -0.43465 l -0.0903,-0.42519 -0.17688,-0.39686 -0.2555,-0.35149 -0.32277,-0.29102 -0.37644,-0.21733 -0.41348,-0.13417 -0.432,-0.0454 -0.43238,0.0454 -0.4131,0.13417 -0.37644,0.21733 -0.32278,0.29102 -0.25549,0.35149 z"
       style="fill:none;stroke:#ff0000;stroke-width:1.33333;stroke-linecap:round;stroke-linejoin:round;stroke-miterlimit:4;stroke-dasharray:none;stroke-opacity:1"
       id="path840" />
    <path
       d="m 314.98278,366.0952 0.17688,0.39723 0.2555,0.3515 0.32277,0.29102 0.37644,0.21695 0.4131,0.13455 0.43238,0.0454 0.432,-0.0454 0.41348,-0.13455 0.37644,-0.21695 0.32277,-0.29102 0.2555,-0.3515 0.17688,-0.39723 0.0903,-0.42482 v -0.43464 l -0.0903,-0.4252 -0.17688,-0.39685 -0.2555,-0.3515 -0.32277,-0.29102 -0.37644,-0.21732 -0.41348,-0.13418 -0.432,-0.0454 -0.43238,0.0454 -0.4131,0.13418 -0.37644,0.21732 -0.32277,0.29102 -0.2555,0.3515 -0.17688,0.39685 -0.0903,0.4252 v 0.43464 z"
       style="fill:none;stroke:#ff0000;stroke-width:1.33333;stroke-linecap:round;stroke-linejoin:round;stroke-miterlimit:4;stroke-dasharray:none;stroke-opacity:1"
       id="path842" />
    <path
       d="M 518.21969,372.06723 H 314.12521 a 3.779528,3.779528 0 0 1 -3.77953,-3.77952 v -60.09449 a 3.779528,3.779528 0 0 1 3.77953,-3.77953 h 204.09448 a 3.779528,3.779528 0 0 1 3.77953,3.77953 v 60.09449 a 3.779528,3.779528 0 0 1 -3.77953,3.77952 z"
       style="fill:none;stroke:#ff0000;stroke-width:1.33333;stroke-linecap:round;stroke-linejoin:round;stroke-miterlimit:4;stroke-dasharray:none;stroke-opacity:1"
       id="path844" />
  </g>
  <g
     inkscape:groupmode="layer"
     id="g1030"
     inkscape:label="cover copy"
     sodipodi:insensitive="true">
    <path
       d="m 197.26763,533.27667 0.0903,-0.42519 v -0.43465 l -0.0903,-0.42519 -0.17688,-0.39685 -0.25549,-0.3515 -0.32278,-0.29065 -0.37644,-0.21732 -0.4131,-0.13455 -0.43238,-0.0454 -0.432,0.0454 -0.41348,0.13455 -0.37644,0.21732 -0.32277,0.29065 -0.2555,0.3515 -0.17688,0.39685 -0.0903,0.42519 v 0.43465 l 0.0903,0.42519 0.17688,0.39686 0.2555,0.35149 0.32277,0.29102 0.37644,0.21733 0.41348,0.13417 0.432,0.0454 0.43238,-0.0454 0.4131,-0.13417 0.37644,-0.21733 0.32278,-0.29102 0.25549,-0.35149 z"
       style="fill:none;stroke:#ff0000;stroke-width:1.33333;stroke-linecap:round;stroke-linejoin:round;stroke-miterlimit:4;stroke-dasharray:none;stroke-opacity:1"
       id="path1024" />
    <path
       d="m 251.69283,477.56682 -0.17688,-0.39723 -0.2555,-0.3515 -0.32277,-0.29102 -0.37644,-0.21695 -0.4131,-0.13455 -0.43238,-0.0454 -0.432,0.0454 -0.41348,0.13455 -0.37644,0.21695 -0.32277,0.29102 -0.2555,0.3515 -0.17688,0.39723 -0.0903,0.42482 v 0.43464 l 0.0903,0.4252 0.17688,0.39685 0.2555,0.3515 0.32277,0.29102 0.37644,0.21732 0.41348,0.13418 0.432,0.0454 0.43238,-0.0454 0.4131,-0.13418 0.37644,-0.21732 0.32277,-0.29102 0.2555,-0.3515 0.17688,-0.39685 0.0903,-0.4252 v -0.43464 z"
       style="fill:none;stroke:#ff0000;stroke-width:1.33333;stroke-linecap:round;stroke-linejoin:round;stroke-miterlimit:4;stroke-dasharray:none;stroke-opacity:1"
       id="path1026" />
    <path
       d="M 48.455916,471.59479 H 252.5504 a 3.779528,3.779528 0 0 1 3.77953,3.77952 v 60.09449 a 3.779528,3.779528 0 0 1 -3.77953,3.77953 H 48.455916 a 3.779528,3.779528 0 0 1 -3.77953,-3.77953 v -60.09449 a 3.779528,3.779528 0 0 1 3.77953,-3.77952 z"
       style="fill:none;stroke:#ff0000;stroke-width:1.33333;stroke-linecap:round;stroke-linejoin:round;stroke-miterlimit:4;stroke-dasharray:none;stroke-opacity:1"
       id="path1028" />
  </g>
</svg>
