<?xml version="1.0" encoding="UTF-8" standalone="no"?>
<svg
   viewBox="0 0 793.7008 1122.5197"
   width="210mm"
   height="297mm"
   version="1.1"
   id="svg926"
   sodipodi:docname="wing_x2_fabgarage.svg"
   inkscape:version="1.1.2 (b8e25be8, 2022-02-05)"
   xmlns:inkscape="http://www.inkscape.org/namespaces/inkscape"
   xmlns:sodipodi="http://sodipodi.sourceforge.net/DTD/sodipodi-0.dtd"
   xmlns="http://www.w3.org/2000/svg"
   xmlns:svg="http://www.w3.org/2000/svg">
  <sodipodi:namedview
     id="namedview928"
     pagecolor="#ffffff"
     bordercolor="#111111"
     borderopacity="1"
     inkscape:pageshadow="0"
     inkscape:pageopacity="0"
     inkscape:pagecheckerboard="1"
     showgrid="false"
     units="mm"
     inkscape:document-units="mm"
     inkscape:zoom="0.55321971"
     inkscape:cx="396.76822"
     inkscape:cy="561.25983"
     inkscape:window-width="1312"
     inkscape:window-height="847"
     inkscape:window-x="0"
     inkscape:window-y="25"
     inkscape:window-maximized="0"
     inkscape:current-layer="g1430" />
  <desc
     id="desc824">wing_x2_v1 2.dxf - scale = 1.0, origin = (0.0, 0.0), method = auto</desc>
  <defs
     id="defs838">
    <marker
       id="DistanceX"
       orient="auto"
       refX="0"
       refY="0"
       style="overflow:visible">
      <path
         d="M 3,-3 -3,3 M 0,-5 V 5"
         style="stroke:#000000;stroke-width:0.5"
         id="path826" />
    </marker>
    <pattern
       id="Hatch"
       patternUnits="userSpaceOnUse"
       width="8"
       height="8"
       x="0"
       y="0">
      <path
         d="M8 4 l-4,4"
         stroke="#000000"
         stroke-width="0.25"
         linecap="square"
         id="path829" />
      <path
         d="M6 2 l-4,4"
         stroke="#000000"
         stroke-width="0.25"
         linecap="square"
         id="path831" />
      <path
         d="M4 0 l-4,4"
         stroke="#000000"
         stroke-width="0.25"
         linecap="square"
         id="path833" />
    </pattern>
    <symbol
       id="*MODEL_SPACE" />
    <symbol
       id="*PAPER_SPACE" />
  </defs>
  <g
     inkscape:groupmode="layer"
     inkscape:label="0"
     id="g924"
     sodipodi:insensitive="true"
     style="display:none">
    <path
       d="m 306.51285,246.48521 -0.43086,0.0567 -0.4097,0.14363 -0.3704,0.22677 -0.31521,0.30236 -0.24605,0.35528 -0.1663,0.40441 -0.0794,0.42708 0.0113,0.43465 0.10167,0.41953 0.18709,0.39307 0.26456,0.34393 0.33034,0.28347 0.38211,0.20787 0.4165,0.12473 0.43313,0.034 0.43087,-0.0567 0.4097,-0.1474 0.37077,-0.22677 0.31521,-0.29859 0.24605,-0.35905 0.1663,-0.40063 0.079,-0.42709 -0.011,-0.43464 -0.10167,-0.42331 -0.18708,-0.39307 -0.26457,-0.34394 -0.33033,-0.28346 -0.38211,-0.2041 -0.4165,-0.12472 z"
       style="fill:none;stroke:#000000"
       id="path840" />
    <path
       d="m 180.90415,263.14158 0.15579,-0.40441 0.068,-0.43087 -0.0228,-0.43464 -0.11244,-0.41953 -0.19729,-0.38551 -0.27357,-0.34016 -0.3377,-0.27212 -0.38713,-0.19654 -0.4198,-0.11339 -0.434,-0.0227 -0.42924,0.068 -0.4057,0.15496 -0.36449,0.23811 -0.30728,0.30614 -0.23667,0.36284 -0.15572,0.40818 -0.068,0.42709 0.0228,0.43465 0.1124,0.41953 0.19733,0.38929 0.27349,0.33637 0.33774,0.27213 0.38717,0.20031 0.41979,0.10961 0.43401,0.0227 0.42916,-0.068 0.40574,-0.15496 0.36446,-0.23433 0.30727,-0.30992 z"
       style="fill:none;stroke:#000000"
       id="path842" />
    <path
       d="m 200.27827,596.7378 0.14929,-0.40819 0.0612,-0.43086 -0.0295,-0.43465 -0.11906,-0.41575 -0.20333,-0.38551 -0.27893,-0.3326 -0.34205,-0.26834 -0.39005,-0.19276 -0.42142,-0.10583 -0.43464,-0.0151 -0.42784,0.0756 -0.40328,0.16251 -0.36094,0.24189 -0.30237,0.30993 -0.23093,0.37039 -0.14929,0.40819 -0.0612,0.43086 0.0299,0.43087 0.11868,0.41953 0.20334,0.38551 0.27893,0.3326 0.34205,0.26834 0.39004,0.18898 0.4218,0.10583 0.43427,0.0189 0.42784,-0.0756 0.40327,-0.16251 0.36095,-0.24189 0.30236,-0.31371 z"
       style="fill:none;stroke:#000000"
       id="path844" />
    <path
       d="m 542.0874,186.73088 -0.30614,-0.30992 -0.36283,-0.23811 -0.40441,-0.15874 -0.43087,-0.068 -0.43086,0.0227 -0.42331,0.10961 -0.38551,0.19654 -0.34016,0.27212 -0.27591,0.33638 -0.19653,0.38551 -0.11339,0.41953 -0.0265,0.43465 0.068,0.43086 0.15496,0.40441 0.23433,0.36662 0.30614,0.30614 0.36284,0.23811 0.4044,0.15874 0.43087,0.068 0.43465,-0.0189 0.41952,-0.11338 0.3893,-0.19654 0.33637,-0.27212 0.27591,-0.33638 0.19653,-0.38552 0.11717,-0.41952 0.0227,-0.43465 -0.068,-0.42708 -0.15119,-0.40819 z"
       style="fill:none;stroke:#000000"
       id="path846" />
    <path
       d="m 687.04201,209.76255 1.0139,193.73616 a 18.897638,18.897638 0 0 1 -18.79815,18.99627 l -62.27524,0.32702 a 18.897638,18.897638 0 0 1 -3.1774,-0.25212 L 477.92753,401.78864 a 18.897638,18.897638 0 0 0 -18.78354,8.13519 l -63.56274,94.98285 a 18.897638,18.897638 0 0 1 -6.86263,6.19102 L 209.2189,606.13767 a 18.897638,18.897638 0 0 1 -25.54386,-7.85839 L 159.03,551.73246 a 18.897638,18.897638 0 0 1 0.93091,-19.25525 l 34.30764,-51.96023 a 18.897638,18.897638 0 0 0 2.89476,-13.36881 L 165.79236,269.08083 a 18.897638,18.897638 0 0 1 15.70866,-21.62121 l 59.75694,-9.46481 a 18.897638,18.897638 0 0 0 6.27341,-2.17458 l 128.50813,-71.9264 a 18.897638,18.897638 0 0 1 7.97079,-2.36527 l 146.86137,-9.80547 a 18.897638,18.897638 0 0 1 6.50251,0.70006 l 136.01404,39.2827 a 18.897638,18.897638 0 0 1 13.6538,18.0567 z"
       style="fill:none;stroke:#000000"
       id="path848" />
    <path
       d="m 395.71386,413.7293 0.0941,0.4233 0.18028,0.39685 0.25852,0.3515 0.32542,0.28724 0.37833,0.21166 0.41424,0.13228 0.43275,0.0416 0.43163,-0.0491 0.41234,-0.13984 0.37455,-0.21921 0.32013,-0.29481 0.25247,-0.35149 0.1731,-0.40063 0.0869,-0.42331 -0.004,-0.43465 -0.0941,-0.42708 -0.18028,-0.39307 -0.25852,-0.3515 -0.32542,-0.28724 -0.37833,-0.21166 -0.41461,-0.13228 -0.43238,-0.0416 -0.43162,0.0491 -0.41235,0.13606 -0.37455,0.223 -0.32013,0.29102 -0.25247,0.35527 -0.17348,0.40063 -0.0865,0.42331 z"
       style="fill:none;stroke:#000000"
       id="path850" />
    <path
       d="m 532.13213,364.70882 0.0756,0.42709 0.16252,0.40441 0.24189,0.36283 0.30992,0.30237 0.37039,0.23055 0.40819,0.15118 0.42709,0.0605 0.43464,-0.0302 0.41953,-0.11717 0.38173,-0.20409 0.33638,-0.27591 0.26835,-0.34394 0.19276,-0.38929 0.10582,-0.41953 0.0151,-0.43464 -0.0756,-0.43087 -0.15874,-0.40063 -0.24189,-0.36283 -0.3137,-0.30236 -0.36662,-0.23056 -0.40818,-0.15118 -0.43087,-0.0605 -0.43465,0.0265 -0.41574,0.12094 -0.38552,0.20032 -0.33259,0.27968 -0.26835,0.34394 -0.19276,0.38929 -0.10582,0.41953 z"
       style="fill:none;stroke:#000000"
       id="path852" />
    <path
       d="m 393.68728,173.28332 -0.33373,0.27591 -0.26873,0.34393 -0.19162,0.3893 -0.10658,0.41952 -0.0163,0.43465 0.0741,0.43087 0.16139,0.40062 0.24189,0.36284 0.31181,0.30236 0.36775,0.23055 0.40781,0.15118 0.43011,0.0605 0.43351,-0.0265 0.41839,-0.12095 0.38438,-0.20409 0.33373,-0.27591 0.26835,-0.34393 0.192,-0.38929 0.10621,-0.41953 0.0166,-0.43465 -0.0741,-0.42708 -0.16139,-0.40441 -0.24189,-0.36284 -0.31181,-0.30236 -0.36775,-0.23055 -0.40781,-0.15118 -0.43049,-0.0605 -0.43351,0.0302 -0.41801,0.11717 z"
       style="fill:none;stroke:#000000"
       id="path854" />
    <path
       d="m 672.23544,211.8534 0.42708,0.0907 0.43465,-0.004 0.4233,-0.0907 0.39686,-0.18142 0.34771,-0.257 0.29103,-0.32504 0.21543,-0.37796 0.13228,-0.41196 0.0416,-0.43087 -0.0454,-0.43465 -0.13984,-0.41197 -0.21921,-0.37417 -0.29103,-0.32126 -0.35149,-0.25323 -0.40063,-0.17763 -0.42331,-0.0869 -0.43465,0.004 -0.4233,0.0907 -0.39685,0.18142 -0.3515,0.25701 -0.28724,0.32126 -0.21543,0.37795 -0.13229,0.41575 -0.0453,0.43087 0.0491,0.43464 0.13606,0.41197 0.21922,0.37417 0.29102,0.32126 0.35528,0.25323 z"
       style="fill:none;stroke:#000000"
       id="path856" />
    <path
       d="m 174.96031,548.23134 0.0613,-0.43086 -0.0296,-0.43465 -0.11905,-0.41953 -0.20334,-0.38173 -0.27878,-0.3326 -0.34197,-0.26834 -0.39028,-0.19276 -0.42153,-0.10582 -0.43419,-0.0151 -0.42811,0.0756 -0.40327,0.16252 -0.36068,0.24189 -0.30244,0.30992 -0.23097,0.37039 -0.14929,0.40819 -0.0613,0.42709 0.0296,0.43464 0.11902,0.41953 0.20337,0.38173 0.27878,0.33638 0.34197,0.26835 0.39028,0.18897 0.42145,0.10583 0.43431,0.0151 0.42807,-0.0718 0.40327,-0.16252 0.36068,-0.24189 0.30244,-0.3137 0.23089,-0.36662 z"
       style="fill:none;stroke:#000000"
       id="path858" />
    <path
       d="m 320.41282,224.41277 0.41462,0.13228 0.43237,0.0416 0.43163,-0.0491 0.41234,-0.13985 0.37455,-0.21921 0.32013,-0.2948 0.25247,-0.35528 0.1731,-0.39685 0.0869,-0.42709 -0.004,-0.43464 -0.0941,-0.42331 -0.18028,-0.39685 -0.25852,-0.34772 -0.32542,-0.28724 -0.37833,-0.21543 -0.41461,-0.12851 -0.43238,-0.0416 -0.43162,0.0491 -0.41235,0.13607 -0.37455,0.21921 -0.32013,0.2948 -0.25247,0.35528 -0.17348,0.39685 -0.0865,0.42708 0.004,0.43465 0.0941,0.42331 0.18028,0.39685 0.25852,0.34771 0.32542,0.28725 z"
       style="fill:none;stroke:#000000"
       id="path860" />
    <path
       d="m 276.548,453.0893 0.18709,0.39307 0.26457,0.34393 0.33033,0.27969 0.38211,0.20787 0.4165,0.12473 0.43351,0.034 0.43049,-0.0567 0.4097,-0.14362 0.37077,-0.22677 0.31522,-0.30237 0.24604,-0.35527 0.1663,-0.40441 0.0794,-0.42709 -0.0113,-0.43464 -0.10167,-0.41953 -0.18708,-0.39307 -0.26457,-0.34394 -0.33033,-0.28346 -0.38211,-0.20788 -0.4165,-0.12472 -0.43314,-0.034 -0.43086,0.0567 -0.4097,0.1474 -0.37078,0.22677 -0.31483,0.29858 -0.24643,0.35906 -0.1663,0.40063 -0.0794,0.42708 0.0117,0.43465 z"
       style="fill:none;stroke:#000000"
       id="path862" />
    <path
       d="m 156.75043,690.69686 0.32296,0.29102 0.37637,0.21694 0.41329,0.13455 0.43223,0.0454 0.43219,-0.0454 0.41325,-0.13455 0.37637,-0.21694 0.32296,-0.29102 0.25542,-0.3515 0.17677,-0.39723 0.0904,-0.42482 v -0.43464 l -0.0904,-0.4252 -0.17677,-0.39685 -0.25542,-0.3515 -0.32296,-0.29102 -0.37637,-0.21732 -0.41325,-0.13418 -0.43219,-0.0453 -0.43223,0.0453 -0.41329,0.13418 -0.37637,0.21732 -0.32296,0.29102 -0.25542,0.3515 -0.17677,0.39685 -0.0904,0.4252 v 0.43464 l 0.0904,0.42482 0.17677,0.39723 z"
       style="fill:none;stroke:#000000"
       id="path864" />
    <path
       d="m 214.26517,633.48993 -0.32278,-0.29103 -0.37644,-0.21732 -0.41348,-0.13417 -0.432,-0.0454 -0.43238,0.0454 -0.4131,0.13417 -0.37644,0.21732 -0.32277,0.29103 -0.2555,0.35149 -0.17688,0.39685 -0.0903,0.4252 v 0.43464 l 0.0903,0.4252 0.17688,0.39685 0.2555,0.3515 0.32277,0.29064 0.37644,0.21733 0.4131,0.13455 0.43238,0.0454 0.432,-0.0454 0.41348,-0.13455 0.37644,-0.21733 0.32278,-0.29064 0.25549,-0.3515 0.17688,-0.39685 0.0903,-0.4252 v -0.43464 l -0.0903,-0.4252 -0.17688,-0.39685 z"
       style="fill:none;stroke:#000000"
       id="path866" />
    <path
       d="m 321.0663,964.65598 -0.16138,-0.4035 -0.24189,-0.361 -0.31182,-0.3029 -0.36774,-0.2314 -0.40781,-0.1499 -0.43011,-0.062 -0.43352,0.029 -0.41801,0.1185 -0.38438,0.2028 -0.33411,0.2783 -0.26835,0.3416 -0.192,0.3899 -0.1062,0.4214 -0.0166,0.4343 0.0741,0.4282 0.16176,0.4034 0.24151,0.3611 0.31181,0.3028 0.36775,0.2315 0.40781,0.1499 0.43011,0.062 0.43389,-0.029 0.41802,-0.1185 0.38438,-0.2028 0.33373,-0.2783 0.26872,-0.3416 0.19163,-0.39 0.10658,-0.4213 0.0166,-0.4343 z"
       style="fill:none;stroke:#000000"
       id="path868" />
    <path
       d="m 155.46063,628.26662 h 204.09449 a 3.779528,3.779528 0 0 1 3.77953,3.77953 v 60.09448 a 3.779528,3.779528 0 0 1 -3.77953,3.77953 H 155.46063 a 3.779528,3.779528 0 0 1 -3.77953,-3.77953 v -60.09448 a 3.779528,3.779528 0 0 1 3.77953,-3.77953 z"
       style="fill:none;stroke:#000000"
       id="path870" />
    <path
       d="m 444.29364,958.66538 0.40781,0.15 0.43049,0.062 0.43351,-0.029 0.41802,-0.1184 0.38437,-0.2028 0.33374,-0.2784 0.26872,-0.3416 0.19162,-0.39 0.10659,-0.4213 0.0163,-0.4343 -0.0741,-0.4282 -0.16139,-0.4034 -0.24189,-0.3611 -0.31181,-0.3028 -0.36775,-0.2314 -0.40781,-0.1499 -0.43011,-0.062 -0.43351,0.029 -0.41839,0.1186 -0.38438,0.2028 -0.33373,0.2783 -0.26835,0.3416 -0.192,0.39 -0.1062,0.4213 -0.0166,0.4342 0.0741,0.4283 0.16138,0.4033 0.24189,0.3611 0.31181,0.3029 z"
       style="fill:none;stroke:#000000"
       id="path872" />
    <path
       d="m 301.20677,942.47458 -0.30614,-0.3084 -0.36359,-0.2381 -0.40516,-0.1568 -0.42936,-0.07 -0.43389,0.021 -0.42028,0.1111 -0.38778,0.1958 -0.33865,0.2721 -0.27477,0.3368 -0.19842,0.3866 -0.11415,0.4195 -0.0242,0.4339 0.0665,0.4294 0.1542,0.4063 0.23546,0.3655 0.30615,0.308 0.36397,0.2381 0.40478,0.1572 0.42898,0.07 0.43427,-0.022 0.42028,-0.1107 0.38778,-0.1962 0.33865,-0.2721 0.27477,-0.3367 0.19842,-0.3867 0.11414,-0.4191 0.0242,-0.4339 -0.0665,-0.4298 -0.1542,-0.4063 z"
       style="fill:none;stroke:#000000"
       id="path874" />
    <path
       d="m 167.39419,919.86588 h -0.43453 l -0.42463,0.093 -0.39602,0.1791 -0.35029,0.257 -0.28913,0.3247 -0.21529,0.3772 -0.13213,0.4142 -0.0432,0.4324 0.0477,0.432 0.13652,0.4123 0.21921,0.3753 0.2925,0.3217 0.35297,0.2536 0.39791,0.1746 0.4255,0.088 h 0.43457 l 0.42463,-0.093 0.39605,-0.1788 0.35025,-0.2574 0.2891,-0.3243 0.21528,-0.3775 0.13213,-0.4139 0.0432,-0.4327 -0.0477,-0.4317 -0.1364,-0.4127 -0.21933,-0.3753 -0.29246,-0.3213 -0.35285,-0.2536 -0.39795,-0.1746 z"
       style="fill:none;stroke:#000000"
       id="path876" />
    <path
       d="m 518.39922,911.33958 0.43237,0.042 0.43162,-0.049 0.41235,-0.138 0.37455,-0.2203 0.32013,-0.2937 0.25247,-0.3537 0.17348,-0.3988 0.0865,-0.4256 -0.004,-0.4346 -0.0941,-0.4244 -0.18028,-0.3954 -0.25852,-0.3492 -0.32542,-0.288 -0.37833,-0.2139 -0.41461,-0.1308 -0.43238,-0.042 -0.43162,0.049 -0.41235,0.1379 -0.37455,0.2204 -0.32013,0.2936 -0.25247,0.3538 -0.1731,0.3987 -0.0869,0.4256 0.004,0.4346 0.0941,0.4245 0.18028,0.3953 0.25852,0.3493 0.32542,0.288 0.37833,0.2139 z"
       style="fill:none;stroke:#000000"
       id="path878" />
    <path
       d="m 534.38095,885.12178 0.37039,-0.2268 0.31748,-0.2993 0.24567,-0.3583 0.1663,-0.4014 0.0794,-0.4271 -0.0113,-0.4346 -0.10205,-0.4226 -0.18519,-0.3923 -0.26457,-0.3447 -0.3326,-0.2823 -0.38173,-0.2071 -0.41575,-0.1236 -0.43464,-0.034 -0.43087,0.057 -0.40819,0.1451 -0.37039,0.2272 -0.31748,0.2989 -0.24567,0.3583 -0.1663,0.4014 -0.0794,0.4275 0.0113,0.4342 0.10204,0.4226 0.18898,0.3923 0.26457,0.3447 0.32882,0.2823 0.38173,0.2075 0.41575,0.1232 0.43464,0.034 0.43087,-0.057 z"
       style="fill:none;stroke:#000000"
       id="path880" />
    <path
       d="m 658.99575,869.07358 -0.068,0.4289 0.0227,0.4343 0.11338,0.4195 0.19654,0.3874 0.27212,0.3376 0.34016,0.2736 0.38551,0.1973 0.41953,0.1126 0.43465,0.023 0.42708,-0.068 0.40819,-0.1558 0.36284,-0.2366 0.30992,-0.3072 0.23433,-0.3648 0.15496,-0.4055 0.068,-0.4294 -0.0227,-0.4338 -0.1096,-0.42 -0.20032,-0.38697 -0.27212,-0.33789 -0.33638,-0.27326 -0.38929,-0.19729 -0.41953,-0.11263 -0.43465,-0.0227 -0.42708,0.068 -0.40819,0.15572 -0.36284,0.2366 -0.30614,0.30727 -0.23811,0.36435 z"
       style="fill:none;stroke:#000000"
       id="path882" />
    <path
       d="m 307.00381,768.9652 0.33374,-0.27817 0.26872,-0.34167 0.192,-0.39005 0.1062,-0.42104 0.0166,-0.43427 -0.0741,-0.42859 -0.16139,-0.40328 -0.24189,-0.36094 -0.31181,-0.30312 -0.36775,-0.23131 -0.40781,-0.14967 -0.43049,-0.062 -0.43351,0.0287 -0.41802,0.11868 -0.38437,0.20296 -0.33374,0.27817 -0.26872,0.34167 -0.19162,0.39005 -0.10658,0.42104 -0.0166,0.43427 0.0741,0.42822 0.16177,0.40365 0.24189,0.36095 0.31143,0.30274 0.36813,0.23168 0.40781,0.14967 0.43011,0.062 0.43351,-0.0291 0.41839,-0.1183 z"
       style="fill:none;stroke:#000000"
       id="path884" />
    <path
       d="m 434.04885,759.11122 0.0166,-0.43427 -0.0741,-0.42822 -0.16176,-0.40328 -0.24189,-0.36094 -0.31143,-0.30312 -0.36775,-0.23131 -0.40819,-0.15004 -0.43011,-0.0616 -0.43351,0.0287 -0.41802,0.11868 -0.38438,0.20296 -0.33373,0.27818 -0.26872,0.34167 -0.19162,0.38966 -0.10659,0.42142 -0.0166,0.43427 0.0741,0.42822 0.16177,0.40365 0.24189,0.36095 0.31143,0.30274 0.36775,0.23168 0.40819,0.14967 0.43011,0.062 0.43351,-0.0291 0.41801,-0.11829 0.38438,-0.20296 0.33373,-0.27818 0.26873,-0.34167 0.19162,-0.39005 z"
       style="fill:none;stroke:#000000"
       id="path886" />
    <path
       d="m 236.65962,749.99462 0.33865,-0.27213 0.27477,-0.33675 0.19842,-0.38665 0.11415,-0.41915 0.0242,-0.43389 -0.0665,-0.42973 -0.15459,-0.4063 -0.23508,-0.3651 -0.30614,-0.30841 -0.36397,-0.23773 -0.40517,-0.15723 -0.42897,-0.0696 -0.43389,0.0212 -0.42029,0.11112 -0.38778,0.19578 -0.33864,0.2725 -0.27477,0.33676 -0.19843,0.38627 -0.11414,0.41952 -0.0242,0.43389 0.0665,0.42936 0.1542,0.4063 0.23547,0.36548 0.30614,0.30841 0.36359,0.23773 0.40517,0.15723 0.42897,0.0695 0.43427,-0.0212 0.4199,-0.11112 z"
       style="fill:none;stroke:#000000"
       id="path888" />
    <path
       d="m 166.37689,725.57811 0.42463,-0.0926 0.39609,-0.17878 0.35022,-0.257 0.28913,-0.32466 0.21528,-0.37758 0.13213,-0.41386 0.0431,-0.43238 -0.0477,-0.43199 -0.1364,-0.41273 -0.21933,-0.37493 -0.29242,-0.32164 -0.35289,-0.2536 -0.39795,-0.17462 -0.42554,-0.0881 -0.43457,0.002 -0.42463,0.0926 -0.39601,0.17877 -0.35029,0.25738 -0.2891,0.32429 -0.21528,0.37757 -0.13213,0.41386 -0.0432,0.43238 0.0477,0.432 0.13644,0.41272 0.21921,0.37531 0.29254,0.32126 0.35293,0.25361 0.39795,0.17461 0.42546,0.0881 z"
       style="fill:none;stroke:#000000"
       id="path890" />
    <path
       d="m 443.48293,716.62177 -0.37833,-0.21392 -0.41424,-0.13077 -0.43275,-0.0416 -0.43162,0.0491 -0.41235,0.13796 -0.37455,0.22034 -0.32013,0.29367 -0.25247,0.35377 -0.1731,0.39874 -0.0869,0.42557 0.004,0.43465 0.0941,0.42444 0.18028,0.39534 0.25852,0.34923 0.32542,0.288 0.37833,0.21392 0.41461,0.13077 0.43238,0.0416 0.43163,-0.0491 0.41234,-0.13795 0.37455,-0.22035 0.32013,-0.29367 0.25247,-0.35376 0.17348,-0.39874 0.0865,-0.42558 -0.004,-0.43464 -0.0941,-0.42444 -0.18028,-0.39534 -0.25852,-0.34923 z"
       style="fill:none;stroke:#000000"
       id="path892" />
    <path
       d="m 630.50189,675.63733 0.40441,-0.1561 0.36284,-0.2366 0.30992,-0.30727 0.23433,-0.36435 0.15874,-0.40592 0.068,-0.42898 -0.0227,-0.43388 -0.11338,-0.41991 -0.19654,-0.38702 -0.2759,-0.33789 -0.33638,-0.27364 -0.38929,-0.19729 -0.41953,-0.11225 -0.43087,-0.0227 -0.43086,0.0676 -0.40441,0.15572 -0.36662,0.23698 -0.30614,0.30727 -0.23811,0.36435 -0.15496,0.40554 -0.068,0.42936 0.0227,0.43388 0.11338,0.41991 0.19654,0.38702 0.27212,0.33789 0.34016,0.27364 0.38551,0.19729 0.41953,0.11225 0.43465,0.0231 z"
       style="fill:none;stroke:#000000"
       id="path894" />
    <path
       d="m 560.75071,681.33459 0.41953,0.12359 0.43087,0.034 0.43086,-0.0567 0.41197,-0.14513 0.37039,-0.22715 0.3137,-0.29896 0.24567,-0.3583 0.1663,-0.40139 0.0794,-0.42746 -0.0113,-0.43427 -0.10204,-0.42255 -0.1852,-0.39232 -0.26457,-0.34469 -0.33259,-0.28233 -0.38174,-0.20712 -0.41575,-0.12359 -0.43464,-0.034 -0.43087,0.0567 -0.40819,0.14513 -0.37039,0.22715 -0.3137,0.29896 -0.24567,0.3583 -0.17008,0.40139 -0.0756,0.42708 0.0113,0.43465 0.0983,0.42255 0.18897,0.39232 0.26457,0.34469 0.32882,0.28233 z"
       style="fill:none;stroke:#000000"
       id="path896" />
    <path
       d="m 466.1412,626.76161 -0.42822,0.0748 -0.40328,0.16176 -0.36056,0.24265 -0.30237,0.31181 -0.23093,0.36812 -0.14966,0.40819 -0.0612,0.43011 0.0299,0.43389 0.11905,0.41802 0.20334,0.384 0.27855,0.33335 0.34205,0.26797 0.39042,0.19124 0.42142,0.10583 0.43427,0.0159 0.42822,-0.0744 0.4029,-0.16214 0.36094,-0.24265 0.30236,-0.31181 0.23093,-0.36813 0.14929,-0.40819 0.0612,-0.43011 -0.0295,-0.43351 -0.11905,-0.41801 -0.20334,-0.384 -0.27893,-0.33374 -0.34205,-0.26796 -0.39004,-0.19125 -0.42142,-0.10582 z"
       style="fill:none;stroke:#000000"
       id="path898" />
    <path
       d="m 668.08552,585.92079 0.35905,-0.24189 0.30236,-0.30992 0.23055,-0.37039 0.15118,-0.40819 0.0605,-0.42709 -0.0302,-0.43464 -0.12094,-0.41953 -0.20032,-0.38173 -0.27968,-0.33638 -0.34394,-0.26835 -0.38929,-0.18897 -0.41953,-0.10583 -0.43465,-0.0151 -0.43086,0.0718 -0.40063,0.16252 -0.36284,0.24189 -0.30236,0.3137 -0.23055,0.36662 -0.1474,0.40819 -0.0642,0.43086 0.0302,0.43465 0.12095,0.41952 0.20409,0.38174 0.27591,0.3326 0.34393,0.26834 0.3893,0.19276 0.4233,0.10582 0.43465,0.0151 0.42708,-0.0756 z"
       style="fill:none;stroke:#000000"
       id="path900" />
    <path
       d="m 643.28048,537.27071 0.23055,-0.37039 0.1474,-0.40819 0.0643,-0.43086 -0.0302,-0.43087 -0.12094,-0.41953 -0.2041,-0.38551 -0.2759,-0.3326 -0.34394,-0.26835 -0.38929,-0.18897 -0.42331,-0.10583 -0.43086,-0.0189 -0.43087,0.0756 -0.40063,0.16252 -0.36283,0.24189 -0.30237,0.3137 -0.23055,0.36662 -0.1474,0.40819 -0.0643,0.43086 0.0302,0.43465 0.12094,0.41575 0.20032,0.38551 0.27968,0.3326 0.34394,0.26834 0.38929,0.19276 0.41953,0.10583 0.43464,0.0151 0.43087,-0.0756 0.40063,-0.16252 0.36283,-0.24189 z"
       style="fill:none;stroke:#000000"
       id="path902" />
    <path
       d="m 628.88047,495.53717 -0.32503,-0.29102 -0.37418,-0.21544 -0.41575,-0.13606 -0.43086,-0.0453 -0.43087,0.0453 -0.41575,0.13606 -0.37417,0.21544 -0.32504,0.29102 -0.25323,0.3515 -0.17763,0.39685 -0.0907,0.42708 v 0.43087 l 0.0907,0.42709 0.17763,0.39685 0.25323,0.35149 0.32504,0.29103 0.37417,0.21543 0.41575,0.13606 0.43087,0.0454 0.43086,-0.0454 0.41575,-0.13606 0.37418,-0.21543 0.32503,-0.29103 0.25323,-0.35149 0.17764,-0.39685 0.0907,-0.42709 v -0.43087 l -0.0907,-0.42708 -0.17764,-0.39685 z"
       style="fill:none;stroke:#000000"
       id="path904" />
    <path
       d="m 592.52284,895.98838 -128.50718,71.9277 a 18.897638,18.897638 0 0 1 -7.97091,2.3653 l -146.86303,9.8061 a 18.897638,18.897638 0 0 1 -6.50279,-0.7002 l -136.01049,-39.2834 a 18.897638,18.897638 0 0 1 -13.65358,-18.0566 L 152.00047,728.3108 a 18.897638,18.897638 0 0 1 18.7984,-18.99632 l 62.27406,-0.32616 a 18.897638,18.897638 0 0 1 3.17675,0.25205 l 125.87825,20.77862 a 18.897638,18.897638 0 0 0 18.78307,-8.13512 l 63.56293,-94.9815 a 18.897638,18.897638 0 0 1 6.86241,-6.19082 l 179.49878,-95.04137 a 18.897638,18.897638 0 0 1 25.54395,7.85822 l 24.64608,46.54809 a 18.897638,18.897638 0 0 1 -0.93071,19.25513 l -34.30616,51.95956 a 18.897638,18.897638 0 0 0 -2.89462,13.36856 l 31.37073,198.06812 a 18.897638,18.897638 0 0 1 -15.70883,21.62122 l -59.75896,9.4646 a 18.897638,18.897638 0 0 0 -6.27376,2.1747 z"
       style="fill:none;stroke:#000000"
       id="path906" />
    <path
       d="m 683.5589,443.54221 0.17764,-0.39685 0.0907,-0.42331 v -0.43464 l -0.0907,-0.42709 -0.17764,-0.39685 -0.25323,-0.3515 -0.32504,-0.29102 -0.37417,-0.21543 -0.41575,-0.13607 -0.43087,-0.0453 -0.43086,0.0453 -0.41575,0.13607 -0.37417,0.21543 -0.32504,0.29102 -0.25323,0.3515 -0.17764,0.39685 -0.0907,0.42709 v 0.43464 l 0.0907,0.42331 0.17764,0.39685 0.25323,0.3515 0.32504,0.29102 0.37417,0.21543 0.41575,0.13607 0.43086,0.0453 0.43087,-0.0453 0.41575,-0.13607 0.37417,-0.21543 0.32504,-0.29102 z"
       style="fill:none;stroke:#000000"
       id="path908" />
    <path
       d="m 673.25213,406.32142 -0.39307,0.18142 -0.3515,0.25701 -0.29102,0.32504 -0.21544,0.37795 -0.1285,0.41197 -0.0453,0.43464 0.0491,0.43087 0.13606,0.41197 0.21922,0.37417 0.29102,0.32126 0.35528,0.25323 0.39685,0.17764 0.4233,0.0869 0.43465,-0.004 0.42709,-0.0907 0.39685,-0.17764 0.34771,-0.26079 0.29103,-0.32126 0.21543,-0.37795 0.13228,-0.41575 0.0416,-0.43086 -0.0491,-0.43465 -0.13606,-0.41197 -0.21921,-0.37417 -0.29103,-0.32126 -0.35149,-0.25323 -0.40063,-0.17386 -0.42331,-0.0907 -0.43464,0.004 z"
       style="fill:none;stroke:#000000"
       id="path910" />
    <path
       d="m 604.8389,385.61717 0.41953,-0.11339 0.38929,-0.19653 0.34016,-0.27213 0.27212,-0.33638 0.20032,-0.38551 0.11338,-0.41952 0.0227,-0.43465 -0.0643,-0.42709 -0.15496,-0.40819 -0.23433,-0.36661 -0.30614,-0.30614 -0.36662,-0.23811 -0.40441,-0.15874 -0.42709,-0.068 -0.43464,0.0227 -0.41953,0.10961 -0.38929,0.19654 -0.33638,0.27212 -0.2759,0.33638 -0.20032,0.38551 -0.11338,0.41953 -0.0227,0.43465 0.0643,0.43086 0.15496,0.40441 0.23433,0.36661 0.30614,0.30615 0.36662,0.23811 0.40441,0.15874 0.42708,0.068 z"
       style="fill:none;stroke:#000000"
       id="path912" />
    <path
       d="m 688.37402,439.66819 v 60.09449 a 3.779528,3.779528 0 0 1 -3.77953,3.77953 H 480.5 a 3.779528,3.779528 0 0 1 -3.77952,-3.77953 V 439.66819 A 3.779528,3.779528 0 0 1 480.5,435.88867 h 204.09449 a 3.779528,3.779528 0 0 1 3.77953,3.77952 z"
       style="fill:none;stroke:#000000"
       id="path914" />
    <path
       d="m 408.14284,370.91481 -0.43351,0.0302 -0.41802,0.11716 -0.38438,0.20409 -0.33373,0.27969 -0.26872,0.34016 -0.19163,0.38929 -0.10658,0.4233 -0.0166,0.43465 0.0741,0.42709 0.16176,0.40441 0.24189,0.35905 0.31144,0.30236 0.36774,0.23056 0.40819,0.15118 0.43011,0.0642 0.43351,-0.0302 0.41802,-0.11716 0.38438,-0.2041 0.33373,-0.27968 0.26872,-0.34016 0.19163,-0.38929 0.10658,-0.42331 0.0166,-0.43464 -0.0741,-0.42709 -0.16176,-0.40441 -0.24189,-0.35906 -0.31144,-0.30236 -0.36774,-0.23433 -0.40819,-0.1474 z"
       style="fill:none;stroke:#000000"
       id="path916" />
    <path
       d="m 520.63405,164.5375 -0.41802,0.11716 -0.38437,0.2041 -0.33374,0.27968 -0.26872,0.34016 -0.19162,0.38929 -0.10659,0.42331 -0.0166,0.43464 0.0745,0.42709 0.16139,0.40441 0.24189,0.35905 0.31181,0.30236 0.36775,0.23434 0.40781,0.1474 0.43011,0.0643 0.43351,-0.0302 0.41801,-0.11716 0.38552,-0.2041 0.33259,-0.27968 0.26835,-0.34016 0.19276,-0.38929 0.10582,-0.42331 0.0151,-0.43464 -0.0718,-0.42709 -0.16252,-0.40441 -0.24189,-0.35905 -0.30992,-0.30237 -0.36926,-0.23433 -0.40781,-0.1474 -0.43011,-0.0642 z"
       style="fill:none;stroke:#000000"
       id="path918" />
    <path
       d="m 212.10025,458.71701 0.068,-0.42708 -0.0227,-0.43465 -0.11225,-0.41953 -0.19729,-0.38929 -0.27364,-0.33638 -0.33789,-0.27212 -0.38702,-0.20032 -0.41991,-0.1096 -0.43389,-0.0227 -0.42935,0.068 -0.40554,0.15496 -0.36435,0.23433 -0.30728,0.30992 -0.23697,0.36284 -0.15572,0.40441 -0.068,0.43086 0.0231,0.43465 0.11225,0.41953 0.19729,0.38551 0.27364,0.34016 0.33751,0.27212 0.38741,0.19654 0.41952,0.11338 0.43427,0.0227 0.42898,-0.068 0.40592,-0.15496 0.36434,-0.23811 0.30728,-0.30614 0.2366,-0.36662 z"
       style="fill:none;stroke:#000000"
       id="path920" />
    <path
       d="m 372.04721,504.13182 0.27893,0.33259 0.34205,0.26835 0.39005,0.19276 0.42142,0.10582 0.43426,0.0151 0.42822,-0.0756 0.40328,-0.15874 0.36057,-0.24567 0.30236,-0.30992 0.23093,-0.37039 0.14967,-0.40819 0.0612,-0.42709 -0.0299,-0.43464 -0.11906,-0.41953 -0.20334,-0.38173 -0.27855,-0.3326 -0.34204,-0.26835 -0.39043,-0.19275 -0.42142,-0.10583 -0.43427,-0.0151 -0.42821,0.0756 -0.4029,0.15874 -0.36095,0.24567 -0.30236,0.30992 -0.23093,0.3704 -0.14929,0.4044 -0.0612,0.43087 0.0295,0.43465 0.11906,0.41952 z"
       style="fill:none;stroke:#000000"
       id="path922" />
  </g>
  <g
     inkscape:groupmode="layer"
     inkscape:label="fabgarage"
     id="g1430"
     style="display:inline">
    <path
       d="m 306.51285,246.48521 -0.43086,0.0567 -0.4097,0.14363 -0.3704,0.22677 -0.31521,0.30236 -0.24605,0.35528 -0.1663,0.40441 -0.0794,0.42708 0.0113,0.43465 0.10167,0.41953 0.18709,0.39307 0.26456,0.34393 0.33034,0.28347 0.38211,0.20787 0.4165,0.12473 0.43313,0.034 0.43087,-0.0567 0.4097,-0.1474 0.37077,-0.22677 0.31521,-0.29859 0.24605,-0.35905 0.1663,-0.40063 0.079,-0.42709 -0.011,-0.43464 -0.10167,-0.42331 -0.18708,-0.39307 -0.26457,-0.34394 -0.33033,-0.28346 -0.38211,-0.2041 -0.4165,-0.12472 z"
       style="fill:none;stroke:#ff0000;stroke-width:0.26666667;stroke-miterlimit:4;stroke-dasharray:none;stroke-linecap:round;stroke-linejoin:round;stroke-opacity:1"
       id="path1346" />
    <path
       d="m 180.90415,263.14158 0.15579,-0.40441 0.068,-0.43087 -0.0228,-0.43464 -0.11244,-0.41953 -0.19729,-0.38551 -0.27357,-0.34016 -0.3377,-0.27212 -0.38713,-0.19654 -0.4198,-0.11339 -0.434,-0.0227 -0.42924,0.068 -0.4057,0.15496 -0.36449,0.23811 -0.30728,0.30614 -0.23667,0.36284 -0.15572,0.40818 -0.068,0.42709 0.0228,0.43465 0.1124,0.41953 0.19733,0.38929 0.27349,0.33637 0.33774,0.27213 0.38717,0.20031 0.41979,0.10961 0.43401,0.0227 0.42916,-0.068 0.40574,-0.15496 0.36446,-0.23433 0.30727,-0.30992 z"
       style="fill:none;stroke:#ff0000;stroke-width:0.26666667;stroke-miterlimit:4;stroke-dasharray:none;stroke-linecap:round;stroke-linejoin:round;stroke-opacity:1"
       id="path1348" />
    <path
       d="m 200.27827,596.7378 0.14929,-0.40819 0.0612,-0.43086 -0.0295,-0.43465 -0.11906,-0.41575 -0.20333,-0.38551 -0.27893,-0.3326 -0.34205,-0.26834 -0.39005,-0.19276 -0.42142,-0.10583 -0.43464,-0.0151 -0.42784,0.0756 -0.40328,0.16251 -0.36094,0.24189 -0.30237,0.30993 -0.23093,0.37039 -0.14929,0.40819 -0.0612,0.43086 0.0299,0.43087 0.11868,0.41953 0.20334,0.38551 0.27893,0.3326 0.34205,0.26834 0.39004,0.18898 0.4218,0.10583 0.43427,0.0189 0.42784,-0.0756 0.40327,-0.16251 0.36095,-0.24189 0.30236,-0.31371 z"
       style="fill:none;stroke:#ff0000;stroke-width:0.26666667;stroke-miterlimit:4;stroke-dasharray:none;stroke-linecap:round;stroke-linejoin:round;stroke-opacity:1"
       id="path1350" />
    <path
       d="m 542.0874,186.73088 -0.30614,-0.30992 -0.36283,-0.23811 -0.40441,-0.15874 -0.43087,-0.068 -0.43086,0.0227 -0.42331,0.10961 -0.38551,0.19654 -0.34016,0.27212 -0.27591,0.33638 -0.19653,0.38551 -0.11339,0.41953 -0.0265,0.43465 0.068,0.43086 0.15496,0.40441 0.23433,0.36662 0.30614,0.30614 0.36284,0.23811 0.4044,0.15874 0.43087,0.068 0.43465,-0.0189 0.41952,-0.11338 0.3893,-0.19654 0.33637,-0.27212 0.27591,-0.33638 0.19653,-0.38552 0.11717,-0.41952 0.0227,-0.43465 -0.068,-0.42708 -0.15119,-0.40819 z"
       style="fill:none;stroke:#ff0000;stroke-width:0.26666667;stroke-miterlimit:4;stroke-dasharray:none;stroke-linecap:round;stroke-linejoin:round;stroke-opacity:1"
       id="path1352" />
    <path
       d="m 687.04201,209.76255 1.0139,193.73616 a 18.897638,18.897638 0 0 1 -18.79815,18.99627 l -62.27524,0.32702 a 18.897638,18.897638 0 0 1 -3.1774,-0.25212 L 477.92753,401.78864 a 18.897638,18.897638 0 0 0 -18.78354,8.13519 l -63.56274,94.98285 a 18.897638,18.897638 0 0 1 -6.86263,6.19102 L 209.2189,606.13767 a 18.897638,18.897638 0 0 1 -25.54386,-7.85839 L 159.03,551.73246 a 18.897638,18.897638 0 0 1 0.93091,-19.25525 l 34.30764,-51.96023 a 18.897638,18.897638 0 0 0 2.89476,-13.36881 L 165.79236,269.08083 a 18.897638,18.897638 0 0 1 15.70866,-21.62121 l 59.75694,-9.46481 a 18.897638,18.897638 0 0 0 6.27341,-2.17458 l 128.50813,-71.9264 a 18.897638,18.897638 0 0 1 7.97079,-2.36527 l 146.86137,-9.80547 a 18.897638,18.897638 0 0 1 6.50251,0.70006 l 136.01404,39.2827 a 18.897638,18.897638 0 0 1 13.6538,18.0567 z"
       style="fill:none;stroke:#ff0000;stroke-width:0.26666667;stroke-miterlimit:4;stroke-dasharray:none;stroke-linecap:round;stroke-linejoin:round;stroke-opacity:1"
       id="path1354" />
    <path
       d="m 395.71386,413.7293 0.0941,0.4233 0.18028,0.39685 0.25852,0.3515 0.32542,0.28724 0.37833,0.21166 0.41424,0.13228 0.43275,0.0416 0.43163,-0.0491 0.41234,-0.13984 0.37455,-0.21921 0.32013,-0.29481 0.25247,-0.35149 0.1731,-0.40063 0.0869,-0.42331 -0.004,-0.43465 -0.0941,-0.42708 -0.18028,-0.39307 -0.25852,-0.3515 -0.32542,-0.28724 -0.37833,-0.21166 -0.41461,-0.13228 -0.43238,-0.0416 -0.43162,0.0491 -0.41235,0.13606 -0.37455,0.223 -0.32013,0.29102 -0.25247,0.35527 -0.17348,0.40063 -0.0865,0.42331 z"
       style="fill:none;stroke:#ff0000;stroke-width:0.26666667;stroke-miterlimit:4;stroke-dasharray:none;stroke-linecap:round;stroke-linejoin:round;stroke-opacity:1"
       id="path1356" />
    <path
       d="m 532.13213,364.70882 0.0756,0.42709 0.16252,0.40441 0.24189,0.36283 0.30992,0.30237 0.37039,0.23055 0.40819,0.15118 0.42709,0.0605 0.43464,-0.0302 0.41953,-0.11717 0.38173,-0.20409 0.33638,-0.27591 0.26835,-0.34394 0.19276,-0.38929 0.10582,-0.41953 0.0151,-0.43464 -0.0756,-0.43087 -0.15874,-0.40063 -0.24189,-0.36283 -0.3137,-0.30236 -0.36662,-0.23056 -0.40818,-0.15118 -0.43087,-0.0605 -0.43465,0.0265 -0.41574,0.12094 -0.38552,0.20032 -0.33259,0.27968 -0.26835,0.34394 -0.19276,0.38929 -0.10582,0.41953 z"
       style="fill:none;stroke:#ff0000;stroke-width:0.26666667;stroke-miterlimit:4;stroke-dasharray:none;stroke-linecap:round;stroke-linejoin:round;stroke-opacity:1"
       id="path1358" />
    <path
       d="m 393.68728,173.28332 -0.33373,0.27591 -0.26873,0.34393 -0.19162,0.3893 -0.10658,0.41952 -0.0163,0.43465 0.0741,0.43087 0.16139,0.40062 0.24189,0.36284 0.31181,0.30236 0.36775,0.23055 0.40781,0.15118 0.43011,0.0605 0.43351,-0.0265 0.41839,-0.12095 0.38438,-0.20409 0.33373,-0.27591 0.26835,-0.34393 0.192,-0.38929 0.10621,-0.41953 0.0166,-0.43465 -0.0741,-0.42708 -0.16139,-0.40441 -0.24189,-0.36284 -0.31181,-0.30236 -0.36775,-0.23055 -0.40781,-0.15118 -0.43049,-0.0605 -0.43351,0.0302 -0.41801,0.11717 z"
       style="fill:none;stroke:#ff0000;stroke-width:0.26666667;stroke-miterlimit:4;stroke-dasharray:none;stroke-linecap:round;stroke-linejoin:round;stroke-opacity:1"
       id="path1360" />
    <path
       d="m 672.23544,211.8534 0.42708,0.0907 0.43465,-0.004 0.4233,-0.0907 0.39686,-0.18142 0.34771,-0.257 0.29103,-0.32504 0.21543,-0.37796 0.13228,-0.41196 0.0416,-0.43087 -0.0454,-0.43465 -0.13984,-0.41197 -0.21921,-0.37417 -0.29103,-0.32126 -0.35149,-0.25323 -0.40063,-0.17763 -0.42331,-0.0869 -0.43465,0.004 -0.4233,0.0907 -0.39685,0.18142 -0.3515,0.25701 -0.28724,0.32126 -0.21543,0.37795 -0.13229,0.41575 -0.0453,0.43087 0.0491,0.43464 0.13606,0.41197 0.21922,0.37417 0.29102,0.32126 0.35528,0.25323 z"
       style="fill:none;stroke:#ff0000;stroke-width:0.26666667;stroke-miterlimit:4;stroke-dasharray:none;stroke-linecap:round;stroke-linejoin:round;stroke-opacity:1"
       id="path1362" />
    <path
       d="m 174.96031,548.23134 0.0613,-0.43086 -0.0296,-0.43465 -0.11905,-0.41953 -0.20334,-0.38173 -0.27878,-0.3326 -0.34197,-0.26834 -0.39028,-0.19276 -0.42153,-0.10582 -0.43419,-0.0151 -0.42811,0.0756 -0.40327,0.16252 -0.36068,0.24189 -0.30244,0.30992 -0.23097,0.37039 -0.14929,0.40819 -0.0613,0.42709 0.0296,0.43464 0.11902,0.41953 0.20337,0.38173 0.27878,0.33638 0.34197,0.26835 0.39028,0.18897 0.42145,0.10583 0.43431,0.0151 0.42807,-0.0718 0.40327,-0.16252 0.36068,-0.24189 0.30244,-0.3137 0.23089,-0.36662 z"
       style="fill:none;stroke:#ff0000;stroke-width:0.26666667;stroke-miterlimit:4;stroke-dasharray:none;stroke-linecap:round;stroke-linejoin:round;stroke-opacity:1"
       id="path1364" />
    <path
       d="m 320.41282,224.41277 0.41462,0.13228 0.43237,0.0416 0.43163,-0.0491 0.41234,-0.13985 0.37455,-0.21921 0.32013,-0.2948 0.25247,-0.35528 0.1731,-0.39685 0.0869,-0.42709 -0.004,-0.43464 -0.0941,-0.42331 -0.18028,-0.39685 -0.25852,-0.34772 -0.32542,-0.28724 -0.37833,-0.21543 -0.41461,-0.12851 -0.43238,-0.0416 -0.43162,0.0491 -0.41235,0.13607 -0.37455,0.21921 -0.32013,0.2948 -0.25247,0.35528 -0.17348,0.39685 -0.0865,0.42708 0.004,0.43465 0.0941,0.42331 0.18028,0.39685 0.25852,0.34771 0.32542,0.28725 z"
       style="fill:none;stroke:#ff0000;stroke-width:0.26666667;stroke-miterlimit:4;stroke-dasharray:none;stroke-linecap:round;stroke-linejoin:round;stroke-opacity:1"
       id="path1366" />
    <path
       d="m 276.548,453.0893 0.18709,0.39307 0.26457,0.34393 0.33033,0.27969 0.38211,0.20787 0.4165,0.12473 0.43351,0.034 0.43049,-0.0567 0.4097,-0.14362 0.37077,-0.22677 0.31522,-0.30237 0.24604,-0.35527 0.1663,-0.40441 0.0794,-0.42709 -0.0113,-0.43464 -0.10167,-0.41953 -0.18708,-0.39307 -0.26457,-0.34394 -0.33033,-0.28346 -0.38211,-0.20788 -0.4165,-0.12472 -0.43314,-0.034 -0.43086,0.0567 -0.4097,0.1474 -0.37078,0.22677 -0.31483,0.29858 -0.24643,0.35906 -0.1663,0.40063 -0.0794,0.42708 0.0117,0.43465 z"
       style="fill:none;stroke:#ff0000;stroke-width:0.26666667;stroke-miterlimit:4;stroke-dasharray:none;stroke-linecap:round;stroke-linejoin:round;stroke-opacity:1"
       id="path1368" />
    <path
       d="m 156.75043,690.69686 0.32296,0.29102 0.37637,0.21694 0.41329,0.13455 0.43223,0.0454 0.43219,-0.0454 0.41325,-0.13455 0.37637,-0.21694 0.32296,-0.29102 0.25542,-0.3515 0.17677,-0.39723 0.0904,-0.42482 v -0.43464 l -0.0904,-0.4252 -0.17677,-0.39685 -0.25542,-0.3515 -0.32296,-0.29102 -0.37637,-0.21732 -0.41325,-0.13418 -0.43219,-0.0453 -0.43223,0.0453 -0.41329,0.13418 -0.37637,0.21732 -0.32296,0.29102 -0.25542,0.3515 -0.17677,0.39685 -0.0904,0.4252 v 0.43464 l 0.0904,0.42482 0.17677,0.39723 z"
       style="fill:none;stroke:#ff0000;stroke-width:0.26666667;stroke-miterlimit:4;stroke-dasharray:none;stroke-linecap:round;stroke-linejoin:round;stroke-opacity:1"
       id="path1370" />
    <path
       d="m 214.26517,633.48993 -0.32278,-0.29103 -0.37644,-0.21732 -0.41348,-0.13417 -0.432,-0.0454 -0.43238,0.0454 -0.4131,0.13417 -0.37644,0.21732 -0.32277,0.29103 -0.2555,0.35149 -0.17688,0.39685 -0.0903,0.4252 v 0.43464 l 0.0903,0.4252 0.17688,0.39685 0.2555,0.3515 0.32277,0.29064 0.37644,0.21733 0.4131,0.13455 0.43238,0.0454 0.432,-0.0454 0.41348,-0.13455 0.37644,-0.21733 0.32278,-0.29064 0.25549,-0.3515 0.17688,-0.39685 0.0903,-0.4252 v -0.43464 l -0.0903,-0.4252 -0.17688,-0.39685 z"
       style="fill:none;stroke:#ff0000;stroke-width:0.26666667;stroke-miterlimit:4;stroke-dasharray:none;stroke-linecap:round;stroke-linejoin:round;stroke-opacity:1"
       id="path1372" />
    <path
       d="m 321.0663,964.65598 -0.16138,-0.4035 -0.24189,-0.361 -0.31182,-0.3029 -0.36774,-0.2314 -0.40781,-0.1499 -0.43011,-0.062 -0.43352,0.029 -0.41801,0.1185 -0.38438,0.2028 -0.33411,0.2783 -0.26835,0.3416 -0.192,0.3899 -0.1062,0.4214 -0.0166,0.4343 0.0741,0.4282 0.16176,0.4034 0.24151,0.3611 0.31181,0.3028 0.36775,0.2315 0.40781,0.1499 0.43011,0.062 0.43389,-0.029 0.41802,-0.1185 0.38438,-0.2028 0.33373,-0.2783 0.26872,-0.3416 0.19163,-0.39 0.10658,-0.4213 0.0166,-0.4343 z"
       style="fill:none;stroke:#ff0000;stroke-width:0.26666667;stroke-miterlimit:4;stroke-dasharray:none;stroke-linecap:round;stroke-linejoin:round;stroke-opacity:1"
       id="path1374" />
    <path
       d="m 155.46063,628.26662 h 204.09449 a 3.779528,3.779528 0 0 1 3.77953,3.77953 v 60.09448 a 3.779528,3.779528 0 0 1 -3.77953,3.77953 H 155.46063 a 3.779528,3.779528 0 0 1 -3.77953,-3.77953 v -60.09448 a 3.779528,3.779528 0 0 1 3.77953,-3.77953 z"
       style="fill:none;stroke:#ff0000;stroke-width:0.26666667;stroke-miterlimit:4;stroke-dasharray:none;stroke-linecap:round;stroke-linejoin:round;stroke-opacity:1"
       id="path1376" />
    <path
       d="m 444.29364,958.66538 0.40781,0.15 0.43049,0.062 0.43351,-0.029 0.41802,-0.1184 0.38437,-0.2028 0.33374,-0.2784 0.26872,-0.3416 0.19162,-0.39 0.10659,-0.4213 0.0163,-0.4343 -0.0741,-0.4282 -0.16139,-0.4034 -0.24189,-0.3611 -0.31181,-0.3028 -0.36775,-0.2314 -0.40781,-0.1499 -0.43011,-0.062 -0.43351,0.029 -0.41839,0.1186 -0.38438,0.2028 -0.33373,0.2783 -0.26835,0.3416 -0.192,0.39 -0.1062,0.4213 -0.0166,0.4342 0.0741,0.4283 0.16138,0.4033 0.24189,0.3611 0.31181,0.3029 z"
       style="fill:none;stroke:#ff0000;stroke-width:0.26666667;stroke-miterlimit:4;stroke-dasharray:none;stroke-linecap:round;stroke-linejoin:round;stroke-opacity:1"
       id="path1378" />
    <path
       d="m 301.20677,942.47458 -0.30614,-0.3084 -0.36359,-0.2381 -0.40516,-0.1568 -0.42936,-0.07 -0.43389,0.021 -0.42028,0.1111 -0.38778,0.1958 -0.33865,0.2721 -0.27477,0.3368 -0.19842,0.3866 -0.11415,0.4195 -0.0242,0.4339 0.0665,0.4294 0.1542,0.4063 0.23546,0.3655 0.30615,0.308 0.36397,0.2381 0.40478,0.1572 0.42898,0.07 0.43427,-0.022 0.42028,-0.1107 0.38778,-0.1962 0.33865,-0.2721 0.27477,-0.3367 0.19842,-0.3867 0.11414,-0.4191 0.0242,-0.4339 -0.0665,-0.4298 -0.1542,-0.4063 z"
       style="fill:none;stroke:#ff0000;stroke-width:0.26666667;stroke-miterlimit:4;stroke-dasharray:none;stroke-linecap:round;stroke-linejoin:round;stroke-opacity:1"
       id="path1380" />
    <path
       d="m 167.39419,919.86588 h -0.43453 l -0.42463,0.093 -0.39602,0.1791 -0.35029,0.257 -0.28913,0.3247 -0.21529,0.3772 -0.13213,0.4142 -0.0432,0.4324 0.0477,0.432 0.13652,0.4123 0.21921,0.3753 0.2925,0.3217 0.35297,0.2536 0.39791,0.1746 0.4255,0.088 h 0.43457 l 0.42463,-0.093 0.39605,-0.1788 0.35025,-0.2574 0.2891,-0.3243 0.21528,-0.3775 0.13213,-0.4139 0.0432,-0.4327 -0.0477,-0.4317 -0.1364,-0.4127 -0.21933,-0.3753 -0.29246,-0.3213 -0.35285,-0.2536 -0.39795,-0.1746 z"
       style="fill:none;stroke:#ff0000;stroke-width:0.26666667;stroke-miterlimit:4;stroke-dasharray:none;stroke-linecap:round;stroke-linejoin:round;stroke-opacity:1"
       id="path1382" />
    <path
       d="m 518.39922,911.33958 0.43237,0.042 0.43162,-0.049 0.41235,-0.138 0.37455,-0.2203 0.32013,-0.2937 0.25247,-0.3537 0.17348,-0.3988 0.0865,-0.4256 -0.004,-0.4346 -0.0941,-0.4244 -0.18028,-0.3954 -0.25852,-0.3492 -0.32542,-0.288 -0.37833,-0.2139 -0.41461,-0.1308 -0.43238,-0.042 -0.43162,0.049 -0.41235,0.1379 -0.37455,0.2204 -0.32013,0.2936 -0.25247,0.3538 -0.1731,0.3987 -0.0869,0.4256 0.004,0.4346 0.0941,0.4245 0.18028,0.3953 0.25852,0.3493 0.32542,0.288 0.37833,0.2139 z"
       style="fill:none;stroke:#ff0000;stroke-width:0.26666667;stroke-miterlimit:4;stroke-dasharray:none;stroke-linecap:round;stroke-linejoin:round;stroke-opacity:1"
       id="path1384" />
    <path
       d="m 534.38095,885.12178 0.37039,-0.2268 0.31748,-0.2993 0.24567,-0.3583 0.1663,-0.4014 0.0794,-0.4271 -0.0113,-0.4346 -0.10205,-0.4226 -0.18519,-0.3923 -0.26457,-0.3447 -0.3326,-0.2823 -0.38173,-0.2071 -0.41575,-0.1236 -0.43464,-0.034 -0.43087,0.057 -0.40819,0.1451 -0.37039,0.2272 -0.31748,0.2989 -0.24567,0.3583 -0.1663,0.4014 -0.0794,0.4275 0.0113,0.4342 0.10204,0.4226 0.18898,0.3923 0.26457,0.3447 0.32882,0.2823 0.38173,0.2075 0.41575,0.1232 0.43464,0.034 0.43087,-0.057 z"
       style="fill:none;stroke:#ff0000;stroke-width:0.26666667;stroke-miterlimit:4;stroke-dasharray:none;stroke-linecap:round;stroke-linejoin:round;stroke-opacity:1"
       id="path1386" />
    <path
       d="m 658.99575,869.07358 -0.068,0.4289 0.0227,0.4343 0.11338,0.4195 0.19654,0.3874 0.27212,0.3376 0.34016,0.2736 0.38551,0.1973 0.41953,0.1126 0.43465,0.023 0.42708,-0.068 0.40819,-0.1558 0.36284,-0.2366 0.30992,-0.3072 0.23433,-0.3648 0.15496,-0.4055 0.068,-0.4294 -0.0227,-0.4338 -0.1096,-0.42 -0.20032,-0.38697 -0.27212,-0.33789 -0.33638,-0.27326 -0.38929,-0.19729 -0.41953,-0.11263 -0.43465,-0.0227 -0.42708,0.068 -0.40819,0.15572 -0.36284,0.2366 -0.30614,0.30727 -0.23811,0.36435 z"
       style="fill:none;stroke:#ff0000;stroke-width:0.26666667;stroke-miterlimit:4;stroke-dasharray:none;stroke-linecap:round;stroke-linejoin:round;stroke-opacity:1"
       id="path1388" />
    <path
       d="m 307.00381,768.9652 0.33374,-0.27817 0.26872,-0.34167 0.192,-0.39005 0.1062,-0.42104 0.0166,-0.43427 -0.0741,-0.42859 -0.16139,-0.40328 -0.24189,-0.36094 -0.31181,-0.30312 -0.36775,-0.23131 -0.40781,-0.14967 -0.43049,-0.062 -0.43351,0.0287 -0.41802,0.11868 -0.38437,0.20296 -0.33374,0.27817 -0.26872,0.34167 -0.19162,0.39005 -0.10658,0.42104 -0.0166,0.43427 0.0741,0.42822 0.16177,0.40365 0.24189,0.36095 0.31143,0.30274 0.36813,0.23168 0.40781,0.14967 0.43011,0.062 0.43351,-0.0291 0.41839,-0.1183 z"
       style="fill:none;stroke:#ff0000;stroke-width:0.26666667;stroke-miterlimit:4;stroke-dasharray:none;stroke-linecap:round;stroke-linejoin:round;stroke-opacity:1"
       id="path1390" />
    <path
       d="m 434.04885,759.11122 0.0166,-0.43427 -0.0741,-0.42822 -0.16176,-0.40328 -0.24189,-0.36094 -0.31143,-0.30312 -0.36775,-0.23131 -0.40819,-0.15004 -0.43011,-0.0616 -0.43351,0.0287 -0.41802,0.11868 -0.38438,0.20296 -0.33373,0.27818 -0.26872,0.34167 -0.19162,0.38966 -0.10659,0.42142 -0.0166,0.43427 0.0741,0.42822 0.16177,0.40365 0.24189,0.36095 0.31143,0.30274 0.36775,0.23168 0.40819,0.14967 0.43011,0.062 0.43351,-0.0291 0.41801,-0.11829 0.38438,-0.20296 0.33373,-0.27818 0.26873,-0.34167 0.19162,-0.39005 z"
       style="fill:none;stroke:#ff0000;stroke-width:0.26666667;stroke-miterlimit:4;stroke-dasharray:none;stroke-linecap:round;stroke-linejoin:round;stroke-opacity:1"
       id="path1392" />
    <path
       d="m 236.65962,749.99462 0.33865,-0.27213 0.27477,-0.33675 0.19842,-0.38665 0.11415,-0.41915 0.0242,-0.43389 -0.0665,-0.42973 -0.15459,-0.4063 -0.23508,-0.3651 -0.30614,-0.30841 -0.36397,-0.23773 -0.40517,-0.15723 -0.42897,-0.0696 -0.43389,0.0212 -0.42029,0.11112 -0.38778,0.19578 -0.33864,0.2725 -0.27477,0.33676 -0.19843,0.38627 -0.11414,0.41952 -0.0242,0.43389 0.0665,0.42936 0.1542,0.4063 0.23547,0.36548 0.30614,0.30841 0.36359,0.23773 0.40517,0.15723 0.42897,0.0695 0.43427,-0.0212 0.4199,-0.11112 z"
       style="fill:none;stroke:#ff0000;stroke-width:0.26666667;stroke-miterlimit:4;stroke-dasharray:none;stroke-linecap:round;stroke-linejoin:round;stroke-opacity:1"
       id="path1394" />
    <path
       d="m 166.37689,725.57811 0.42463,-0.0926 0.39609,-0.17878 0.35022,-0.257 0.28913,-0.32466 0.21528,-0.37758 0.13213,-0.41386 0.0431,-0.43238 -0.0477,-0.43199 -0.1364,-0.41273 -0.21933,-0.37493 -0.29242,-0.32164 -0.35289,-0.2536 -0.39795,-0.17462 -0.42554,-0.0881 -0.43457,0.002 -0.42463,0.0926 -0.39601,0.17877 -0.35029,0.25738 -0.2891,0.32429 -0.21528,0.37757 -0.13213,0.41386 -0.0432,0.43238 0.0477,0.432 0.13644,0.41272 0.21921,0.37531 0.29254,0.32126 0.35293,0.25361 0.39795,0.17461 0.42546,0.0881 z"
       style="fill:none;stroke:#ff0000;stroke-width:0.26666667;stroke-miterlimit:4;stroke-dasharray:none;stroke-linecap:round;stroke-linejoin:round;stroke-opacity:1"
       id="path1396" />
    <path
       d="m 443.48293,716.62177 -0.37833,-0.21392 -0.41424,-0.13077 -0.43275,-0.0416 -0.43162,0.0491 -0.41235,0.13796 -0.37455,0.22034 -0.32013,0.29367 -0.25247,0.35377 -0.1731,0.39874 -0.0869,0.42557 0.004,0.43465 0.0941,0.42444 0.18028,0.39534 0.25852,0.34923 0.32542,0.288 0.37833,0.21392 0.41461,0.13077 0.43238,0.0416 0.43163,-0.0491 0.41234,-0.13795 0.37455,-0.22035 0.32013,-0.29367 0.25247,-0.35376 0.17348,-0.39874 0.0865,-0.42558 -0.004,-0.43464 -0.0941,-0.42444 -0.18028,-0.39534 -0.25852,-0.34923 z"
       style="fill:none;stroke:#ff0000;stroke-width:0.26666667;stroke-miterlimit:4;stroke-dasharray:none;stroke-linecap:round;stroke-linejoin:round;stroke-opacity:1"
       id="path1398" />
    <path
       d="m 630.50189,675.63733 0.40441,-0.1561 0.36284,-0.2366 0.30992,-0.30727 0.23433,-0.36435 0.15874,-0.40592 0.068,-0.42898 -0.0227,-0.43388 -0.11338,-0.41991 -0.19654,-0.38702 -0.2759,-0.33789 -0.33638,-0.27364 -0.38929,-0.19729 -0.41953,-0.11225 -0.43087,-0.0227 -0.43086,0.0676 -0.40441,0.15572 -0.36662,0.23698 -0.30614,0.30727 -0.23811,0.36435 -0.15496,0.40554 -0.068,0.42936 0.0227,0.43388 0.11338,0.41991 0.19654,0.38702 0.27212,0.33789 0.34016,0.27364 0.38551,0.19729 0.41953,0.11225 0.43465,0.0231 z"
       style="fill:none;stroke:#ff0000;stroke-width:0.26666667;stroke-miterlimit:4;stroke-dasharray:none;stroke-linecap:round;stroke-linejoin:round;stroke-opacity:1"
       id="path1400" />
    <path
       d="m 560.75071,681.33459 0.41953,0.12359 0.43087,0.034 0.43086,-0.0567 0.41197,-0.14513 0.37039,-0.22715 0.3137,-0.29896 0.24567,-0.3583 0.1663,-0.40139 0.0794,-0.42746 -0.0113,-0.43427 -0.10204,-0.42255 -0.1852,-0.39232 -0.26457,-0.34469 -0.33259,-0.28233 -0.38174,-0.20712 -0.41575,-0.12359 -0.43464,-0.034 -0.43087,0.0567 -0.40819,0.14513 -0.37039,0.22715 -0.3137,0.29896 -0.24567,0.3583 -0.17008,0.40139 -0.0756,0.42708 0.0113,0.43465 0.0983,0.42255 0.18897,0.39232 0.26457,0.34469 0.32882,0.28233 z"
       style="fill:none;stroke:#ff0000;stroke-width:0.26666667;stroke-miterlimit:4;stroke-dasharray:none;stroke-linecap:round;stroke-linejoin:round;stroke-opacity:1"
       id="path1402" />
    <path
       d="m 466.1412,626.76161 -0.42822,0.0748 -0.40328,0.16176 -0.36056,0.24265 -0.30237,0.31181 -0.23093,0.36812 -0.14966,0.40819 -0.0612,0.43011 0.0299,0.43389 0.11905,0.41802 0.20334,0.384 0.27855,0.33335 0.34205,0.26797 0.39042,0.19124 0.42142,0.10583 0.43427,0.0159 0.42822,-0.0744 0.4029,-0.16214 0.36094,-0.24265 0.30236,-0.31181 0.23093,-0.36813 0.14929,-0.40819 0.0612,-0.43011 -0.0295,-0.43351 -0.11905,-0.41801 -0.20334,-0.384 -0.27893,-0.33374 -0.34205,-0.26796 -0.39004,-0.19125 -0.42142,-0.10582 z"
       style="fill:none;stroke:#ff0000;stroke-width:0.26666667;stroke-miterlimit:4;stroke-dasharray:none;stroke-linecap:round;stroke-linejoin:round;stroke-opacity:1"
       id="path1404" />
    <path
       d="m 668.08552,585.92079 0.35905,-0.24189 0.30236,-0.30992 0.23055,-0.37039 0.15118,-0.40819 0.0605,-0.42709 -0.0302,-0.43464 -0.12094,-0.41953 -0.20032,-0.38173 -0.27968,-0.33638 -0.34394,-0.26835 -0.38929,-0.18897 -0.41953,-0.10583 -0.43465,-0.0151 -0.43086,0.0718 -0.40063,0.16252 -0.36284,0.24189 -0.30236,0.3137 -0.23055,0.36662 -0.1474,0.40819 -0.0642,0.43086 0.0302,0.43465 0.12095,0.41952 0.20409,0.38174 0.27591,0.3326 0.34393,0.26834 0.3893,0.19276 0.4233,0.10582 0.43465,0.0151 0.42708,-0.0756 z"
       style="fill:none;stroke:#ff0000;stroke-width:0.26666667;stroke-miterlimit:4;stroke-dasharray:none;stroke-linecap:round;stroke-linejoin:round;stroke-opacity:1"
       id="path1406" />
    <path
       d="m 643.28048,537.27071 0.23055,-0.37039 0.1474,-0.40819 0.0643,-0.43086 -0.0302,-0.43087 -0.12094,-0.41953 -0.2041,-0.38551 -0.2759,-0.3326 -0.34394,-0.26835 -0.38929,-0.18897 -0.42331,-0.10583 -0.43086,-0.0189 -0.43087,0.0756 -0.40063,0.16252 -0.36283,0.24189 -0.30237,0.3137 -0.23055,0.36662 -0.1474,0.40819 -0.0643,0.43086 0.0302,0.43465 0.12094,0.41575 0.20032,0.38551 0.27968,0.3326 0.34394,0.26834 0.38929,0.19276 0.41953,0.10583 0.43464,0.0151 0.43087,-0.0756 0.40063,-0.16252 0.36283,-0.24189 z"
       style="fill:none;stroke:#ff0000;stroke-width:0.26666667;stroke-miterlimit:4;stroke-dasharray:none;stroke-linecap:round;stroke-linejoin:round;stroke-opacity:1"
       id="path1408" />
    <path
       d="m 628.88047,495.53717 -0.32503,-0.29102 -0.37418,-0.21544 -0.41575,-0.13606 -0.43086,-0.0453 -0.43087,0.0453 -0.41575,0.13606 -0.37417,0.21544 -0.32504,0.29102 -0.25323,0.3515 -0.17763,0.39685 -0.0907,0.42708 v 0.43087 l 0.0907,0.42709 0.17763,0.39685 0.25323,0.35149 0.32504,0.29103 0.37417,0.21543 0.41575,0.13606 0.43087,0.0454 0.43086,-0.0454 0.41575,-0.13606 0.37418,-0.21543 0.32503,-0.29103 0.25323,-0.35149 0.17764,-0.39685 0.0907,-0.42709 v -0.43087 l -0.0907,-0.42708 -0.17764,-0.39685 z"
       style="fill:none;stroke:#ff0000;stroke-width:0.26666667;stroke-miterlimit:4;stroke-dasharray:none;stroke-linecap:round;stroke-linejoin:round;stroke-opacity:1"
       id="path1410" />
    <path
       d="m 592.52284,895.98838 -128.50718,71.9277 a 18.897638,18.897638 0 0 1 -7.97091,2.3653 l -146.86303,9.8061 a 18.897638,18.897638 0 0 1 -6.50279,-0.7002 l -136.01049,-39.2834 a 18.897638,18.897638 0 0 1 -13.65358,-18.0566 L 152.00047,728.3108 a 18.897638,18.897638 0 0 1 18.7984,-18.99632 l 62.27406,-0.32616 a 18.897638,18.897638 0 0 1 3.17675,0.25205 l 125.87825,20.77862 a 18.897638,18.897638 0 0 0 18.78307,-8.13512 l 63.56293,-94.9815 a 18.897638,18.897638 0 0 1 6.86241,-6.19082 l 179.49878,-95.04137 a 18.897638,18.897638 0 0 1 25.54395,7.85822 l 24.64608,46.54809 a 18.897638,18.897638 0 0 1 -0.93071,19.25513 l -34.30616,51.95956 a 18.897638,18.897638 0 0 0 -2.89462,13.36856 l 31.37073,198.06812 a 18.897638,18.897638 0 0 1 -15.70883,21.62122 l -59.75896,9.4646 a 18.897638,18.897638 0 0 0 -6.27376,2.1747 z"
       style="fill:none;stroke:#ff0000;stroke-width:0.26666667;stroke-miterlimit:4;stroke-dasharray:none;stroke-linecap:round;stroke-linejoin:round;stroke-opacity:1"
       id="path1412" />
    <path
       d="m 683.5589,443.54221 0.17764,-0.39685 0.0907,-0.42331 v -0.43464 l -0.0907,-0.42709 -0.17764,-0.39685 -0.25323,-0.3515 -0.32504,-0.29102 -0.37417,-0.21543 -0.41575,-0.13607 -0.43087,-0.0453 -0.43086,0.0453 -0.41575,0.13607 -0.37417,0.21543 -0.32504,0.29102 -0.25323,0.3515 -0.17764,0.39685 -0.0907,0.42709 v 0.43464 l 0.0907,0.42331 0.17764,0.39685 0.25323,0.3515 0.32504,0.29102 0.37417,0.21543 0.41575,0.13607 0.43086,0.0453 0.43087,-0.0453 0.41575,-0.13607 0.37417,-0.21543 0.32504,-0.29102 z"
       style="fill:none;stroke:#ff0000;stroke-width:0.26666667;stroke-miterlimit:4;stroke-dasharray:none;stroke-linecap:round;stroke-linejoin:round;stroke-opacity:1"
       id="path1414" />
    <path
       d="m 673.25213,406.32142 -0.39307,0.18142 -0.3515,0.25701 -0.29102,0.32504 -0.21544,0.37795 -0.1285,0.41197 -0.0453,0.43464 0.0491,0.43087 0.13606,0.41197 0.21922,0.37417 0.29102,0.32126 0.35528,0.25323 0.39685,0.17764 0.4233,0.0869 0.43465,-0.004 0.42709,-0.0907 0.39685,-0.17764 0.34771,-0.26079 0.29103,-0.32126 0.21543,-0.37795 0.13228,-0.41575 0.0416,-0.43086 -0.0491,-0.43465 -0.13606,-0.41197 -0.21921,-0.37417 -0.29103,-0.32126 -0.35149,-0.25323 -0.40063,-0.17386 -0.42331,-0.0907 -0.43464,0.004 z"
       style="fill:none;stroke:#ff0000;stroke-width:0.26666667;stroke-miterlimit:4;stroke-dasharray:none;stroke-linecap:round;stroke-linejoin:round;stroke-opacity:1"
       id="path1416" />
    <path
       d="m 604.8389,385.61717 0.41953,-0.11339 0.38929,-0.19653 0.34016,-0.27213 0.27212,-0.33638 0.20032,-0.38551 0.11338,-0.41952 0.0227,-0.43465 -0.0643,-0.42709 -0.15496,-0.40819 -0.23433,-0.36661 -0.30614,-0.30614 -0.36662,-0.23811 -0.40441,-0.15874 -0.42709,-0.068 -0.43464,0.0227 -0.41953,0.10961 -0.38929,0.19654 -0.33638,0.27212 -0.2759,0.33638 -0.20032,0.38551 -0.11338,0.41953 -0.0227,0.43465 0.0643,0.43086 0.15496,0.40441 0.23433,0.36661 0.30614,0.30615 0.36662,0.23811 0.40441,0.15874 0.42708,0.068 z"
       style="fill:none;stroke:#ff0000;stroke-width:0.26666667;stroke-miterlimit:4;stroke-dasharray:none;stroke-linecap:round;stroke-linejoin:round;stroke-opacity:1"
       id="path1418" />
    <path
       d="m 688.37402,439.66819 v 60.09449 a 3.779528,3.779528 0 0 1 -3.77953,3.77953 H 480.5 a 3.779528,3.779528 0 0 1 -3.77952,-3.77953 V 439.66819 A 3.779528,3.779528 0 0 1 480.5,435.88867 h 204.09449 a 3.779528,3.779528 0 0 1 3.77953,3.77952 z"
       style="fill:none;stroke:#ff0000;stroke-width:0.26666667;stroke-miterlimit:4;stroke-dasharray:none;stroke-linecap:round;stroke-linejoin:round;stroke-opacity:1"
       id="path1420" />
    <path
       d="m 408.14284,370.91481 -0.43351,0.0302 -0.41802,0.11716 -0.38438,0.20409 -0.33373,0.27969 -0.26872,0.34016 -0.19163,0.38929 -0.10658,0.4233 -0.0166,0.43465 0.0741,0.42709 0.16176,0.40441 0.24189,0.35905 0.31144,0.30236 0.36774,0.23056 0.40819,0.15118 0.43011,0.0642 0.43351,-0.0302 0.41802,-0.11716 0.38438,-0.2041 0.33373,-0.27968 0.26872,-0.34016 0.19163,-0.38929 0.10658,-0.42331 0.0166,-0.43464 -0.0741,-0.42709 -0.16176,-0.40441 -0.24189,-0.35906 -0.31144,-0.30236 -0.36774,-0.23433 -0.40819,-0.1474 z"
       style="fill:none;stroke:#ff0000;stroke-width:0.26666667;stroke-miterlimit:4;stroke-dasharray:none;stroke-linecap:round;stroke-linejoin:round;stroke-opacity:1"
       id="path1422" />
    <path
       d="m 520.63405,164.5375 -0.41802,0.11716 -0.38437,0.2041 -0.33374,0.27968 -0.26872,0.34016 -0.19162,0.38929 -0.10659,0.42331 -0.0166,0.43464 0.0745,0.42709 0.16139,0.40441 0.24189,0.35905 0.31181,0.30236 0.36775,0.23434 0.40781,0.1474 0.43011,0.0643 0.43351,-0.0302 0.41801,-0.11716 0.38552,-0.2041 0.33259,-0.27968 0.26835,-0.34016 0.19276,-0.38929 0.10582,-0.42331 0.0151,-0.43464 -0.0718,-0.42709 -0.16252,-0.40441 -0.24189,-0.35905 -0.30992,-0.30237 -0.36926,-0.23433 -0.40781,-0.1474 -0.43011,-0.0642 z"
       style="fill:none;stroke:#ff0000;stroke-width:0.26666667;stroke-miterlimit:4;stroke-dasharray:none;stroke-linecap:round;stroke-linejoin:round;stroke-opacity:1"
       id="path1424" />
    <path
       d="m 212.10025,458.71701 0.068,-0.42708 -0.0227,-0.43465 -0.11225,-0.41953 -0.19729,-0.38929 -0.27364,-0.33638 -0.33789,-0.27212 -0.38702,-0.20032 -0.41991,-0.1096 -0.43389,-0.0227 -0.42935,0.068 -0.40554,0.15496 -0.36435,0.23433 -0.30728,0.30992 -0.23697,0.36284 -0.15572,0.40441 -0.068,0.43086 0.0231,0.43465 0.11225,0.41953 0.19729,0.38551 0.27364,0.34016 0.33751,0.27212 0.38741,0.19654 0.41952,0.11338 0.43427,0.0227 0.42898,-0.068 0.40592,-0.15496 0.36434,-0.23811 0.30728,-0.30614 0.2366,-0.36662 z"
       style="fill:none;stroke:#ff0000;stroke-width:0.26666667;stroke-miterlimit:4;stroke-dasharray:none;stroke-linecap:round;stroke-linejoin:round;stroke-opacity:1"
       id="path1426" />
    <path
       d="m 372.04721,504.13182 0.27893,0.33259 0.34205,0.26835 0.39005,0.19276 0.42142,0.10582 0.43426,0.0151 0.42822,-0.0756 0.40328,-0.15874 0.36057,-0.24567 0.30236,-0.30992 0.23093,-0.37039 0.14967,-0.40819 0.0612,-0.42709 -0.0299,-0.43464 -0.11906,-0.41953 -0.20334,-0.38173 -0.27855,-0.3326 -0.34204,-0.26835 -0.39043,-0.19275 -0.42142,-0.10583 -0.43427,-0.0151 -0.42821,0.0756 -0.4029,0.15874 -0.36095,0.24567 -0.30236,0.30992 -0.23093,0.3704 -0.14929,0.4044 -0.0612,0.43087 0.0295,0.43465 0.11906,0.41952 z"
       style="fill:none;stroke:#ff0000;stroke-width:0.26666667;stroke-miterlimit:4;stroke-dasharray:none;stroke-linecap:round;stroke-linejoin:round;stroke-opacity:1"
       id="path1428" />
  </g>
</svg>
